<svg xmlns="http://www.w3.org/2000/svg" viewBox="0 0 195.6 73.42"><defs><style>.cls-1,.cls-2{fill:#fff;}.cls-2{font-size:17.63px;font-family:HelveticaNeueLTStd-Hv, Helvetica Neue LT Std;}</style></defs><g id="Layer_2" data-name="Layer 2"><g id="PAnel_9" data-name="PAnel 9"><path class="cls-1" d="M20.66,0h2.6A22.23,22.23,0,0,1,38,7.17,21.79,21.79,0,0,1,31,41.63a24.37,24.37,0,0,1-6.9,1.93H19.54a22.42,22.42,0,0,1-14.73-8.1A22.54,22.54,0,0,1,0,23.19V20.68A22.38,22.38,0,0,1,4,9.29,22.15,22.15,0,0,1,20.66,0ZM17.92,3.56a18.66,18.66,0,0,0,1.85,36.79A18.65,18.65,0,0,0,30.47,5.27,18.82,18.82,0,0,0,17.92,3.56Z"/><path class="cls-1" d="M14.54,7.56c6.62-4.24,16.28-3,21.33,3.14A27.07,27.07,0,0,0,31.81,8,15.35,15.35,0,0,0,16.63,9.2,15.6,15.6,0,0,0,9.89,21.79c1.17,0,2.33,0,3.5,0a13.37,13.37,0,0,1,24.39-7.55,11.86,11.86,0,0,0-19.15,1.13,12.36,12.36,0,0,0-1.92,6.42h3.38a10.47,10.47,0,0,1,3.15-7.18,10,10,0,0,1,12-1.4,10.29,10.29,0,0,1,5,8.52c-1,.06-2.07.05-3.11,0A16.76,16.76,0,0,1,30.82,34.9,17.07,17.07,0,0,1,19.7,38.59c-4.67-.26-9.46-2.35-12.28-6.16A15.55,15.55,0,0,0,17.3,37,15.11,15.11,0,0,0,28.88,33,14.85,14.85,0,0,0,33.7,21.78H30.36A13.52,13.52,0,0,1,19.33,35,13.24,13.24,0,0,1,6.16,29.68,12,12,0,0,0,17.75,33.4,12,12,0,0,0,27,21.78c-1.15,0-2.31,0-3.46,0a9.94,9.94,0,0,1-4.19,8.14A10,10,0,0,1,8,30.14a9.86,9.86,0,0,1-4.45-8.36q1.49,0,3,0A17,17,0,0,1,14.54,7.56Z"/><path class="cls-1" d="M180.81,8.25a27.21,27.21,0,0,1,13.71,2.34c-.72,1.73-1.33,3.51-2.09,5.23a16,16,0,0,0-10.86-2.14,2.81,2.81,0,0,0-2.26,1.59c-.29,1.08.69,1.95,1.61,2.27,3.73,1.41,8,1.43,11.37,3.75a7.37,7.37,0,0,1,3.31,5.2v1.35a7.65,7.65,0,0,1-5.38,6.68c-6,2-12.55.31-18.15-2.24.54-1.77,1.29-3.45,1.84-5.21,3.94,1.71,8.25,3.06,12.59,2.36,1-.21,2.2-.73,2.34-1.89s-1.27-2-2.34-2.3c-3.82-1.25-8.14-1.38-11.47-3.86-2.7-2-3-6-1.36-8.78A9.7,9.7,0,0,1,180.81,8.25Z"/><path class="cls-1" d="M64.19,9c1.71-.2,3.43,0,5.15-.13.26.38.52.77.74,1.17,4.33,8.3,8.73,16.55,13,24.86-2.6-.08-5.2,0-7.8,0-2.61-5.35-5.28-10.66-7.89-16A3.36,3.36,0,0,0,66.8,18c-1,2.38-2.21,4.67-3.22,7q1.74,0,3.48,0c1,1.87,1.91,3.78,2.82,5.7-3-.07-6-.05-9,0-.62,1.38-1.3,2.74-1.9,4.13-2.6.08-5.21,0-7.82,0C55.49,26.23,60,17.69,64.19,9Z"/><path class="cls-1" d="M84.51,8.93q3.19,0,6.4,0,0,13,0,26c-2.13,0-4.26,0-6.4,0Q84.5,21.91,84.51,8.93Z"/><path class="cls-1" d="M93.69,9c4.66,0,9.32,0,14,0,3,0,6.15,1.07,7.94,3.57a8.9,8.9,0,0,1,.09,9.81,8.7,8.7,0,0,1-4.48,3.16c1.84,3.14,3.65,6.3,5.54,9.4-2.16,0-4.32,0-6.48,0-2.62-4.82-5.36-9.58-8-14.35,2.11-.05,4.23.1,6.33-.1s2.93-3,1.86-4.67a3,3,0,0,0-2.72-1.36c-2.6,0-5.2,0-7.8,0,0,6.84,0,13.67,0,20.51H93.69Z"/><path class="cls-1" d="M119.56,8.91c5.07,0,10.15,0,15.23,0A7.57,7.57,0,0,1,142,13.81a7.27,7.27,0,0,1-1.85,7.8,6.37,6.37,0,0,1,3.34,6.31c-.31,3.89-4,6.9-7.82,6.93-5.37,0-10.72,0-16.08,0Q119.54,21.9,119.56,8.91Zm6.21,5.47c0,1.49,0,3,0,4.45,2.87,0,5.75,0,8.63,0a2.42,2.42,0,0,0,2.52-1.6,2.18,2.18,0,0,0-2.14-2.83C131.78,14.37,128.77,14.39,125.77,14.38Zm0,9.87c0,1.73,0,3.46,0,5.19,3-.06,6,0,9,0a2.76,2.76,0,0,0,2.87-2.72,2.7,2.7,0,0,0-2.85-2.44C131.79,24.24,128.78,24.24,125.76,24.25Z"/><path class="cls-1" d="M145.47,8.85c2.17.05,4.34-.07,6.51.07-.09,4.83,0,9.66,0,14.49-.07,2.15.72,4.56,2.72,5.64,2.39,1.26,5.79,1,7.58-1.17a6.22,6.22,0,0,0,1.32-4.05c0-5,0-10,0-15h6.55c-.08,5,0,10,0,15-.07,3.12-.79,6.47-3.11,8.71s-5.91,3-9.14,2.93-6.75-.6-9.19-2.9c-2.25-2.14-3-5.36-3.14-8.36C145.46,19.11,145.47,14,145.47,8.85Z"/><text class="cls-2" transform="translate(29.51 69.29)">AIMS<tspan x="46.05" y="0">002</tspan><tspan x="79.37" y="0">-</tspan><tspan x="86.54" y="0">00</tspan><tspan x="108.75" y="0">-</tspan><tspan x="115.93" y="0">09</tspan></text></g></g></svg>