<svg xmlns="http://www.w3.org/2000/svg" viewBox="0 0 238.67 68.46"><defs><style>.cls-1,.cls-2{fill:#fff;}.cls-2{font-size:17.63px;font-family:HelveticaNeueLTStd-Hv, Helvetica Neue LT Std;}</style></defs><g id="Layer_2" data-name="Layer 2"><g id="PAnel_9" data-name="PAnel 9"><path class="cls-1" d="M27.8,8A101.55,101.55,0,0,1,38.91,0c-3.17,3-6.42,5.82-9.43,8.94A19,19,0,0,1,36.2,32.79,70.06,70.06,0,0,0,55,37c3.81.49,7.69.42,11.48,1.11-4,.47-8.06.23-12.08.44-7.07.31-14.14.49-21.2,1l-.68-1.21a19.49,19.49,0,0,1-12.91,5.41A19.08,19.08,0,0,1,7.72,40c-.81,2.61-1.94,5.45-1.06,8.19a3,3,0,0,0,3.56,1.63c3.27-.53,5.89-2.74,8.47-4.65A22.32,22.32,0,0,1,8.61,53.55c-1.92.76-4.54.94-5.95-.84C1,50.52,1.33,47.59,1.84,45.06a44.84,44.84,0,0,1,2.7-8c-6.18-6.81-6-18.2.26-24.9A19.18,19.18,0,0,1,27.8,8ZM6.62,13.46C1.16,19.15.66,28.84,5.69,35A94.52,94.52,0,0,1,26,9.46,17.08,17.08,0,0,0,6.62,13.46ZM8.56,37.93A17,17,0,0,0,18.5,41.5a16.88,16.88,0,0,0,12.8-5.33c-1.67-3.09-3.35-6.18-5-9.29A33.75,33.75,0,0,0,34.19,32a17,17,0,0,0,.43-13.3A17.56,17.56,0,0,0,28,10.56C20.3,18.71,13.33,27.74,8.56,37.93Z"/><path class="cls-1" d="M71.08,11.3c7.26,0,14.53,0,21.79,0a2.72,2.72,0,0,1,2.56,1.75c.54,1.86-1.13,3.16-2.05,4.53a8.86,8.86,0,0,1-5.55,3.86c.42.79,1.07,1.74.52,2.64-1.94,3.11-4.54,6.49-8.52,6.72-7.87.17-15.75,0-23.62.1C61.17,24.39,66.09,17.82,71.08,11.3ZM76,19a46,46,0,0,0,5.12-.11c1.21-.62,2.49-1.93,2.42-3.38-1.59-.15-3.18-.11-4.77-.15A34.91,34.91,0,0,0,76,19Zm-3.15,4Q71.44,25,70,26.92c1.82-.16,3.72.2,5.49-.25,1-.82,2.24-2,2.3-3.37C76.28,22.63,74.51,23.15,72.89,23Z"/><path class="cls-1" d="M106.07,11.65a12.39,12.39,0,0,1,3.89-.33c5.42,0,10.83,0,16.25,0a2.62,2.62,0,0,1,1.59,4.27q-4.35,5.79-8.73,11.56a9,9,0,0,1-7.5,3.71c-5.82,0-11.65.06-17.46,0a2.55,2.55,0,0,1-1.87-4c3-4,6-7.93,9-11.88A9,9,0,0,1,106.07,11.65Zm5.26,4.17c-2.34,2.7-4.3,5.72-6.52,8.51-.51.75-1.37,1.49-1,2.48a37.38,37.38,0,0,0,4.1,0c1.28-.25,1.89-1.55,2.65-2.48,2-2.78,4.22-5.39,6.06-8.28l-.29-.54C114.72,15.27,112.8,15,111.33,15.82Z"/><path class="cls-1" d="M137.23,11.33c7.22-.06,14.44,0,21.66,0a51.18,51.18,0,0,1-3.23,4.05c-3.57.05-7.14,0-10.71,0-.91,1.2-1.82,2.39-2.72,3.6,3.61,0,7.23,0,10.85,0-1,1.34-2,2.7-3.08,4-3.58,0-7.16,0-10.73,0-1.05,1.27-2,2.6-3,3.94,3.62,0,7.24,0,10.85,0-1,1.32-2.06,2.67-3,4-7.2.07-14.41-.06-21.62.07C127.38,24.4,132.39,17.93,137.23,11.33Z"/><path class="cls-1" d="M150.16,30.91c5-6.5,9.9-13.08,14.88-19.6h10.68c-4.95,6.54-9.84,13.14-14.87,19.62C157.29,30.84,153.73,30.87,150.16,30.91Z"/><path class="cls-1" d="M167.82,30.9c5-6.5,9.89-13.06,14.85-19.59h8.39c.73,3.34,1.6,6.65,2.28,10,2.61-3.29,5-6.71,7.63-10h7c-5,6.53-9.84,13.14-14.9,19.61-2.79-.08-5.59,0-8.39,0-.76-3.27-1.55-6.53-2.24-9.82-2.67,3.17-5,6.62-7.6,9.85C172.52,30.86,170.17,30.88,167.82,30.9Z"/><path class="cls-1" d="M211.48,15.07a9.13,9.13,0,0,1,7.17-3.76h17.22a2.53,2.53,0,0,1,2.8,2.61c-.13,1.66-1.58,2.77-2.45,4.08-3.55-.06-7.11-.06-10.66,0,.49-.68,1-1.37,1.5-2.05-1.46-1.08-3.88-.84-5.45-.11-2.68,3.25-5.13,6.71-7.62,10.09l0,.5c1.33.84,3.34.5,4.82.15,2.07-1.73,3.33-4.26,5.15-6.26q6.57.08,13.16,0c-1,1.38-2.08,2.72-3,4.15-.84,0-1.68,0-2.52,0-1.49,1.71-2.59,3.85-4.6,5a9,9,0,0,1-5.17,1.41c-5.7,0-11.41,0-17.11,0a2.56,2.56,0,0,1-2.12-4C205.49,22.94,208.53,19,211.48,15.07Z"/><text class="cls-2" transform="translate(78.04 64.33)">BSS<tspan x="36.25" y="0">7434</tspan></text></g></g></svg>