<svg xmlns="http://www.w3.org/2000/svg" viewBox="0 0 204.72 204.72"><defs><style>.cls-1{opacity:0.7;}.cls-2{fill:#fff;}</style></defs><g id="Layer_2" data-name="Layer 2"><g id="Panel_1" data-name="Panel 1"><circle class="cls-1" cx="102.36" cy="102.36" r="102.36"/><path class="cls-2" d="M101.36,6C48.36,6,5,49.36,5,102.36s43.36,96.37,96.36,96.37,96.36-43.37,96.36-96.37S154.36,6,101.36,6Zm0,183.08a86.71,86.71,0,1,1,86.71-86.71A87,87,0,0,1,101.36,189.07Z"/><path class="cls-2" d="M102.47,133.38l5,7.1L124,125.05c.5-.44,1-.89,1.45-1.36l0,0h0a29.44,29.44,0,0,0,8.86-20.91c0-16.93-14.75-30.66-32.95-30.66S68.41,85.81,68.41,102.74s14.75,30.66,33,30.66Zm11.78-33.92a3.28,3.28,0,1,1-3.28,3.28A3.28,3.28,0,0,1,114.25,99.46ZM88.47,106a3.28,3.28,0,1,1,3.28-3.28A3.28,3.28,0,0,1,88.47,106Zm9.61-3.28a3.28,3.28,0,1,1,3.28,3.28A3.28,3.28,0,0,1,98.08,102.74Zm55.83,8.91.08-.43a6,6,0,0,0-.92-4.54,6.12,6.12,0,0,0-1.88-1.77c.14-2,.23-4.08.25-6.12a41.64,41.64,0,0,0-1.34-11.33,45.46,45.46,0,0,0-8-15.62,4.62,4.62,0,0,0,.76-2.63,5.5,5.5,0,0,0-1.51-3.65,55.15,55.15,0,0,0-29.68-16.28,58.15,58.15,0,0,0-9.31-1,56.43,56.43,0,0,0-9.54.7,53.79,53.79,0,0,0-16.5,5.42A55.22,55.22,0,0,0,61.38,65.56a5.41,5.41,0,0,0-1.51,3.65,5.48,5.48,0,0,0,.75,2.65,49,49,0,0,0-6.33,10.78,38.66,38.66,0,0,0-2.75,10.62,62.83,62.83,0,0,0,0,11.31c0,.12,0,.23,0,.34a6,6,0,0,0-2.81,6.31l.08.43a15.8,15.8,0,0,0,4.6,23.66l-.93-4.78,1,5.21a6.06,6.06,0,1,0,11.89-2.31l-4.77-24.52A6.05,6.05,0,0,0,54.93,104c-.1-1.61-.18-3.22-.2-4.83a47.07,47.07,0,0,1,.21-5.57c0-.22.05-.43.07-.65,0,0,.19-1.26.27-1.7.17-.89.36-1.76.59-2.63a39.86,39.86,0,0,1,1.65-4.87c0-.06,0,0,0-.06l.12-.28c.08-.17.16-.35.23-.52.17-.37.34-.74.52-1.11.34-.71.71-1.41,1.09-2.1A46.36,46.36,0,0,1,62,75.62l.66-.93.34-.46.16-.21a4.29,4.29,0,0,0,1.84.36,5.27,5.27,0,0,0,3.66-1.52,51.24,51.24,0,0,1,5.1-4.67,52.12,52.12,0,0,1,10.73-6.25,49.62,49.62,0,0,1,11-3,49.16,49.16,0,0,1,11.69,0,50.38,50.38,0,0,1,11.31,3.08A45.18,45.18,0,0,1,134,72.86a5.29,5.29,0,0,0,3.66,1.52,5.21,5.21,0,0,0,1.82-.36c.46.6.9,1.2,1.32,1.82a44.27,44.27,0,0,1,2.53,4.1c.4.73.78,1.47,1.13,2.22l.49,1.06a1.6,1.6,0,0,0,.1.23l.07.17,0,.11c.06.13.11.26.16.38a39.69,39.69,0,0,1,1.54,4.7c.23.87.42,1.75.59,2.63l.21,1.28s0,.18,0,.25l0,.12c0,.25.06.49.08.74a62,62,0,0,1,0,10.2,6,6,0,0,0-5.7,4.88l-4.77,24.52a6,6,0,0,0,1.23,4.91,45.58,45.58,0,0,1-3.5,5,50,50,0,0,1-17.92,14,47.66,47.66,0,0,1-7.6,2.69l0-.29a2.25,2.25,0,0,0-2.58-1.85l-5.86,1a3.61,3.61,0,0,0-3,4.14l.1.55a3.59,3.59,0,0,0,4.13,3l5.87-1a2.24,2.24,0,0,0,1.84-2.58l-.11-.69a50.19,50.19,0,0,0,17.39-8.32,52.42,52.42,0,0,0,13-14.11,6,6,0,0,0,8.94-4.08l1-5.21-.93,4.78a15.78,15.78,0,0,0,4.6-23.66Z"/></g></g></svg>