<?xml version="1.0" encoding="utf-8"?>
<!-- Generator: Adobe Illustrator 26.0.0, SVG Export Plug-In . SVG Version: 6.00 Build 0)  -->
<svg version="1.1" id="Layer_1" xmlns="http://www.w3.org/2000/svg" xmlns:xlink="http://www.w3.org/1999/xlink" x="0px" y="0px"
	 viewBox="0 0 8 8" style="enable-background:new 0 0 8 8;" xml:space="preserve">
<g>
	<path d="M3.54,4.28c1.18,0,2.13-0.95,2.13-2.13c0-1.18-0.95-2.13-2.13-2.13c-1.18,0-2.13,0.95-2.13,2.13
		C1.41,3.32,2.36,4.28,3.54,4.28z"/>
	<path d="M4.4,6.4c0-0.72,0.48-1.34,1.14-1.53c-0.1-0.19-0.2-0.36-0.31-0.52c-0.49,0.31-1.07,0.5-1.69,0.5
		c-0.62,0-1.2-0.19-1.69-0.5c-0.59,0.86-0.98,2.16-1,3.63h4.94C5,7.89,4.4,7.22,4.4,6.4z"/>
	<path d="M5.99,5.24c-0.09,0-0.18,0.01-0.27,0.03C5.21,5.39,4.82,5.85,4.82,6.4c0,0.64,0.52,1.16,1.16,1.16
		c0.08,0,0.15-0.01,0.22-0.02C6.75,7.44,7.15,6.97,7.15,6.4C7.15,5.76,6.63,5.24,5.99,5.24z M6.79,6.63H6.21v0.58H6.18H5.76V6.63
		H5.19V6.18h0.58V5.6h0.08h0.37v0.58h0.58V6.63z"/>
</g>
</svg>
