<svg xmlns="http://www.w3.org/2000/svg" viewBox="0 0 67.64 64.52"><defs><style>.cls-1{fill:#fff;stroke:#fff;stroke-linejoin:round;stroke-width:3px;}</style></defs><g id="Layer_2" data-name="Layer 2"><g id="Panel_1" data-name="Panel 1"><polygon class="cls-1" points="46.45 14.36 18.5 1.5 11.38 16.97 45.24 16.97 46.45 14.36"/><path class="cls-1" d="M17.36,49a7,7,0,1,0,7,7A7,7,0,0,0,17.36,49Zm0,9.14A2.11,2.11,0,1,1,19.47,56,2.11,2.11,0,0,1,17.36,58.09Z"/><path class="cls-1" d="M38.62,49a7,7,0,1,0,7.05,7A7,7,0,0,0,38.62,49Zm0,9.14A2.11,2.11,0,1,1,40.74,56,2.11,2.11,0,0,1,38.62,58.09Z"/><path class="cls-1" d="M65.83,12.92a1.53,1.53,0,0,0-.86-.24H52l-1.2,4.95-.26,1.08H1.5L8.15,46.17h40.6l6.81-28.31h8.81c.6,0,1.1-.27,1.16-.63l.6-3.79A.52.52,0,0,0,65.83,12.92ZM47.15,23.54l-.73.73.49.5-.49-.49-.68.68.68-.69-.73-.73Zm-12,0-.18.19,2.18,2.19,1.65-1.65L38,23.54h1.46l-.72.73.48.5-.49-.49-1.64,1.64L38.6,27.4l-1.48-1.48L34.94,28.1l.9.92-.91-.91-1.64,1.64,1,1-1-1-2.18,2.18,1,1-1-1h0l-2.2-2.18-1.63,1.64,2.18,2.19h0l.89.88-.89-.88-2.18,2.18L28.55,37l-1.28-1.28h0l-2.19-2.18-.75.74.74-.74h0l2.19-2.19h0l1.63-1.63h0l2.2-2.19h0l1.63-1.64h0l2.2-2.19h0l.19-.19ZM23.44,39.59h0L22,41.07l1.48-1.48-2.18-2.18-.83.82.82-.83h0l2.18-2.2L21.8,33.58l-2.19,2.18h0l-1.15,1.15,1.15-1.15-2.18-2.18-1.2,1.19,1.19-1.19h0l2.18-2.19-.82-.83.82.82h0l2.19,2.19h0l1.64,1.63h0l2.19,2.2h0l.75.75-.75-.74ZM13.6,29.74h0L12.4,28.55l1.2,1.19,2.18-2.18-1-1,1,1h0L18,29.74l1.64-1.64-2.18-2.19h0l-1-1,1,1,2.19-2.18h0l.14-.15-.14.15,2.18,2.18,1-1-1,1h0L19.61,28.1h0L18,29.74h0l-2.19,2.19h0l-.65.65.65-.66Zm12,0h0l1.15,1.15-1.15-1.15-2.19,2.18h0l-1.15,1.15,1.15-1.16-2.18-2.19h0L20.1,28.59l1.16,1.15,2.19-2.18h0l.89-.9-.89.9Zm6.21-6.21-.73.73.74.75-.75-.74h0l-.73-.73Zm-7.66,0-.73.73,1.64,1.64,2.19-2.18h0l.09-.09-.08.09,2.18,2.18,1.48-1.47-1.48,1.48h0L27.28,28.1l.82.83-.83-.82h0l-2.19-2.19h0l-1.63-1.63h0l-.73-.73Zm-16.08,0h.75l-.62.63Zm1,5,1.21,1.21L12,28.1,9.77,25.91l-1,1-.51-2.48h0l.5,2.47,1-1L8.87,25l.9.89L12,23.73l-.12-.13.13.13h0l2.2,2.18,1.63-1.64-.73-.73h1.46l-.73.73h0l-1.63,1.63h0L12,28.1h0l-1.63,1.63h0l-.8.81Zm5.33,13-.29-.29-.29.29H11.73l-.38-1.88L12,39l-.18-.18L12,39h0l2.2,2.2h0l.29.29Zm7.65,0-.29-.29-.29.29H17.72l-.29-.29-.15.14.15-.15-1.64-1.64-1,1,1-1L13.6,37.41l-1.32,1.31,1.31-1.32h0l2.18-2.2-1.63-1.63L12,35.76h0l-1.14,1.15h0L12,35.76,10.21,34l-.15-.74L12,31.39l-.82-.83.82.82h0l2.2,2.19h0l1.63,1.63h0L18,37.41h0L19.61,39h0l2.19,2.2h0l.3.3Zm7.66,0-.29-.29-.29.29H25.38l-.29-.29-.29.29h0l.29-.3h0L27.28,39h0l1.63-1.63h0l2.2-2.2h0l1.63-1.63h0l2.2-2.19h0l1.63-1.64h0l2.2-2.19h0l1.64-1.64h0l2.19-2.19.19-.19h0l-.19.19,2.19,2.19h0l-2.2,2.18.66.66-.66-.65-.65.65.65-.66L40.4,25.92l-1.63,1.64L41,29.75h0l-2.19,2.18.9.92-.91-.91-1.64,1.64.89.89-.89-.89-2.18,2.18L36.21,37l-1.28-1.27-1.64,1.64.82.82-.82-.82-2.18,2.18,1.47,1.48L31.1,39.59l-1.64,1.65.29.29Zm15-8-2.19,2.19h0L40.4,33.58h0l2.19-2.19h0l2.19,2.19Zm-7.37,8-.29-.29-.29.29H33l-.29-.29-.29.29.29-.29h0l2.2-2.2h0l1.63-1.63h0l2.19-2.19h0l2.17,2.19.66-.66-.65.66,1,1-1-1L38.77,39.6h0l-2.19-2.19L34.94,39l2.18,2.2.55-.55-.55.55.29.29Zm7.57,0H40.69l-.29-.29h0l2.19-2.19h0L45,41.46Zm.65-2.72-1.4-1.4h0l2.19-2.19h0l.06.05Zm1.1-4.59.38-1.59-.37-.37.38.37Zm.82-3.41-1.13,1.13h0l-2.19-2.19h0l2.19-2.19h0L48,29.1Zm1-4.37-.53-.52h0l.87-.87Z"/><polygon class="cls-1" points="17.98 37.41 15.78 39.59 17.43 41.24 19.61 39.04 17.98 37.41"/><polygon class="cls-1" points="31.11 27.56 33.29 29.75 33.29 29.75 34.94 28.1 32.74 25.92 31.11 27.56"/><polygon class="cls-1" points="38.77 31.93 36.57 29.75 34.94 31.39 37.12 33.58 38.77 31.93"/><polygon class="cls-1" points="34.94 35.76 32.74 33.58 31.11 35.22 33.29 37.41 34.94 35.76"/><polygon class="cls-1" points="28.91 37.41 27.28 39.04 29.46 41.24 31.11 39.59 28.91 37.41"/><polygon points="46.45 14.36 18.5 1.5 11.38 16.97 45.24 16.97 46.45 14.36"/><path d="M17.36,49a7,7,0,1,0,7,7A7,7,0,0,0,17.36,49Zm0,9.14A2.11,2.11,0,1,1,19.47,56,2.11,2.11,0,0,1,17.36,58.09Z"/><path d="M38.62,49a7,7,0,1,0,7.05,7A7,7,0,0,0,38.62,49Zm0,9.14A2.11,2.11,0,1,1,40.74,56,2.11,2.11,0,0,1,38.62,58.09Z"/><path d="M65.83,12.92a1.53,1.53,0,0,0-.86-.24H52l-1.2,4.95-.26,1.08H1.5L8.15,46.17h40.6l6.81-28.31h8.81c.6,0,1.1-.27,1.16-.63l.6-3.79A.52.52,0,0,0,65.83,12.92ZM47.15,23.54l-.73.73.49.5-.49-.49-.68.68.68-.69-.73-.73Zm-12,0-.18.19,2.18,2.19,1.65-1.65L38,23.54h1.46l-.72.73.48.5-.49-.49-1.64,1.64L38.6,27.4l-1.48-1.48L34.94,28.1l.9.92-.91-.91-1.64,1.64,1,1-1-1-2.18,2.18,1,1-1-1h0l-2.2-2.18-1.63,1.64,2.18,2.19h0l.89.88-.89-.88-2.18,2.18L28.55,37l-1.28-1.28h0l-2.19-2.18-.75.74.74-.74h0l2.19-2.19h0l1.63-1.63h0l2.2-2.19h0l1.63-1.64h0l2.2-2.19h0l.19-.19ZM23.44,39.59h0L22,41.07l1.48-1.48-2.18-2.18-.83.82.82-.83h0l2.18-2.2L21.8,33.58l-2.19,2.18h0l-1.15,1.15,1.15-1.15-2.18-2.18-1.2,1.19,1.19-1.19h0l2.18-2.19-.82-.83.82.82h0l2.19,2.19h0l1.64,1.63h0l2.19,2.2h0l.75.75-.75-.74ZM13.6,29.74h0L12.4,28.55l1.2,1.19,2.18-2.18-1-1,1,1h0L18,29.74l1.64-1.64-2.18-2.19h0l-1-1,1,1,2.19-2.18h0l.14-.15-.14.15,2.18,2.18,1-1-1,1h0L19.61,28.1h0L18,29.74h0l-2.19,2.19h0l-.65.65.65-.66Zm12,0h0l1.15,1.15-1.15-1.15-2.19,2.18h0l-1.15,1.15,1.15-1.16-2.18-2.19h0L20.1,28.59l1.16,1.15,2.19-2.18h0l.89-.9-.89.9Zm6.21-6.21-.73.73.74.75-.75-.74h0l-.73-.73Zm-7.66,0-.73.73,1.64,1.64,2.19-2.18h0l.09-.09-.08.09,2.18,2.18,1.48-1.47-1.48,1.48h0L27.28,28.1l.82.83-.83-.82h0l-2.19-2.19h0l-1.63-1.63h0l-.73-.73Zm-16.08,0h.75l-.62.63Zm1,5,1.21,1.21L12,28.1,9.77,25.91l-1,1-.51-2.48h0l.5,2.47,1-1L8.87,25l.9.89L12,23.73l-.12-.13.13.13h0l2.2,2.18,1.63-1.64-.73-.73h1.46l-.73.73h0l-1.63,1.63h0L12,28.1h0l-1.63,1.63h0l-.8.81Zm5.33,13-.29-.29-.29.29H11.73l-.38-1.88L12,39l-.18-.18L12,39h0l2.2,2.2h0l.29.29Zm7.65,0-.29-.29-.29.29H17.72l-.29-.29-.15.14.15-.15-1.64-1.64-1,1,1-1L13.6,37.41l-1.32,1.31,1.31-1.32h0l2.18-2.2-1.63-1.63L12,35.76h0l-1.14,1.15h0L12,35.76,10.21,34l-.15-.74L12,31.39l-.82-.83.82.82h0l2.2,2.19h0l1.63,1.63h0L18,37.41h0L19.61,39h0l2.19,2.2h0l.3.3Zm7.66,0-.29-.29-.29.29H25.38l-.29-.29-.29.29h0l.29-.3h0L27.28,39h0l1.63-1.63h0l2.2-2.2h0l1.63-1.63h0l2.2-2.19h0l1.63-1.64h0l2.2-2.19h0l1.64-1.64h0l2.19-2.19.19-.19h0l-.19.19,2.19,2.19h0l-2.2,2.18.66.66-.66-.65-.65.65.65-.66L40.4,25.92l-1.63,1.64L41,29.75h0l-2.19,2.18.9.92-.91-.91-1.64,1.64.89.89-.89-.89-2.18,2.18L36.21,37l-1.28-1.27-1.64,1.64.82.82-.82-.82-2.18,2.18,1.47,1.48L31.1,39.59l-1.64,1.65.29.29Zm15-8-2.19,2.19h0L40.4,33.58h0l2.19-2.19h0l2.19,2.19Zm-7.37,8-.29-.29-.29.29H33l-.29-.29-.29.29.29-.29h0l2.2-2.2h0l1.63-1.63h0l2.19-2.19h0l2.17,2.19.66-.66-.65.66,1,1-1-1L38.77,39.6h0l-2.19-2.19L34.94,39l2.18,2.2.55-.55-.55.55.29.29Zm7.57,0H40.69l-.29-.29h0l2.19-2.19h0L45,41.46Zm.65-2.72-1.4-1.4h0l2.19-2.19h0l.06.05Zm1.1-4.59.38-1.59-.37-.37.38.37Zm.82-3.41-1.13,1.13h0l-2.19-2.19h0l2.19-2.19h0L48,29.1Zm1-4.37-.53-.52h0l.87-.87Z"/><polygon points="17.98 37.41 15.78 39.59 17.43 41.24 19.61 39.04 17.98 37.41"/><polygon points="31.11 27.56 33.29 29.75 33.29 29.75 34.94 28.1 32.74 25.92 31.11 27.56"/><polygon points="38.77 31.93 36.57 29.75 34.94 31.39 37.12 33.58 38.77 31.93"/><polygon points="34.94 35.76 32.74 33.58 31.11 35.22 33.29 37.41 34.94 35.76"/><polygon points="28.91 37.41 27.28 39.04 29.46 41.24 31.11 39.59 28.91 37.41"/></g></g></svg>