<?xml version="1.0" encoding="utf-8"?>
<!-- Generator: Adobe Illustrator 26.0.0, SVG Export Plug-In . SVG Version: 6.00 Build 0)  -->
<svg version="1.1" id="Layer_1" xmlns="http://www.w3.org/2000/svg" xmlns:xlink="http://www.w3.org/1999/xlink" x="0px" y="0px"
	 viewBox="0 0 10 11" style="enable-background:new 0 0 10 11;" xml:space="preserve">
<style type="text/css">
	.st0{fill:#FFFFFF;}
</style>
<g>
	<g>
		<g>
			<path d="M5.1,7.78l0.44,0.62l1.45-1.36c0.04-0.04,0.09-0.08,0.13-0.12l0,0h0C7.6,6.45,7.89,5.8,7.89,5.09C7.89,3.6,6.6,2.4,5,2.4
				S2.11,3.6,2.11,5.09c0,1.49,1.3,2.69,2.89,2.69C5.03,7.78,5.07,7.78,5.1,7.78z M9.62,5.87l0.01-0.04c0.03-0.14,0-0.29-0.08-0.4
				C9.5,5.37,9.44,5.32,9.38,5.28C9.39,5.1,9.4,4.92,9.4,4.74c0-0.34-0.03-0.67-0.12-0.99c-0.14-0.5-0.39-0.96-0.7-1.37
				c0.04-0.07,0.07-0.15,0.07-0.23C8.64,2.02,8.6,1.91,8.51,1.82C8.17,1.46,7.77,1.15,7.34,0.91C6.89,0.67,6.4,0.49,5.9,0.39
				C5.64,0.34,5.36,0.31,5.09,0.31C4.81,0.3,4.53,0.33,4.25,0.37C3.74,0.44,3.25,0.61,2.8,0.84C2.31,1.09,1.86,1.43,1.49,1.82
				c-0.08,0.09-0.13,0.2-0.13,0.32c0,0.08,0.02,0.16,0.07,0.23C1.2,2.67,1.01,2.99,0.87,3.33c-0.12,0.3-0.21,0.61-0.24,0.93
				c-0.04,0.33-0.02,0.66,0,0.99c0,0.01,0,0.02,0,0.03C0.56,5.32,0.5,5.37,0.46,5.44c-0.08,0.11-0.11,0.25-0.08,0.4l0.01,0.04
				C0.14,6.14,0.02,6.57,0.1,7.01c0.09,0.44,0.35,0.79,0.68,0.95L0.71,7.53L0.8,7.99c0.06,0.29,0.34,0.48,0.62,0.42
				C1.71,8.35,1.9,8.07,1.84,7.79L1.42,5.63C1.37,5.39,1.16,5.21,0.92,5.2C0.91,5.06,0.91,4.92,0.9,4.78c0-0.16,0-0.33,0.02-0.49
				c0-0.02,0-0.04,0.01-0.06c0,0,0.02-0.11,0.02-0.15C0.97,4.01,0.98,3.93,1,3.85c0.04-0.15,0.09-0.29,0.14-0.43c0-0.01,0,0,0-0.01
				c0-0.01,0.01-0.02,0.01-0.02c0.01-0.02,0.01-0.03,0.02-0.05c0.01-0.03,0.03-0.07,0.05-0.1c0.03-0.06,0.06-0.12,0.1-0.18
				c0.07-0.12,0.14-0.24,0.22-0.36C1.56,2.68,1.58,2.65,1.6,2.63C1.61,2.61,1.62,2.6,1.63,2.59c0-0.01,0.01-0.01,0.01-0.02
				C1.7,2.59,1.75,2.6,1.81,2.6c0.12-0.01,0.24-0.04,0.32-0.13c0.14-0.15,0.29-0.28,0.45-0.41c0.29-0.22,0.61-0.4,0.94-0.55
				c0.31-0.12,0.63-0.21,0.96-0.26c0.34-0.04,0.69-0.04,1.03,0C5.85,1.3,6.19,1.39,6.5,1.52c0.32,0.14,0.63,0.32,0.91,0.53
				c0.16,0.13,0.31,0.27,0.46,0.42C7.95,2.55,8.08,2.6,8.19,2.6c0.05,0,0.11-0.01,0.16-0.03c0.04,0.05,0.08,0.11,0.12,0.16
				c0.08,0.12,0.15,0.24,0.22,0.36c0.03,0.06,0.07,0.13,0.1,0.2C8.8,3.31,8.82,3.35,8.83,3.38c0,0.01,0.01,0.01,0.01,0.02
				c0,0,0.01,0.01,0.01,0.02c0,0,0,0.01,0,0.01c0,0.01,0.01,0.02,0.01,0.03C8.92,3.59,8.96,3.73,9,3.87
				C9.02,3.94,9.04,4.02,9.05,4.1c0.01,0.04,0.01,0.07,0.02,0.11c0,0,0,0.02,0,0.02c0,0,0,0.01,0,0.01c0,0.02,0.01,0.04,0.01,0.06
				c0.03,0.3,0.02,0.6,0,0.9c-0.24,0.01-0.45,0.18-0.5,0.43L8.16,7.79C8.13,7.95,8.18,8.1,8.27,8.22c-0.09,0.15-0.2,0.3-0.31,0.44
				C7.54,9.18,7,9.6,6.39,9.89c-0.21,0.1-0.44,0.18-0.67,0.24l0-0.03C5.7,9.99,5.6,9.92,5.49,9.93l-0.52,0.09
				c-0.17,0.03-0.29,0.19-0.26,0.36l0.01,0.05c0.03,0.17,0.19,0.29,0.36,0.26l0.52-0.09c0.11-0.02,0.18-0.12,0.16-0.23l-0.01-0.06
				c0.55-0.14,1.07-0.39,1.53-0.73c0.45-0.34,0.84-0.76,1.14-1.24c0.05,0.03,0.1,0.05,0.16,0.06C8.87,8.47,9.15,8.28,9.2,7.99
				l0.09-0.46L9.21,7.95c0.33-0.16,0.6-0.51,0.68-0.95C9.98,6.57,9.86,6.14,9.62,5.87z"/>
		</g>
	</g>
	<g>
		<circle class="st0" cx="5" cy="5.09" r="0.29"/>
		<circle class="st0" cx="6.13" cy="5.09" r="0.29"/>
		<circle class="st0" cx="3.87" cy="5.09" r="0.29"/>
	</g>
</g>
</svg>
