<?xml version="1.0" encoding="utf-8"?>
<!-- Generator: Adobe Illustrator 26.0.0, SVG Export Plug-In . SVG Version: 6.00 Build 0)  -->
<svg version="1.1" id="Layer_1" xmlns="http://www.w3.org/2000/svg" xmlns:xlink="http://www.w3.org/1999/xlink" x="0px" y="0px"
	 viewBox="0 0 11 11" style="enable-background:new 0 0 11 11;" xml:space="preserve">
<g>
	<polygon points="7.47,2.7 3.11,0.69 1.99,3.11 7.29,3.11 	"/>
	<path d="M2.93,8.11c-0.61,0-1.1,0.49-1.1,1.1c0,0.61,0.49,1.1,1.1,1.1c0.61,0,1.1-0.49,1.1-1.1C4.03,8.6,3.54,8.11,2.93,8.11z
		 M2.93,9.54c-0.18,0-0.33-0.15-0.33-0.33c0-0.18,0.15-0.33,0.33-0.33c0.18,0,0.33,0.15,0.33,0.33C3.26,9.39,3.11,9.54,2.93,9.54z"
		/>
	<path d="M6.25,8.11c-0.61,0-1.1,0.49-1.1,1.1c0,0.61,0.49,1.1,1.1,1.1c0.61,0,1.1-0.49,1.1-1.1C7.35,8.6,6.86,8.11,6.25,8.11z
		 M6.25,9.54c-0.18,0-0.33-0.15-0.33-0.33c0-0.18,0.15-0.33,0.33-0.33c0.18,0,0.33,0.15,0.33,0.33C6.58,9.39,6.43,9.54,6.25,9.54z"
		/>
	<path d="M10.5,2.48c-0.03-0.02-0.08-0.04-0.13-0.04H8.35L8.16,3.21L8.12,3.38H0.45l1.04,4.29h6.35L8.9,3.25h1.38
		c0.09,0,0.17-0.04,0.18-0.1l0.09-0.59C10.56,2.53,10.54,2.5,10.5,2.48z M7.58,4.14L7.47,4.25l0.08,0.08L7.47,4.25L7.36,4.36
		l0.11-0.11L7.36,4.14H7.58z M5.7,4.14L5.67,4.17l0.34,0.34l0.26-0.26L6.16,4.14h0.23L6.27,4.25l0.08,0.08L6.27,4.25L6.02,4.51
		l0.23,0.23L6.02,4.51L5.67,4.85l0.14,0.14L5.67,4.85L5.42,5.11l0.15,0.15L5.42,5.11L5.08,5.45l0.16,0.16L5.08,5.45l0,0L4.73,5.11
		L4.48,5.36l0.34,0.34l0,0l0.14,0.14L4.82,5.71L4.48,6.05l0.2,0.2l-0.2-0.2l0,0L4.13,5.71L4.02,5.82l0.12-0.12l0,0l0.34-0.34l0,0
		l0.26-0.26l0,0l0.34-0.34l0,0l0.26-0.26v0l0.34-0.34l0,0L5.7,4.14L5.7,4.14z M3.88,6.65L3.88,6.65L3.65,6.88L3.88,6.65L3.54,6.3
		L3.41,6.43L3.54,6.3l0,0l0.34-0.34L3.62,5.71L3.28,6.05l0,0L3.1,6.23l0.18-0.18L2.94,5.71L2.75,5.89l0.19-0.19l0,0l0.34-0.34
		L3.15,5.23l0.13,0.13l0,0l0.34,0.34l0,0l0.26,0.26l0,0L4.22,6.3l0,0l0.12,0.12L4.22,6.3L3.88,6.65z M2.34,5.11L2.34,5.11L2.15,4.92
		L2.34,5.11l0.34-0.34L2.53,4.61l0.15,0.15l0,0l0.34,0.34l0.26-0.26L2.94,4.51l0,0L2.78,4.35l0.15,0.15l0.34-0.34l0,0L3.3,4.14
		L3.28,4.17l0.34,0.34l0.15-0.15L3.62,4.51l0,0L3.28,4.85l0,0L3.02,5.11l0,0L2.68,5.45l0,0l-0.1,0.1l0.1-0.1L2.34,5.11z M4.22,5.11
		L4.22,5.11L4.4,5.29L4.22,5.11L3.88,5.45l0,0L3.7,5.63l0.18-0.18L3.54,5.11l0,0L3.36,4.93l0.18,0.18l0.34-0.34l0,0l0.14-0.14
		L3.88,4.76L4.22,5.11z M5.19,4.14L5.08,4.25l0.12,0.12L5.08,4.25l0,0L4.96,4.14H5.19z M3.99,4.14L3.88,4.25l0.26,0.26l0.34-0.34
		l0,0l0.01-0.01L4.48,4.17l0.34,0.34l0.23-0.23L4.82,4.51l0,0L4.48,4.85l0.13,0.13L4.48,4.85l0,0L4.13,4.51l0,0L3.88,4.25l0,0
		L3.77,4.14H3.99z M1.48,4.14H1.6l-0.1,0.1L1.48,4.14z M1.64,4.92l0.19,0.19l0.26-0.26L1.74,4.51L1.59,4.66L1.51,4.28l0,0l0.08,0.39
		l0.15-0.15L1.6,4.37l0.14,0.14l0.34-0.34L2.06,4.15l0.02,0.02l0,0l0.34,0.34l0.26-0.26L2.57,4.14H2.8L2.68,4.25l0,0L2.43,4.51l0,0
		L2.08,4.85l0,0L1.83,5.11l0,0L1.7,5.23L1.64,4.92z M2.47,6.95L2.43,6.9L2.38,6.95H2.05L1.99,6.65l0.09-0.09L2.05,6.53l0.03,0.03
		l0,0L2.43,6.9l0,0L2.47,6.95L2.47,6.95z M3.67,6.95L3.62,6.9L3.58,6.95H2.98L2.94,6.9L2.91,6.93L2.94,6.9L2.68,6.65L2.52,6.81
		l0.16-0.16L2.34,6.3l-0.21,0.2L2.34,6.3l0,0l0.34-0.34L2.43,5.71L2.08,6.05l0,0L1.9,6.23v0l0.18-0.18L1.81,5.77L1.79,5.66l0.3-0.3
		L1.95,5.23l0.13,0.13l0,0l0.34,0.34l0,0l0.26,0.26l0,0L3.02,6.3v0l0.26,0.26v0L3.62,6.9l0,0L3.67,6.95L3.67,6.95z M4.86,6.95
		L4.82,6.9L4.77,6.95H4.18L4.13,6.9L4.09,6.95h0L4.13,6.9l0,0l0.34-0.34l0,0L4.73,6.3l0,0l0.34-0.34l0,0l0.26-0.26v0l0.34-0.34v0
		l0.26-0.26v0l0.34-0.34l0,0l0.26-0.26l0,0l0.34-0.34L6.9,4.14l0,0L6.87,4.17l0.34,0.34l0,0l0,0L6.87,4.85l0.1,0.1l-0.1-0.1
		l-0.1,0.1l0.1-0.1L6.53,4.51L6.27,4.76l0.34,0.34l0,0l0,0L6.27,5.45l0.14,0.14L6.27,5.45L6.02,5.71l0.14,0.14L6.02,5.71L5.67,6.05
		l0.2,0.2l-0.2-0.2L5.42,6.3l0.13,0.13L5.42,6.3L5.08,6.65l0.23,0.23L5.08,6.65L4.82,6.9L4.86,6.95L4.86,6.95z M7.21,5.71L6.87,6.05
		l0,0l0,0L6.53,5.71l0,0l0,0l0.34-0.34h0v0L7.21,5.71L7.21,5.71L7.21,5.71z M6.06,6.95L6.02,6.9L5.97,6.95H5.38L5.33,6.9L5.29,6.95
		L5.33,6.9l0,0l0.34-0.34v0L5.93,6.3l0,0l0,0l0,0l0,0l0.34-0.34h0l0,0L6.61,6.3l0.1-0.1l-0.1,0.1l0.15,0.15L6.61,6.3L6.27,6.65l0,0
		l0,0L5.93,6.3L5.67,6.56L6.02,6.9L6.1,6.82L6.02,6.9L6.06,6.95L6.06,6.95z M7.24,6.95H6.57L6.53,6.9l0,0l0,0l0.34-0.34l0,0l0,0
		l0.38,0.38L7.24,6.95z M7.35,6.52L7.13,6.3l0,0l0,0l0.34-0.34l0,0l0,0l0.01,0.01L7.35,6.52z M7.52,5.81l0.06-0.25L7.52,5.5
		l0.06,0.06L7.52,5.81z M7.65,5.27L7.47,5.45l0,0l0,0L7.13,5.11l0,0v0l0.34-0.34l0,0v0l0.24,0.24L7.65,5.27z M7.81,4.59L7.73,4.51
		l0,0l0,0l0.14-0.14L7.81,4.59z"/>
	<polygon points="3.02,6.3 2.68,6.65 2.94,6.9 3.28,6.56 	"/>
	<polygon points="5.08,4.76 5.42,5.11 5.42,5.11 5.67,4.85 5.33,4.51 	"/>
	<polygon points="6.27,5.45 5.93,5.11 5.67,5.36 6.02,5.71 	"/>
	<polygon points="5.67,6.05 5.33,5.71 5.08,5.96 5.42,6.3 	"/>
	<polygon points="4.73,6.3 4.48,6.56 4.82,6.9 5.08,6.65 	"/>
</g>
</svg>
