<svg xmlns="http://www.w3.org/2000/svg" viewBox="0 0 16.36 16.36"><defs><style>.cls-1{fill:#fff;}</style></defs><g id="Layer_2" data-name="Layer 2"><g id="Botom_Menu" data-name="Botom Menu"><path class="cls-1" d="M8.18,0a8.18,8.18,0,1,0,8.18,8.18A8.18,8.18,0,0,0,8.18,0ZM13.3,10.3a4.13,4.13,0,0,1-.24,1.25,2.71,2.71,0,0,1-1.51,1.51,4.13,4.13,0,0,1-1.25.24c-.55,0-.72,0-2.12,0s-1.58,0-2.13,0a4.19,4.19,0,0,1-1.25-.24,2.71,2.71,0,0,1-.91-.6,2.5,2.5,0,0,1-.59-.91,3.59,3.59,0,0,1-.24-1.25c0-.55,0-.72,0-2.12s0-1.58,0-2.13A3.53,3.53,0,0,1,3.3,4.81a2.62,2.62,0,0,1,.59-.92A2.68,2.68,0,0,1,4.8,3.3a3.64,3.64,0,0,1,1.25-.24c.55,0,.73,0,2.13,0s1.57,0,2.12,0a3.59,3.59,0,0,1,1.25.24,2.5,2.5,0,0,1,.91.59,2.66,2.66,0,0,1,.6.92,4.05,4.05,0,0,1,.24,1.24c0,.55,0,.73,0,2.13S13.32,9.75,13.3,10.3ZM12.19,5.14a1.54,1.54,0,0,0-.38-.59,1.73,1.73,0,0,0-.6-.39,2.8,2.8,0,0,0-1-.17c-.54,0-.71,0-2.08,0S6.64,4,6.1,4a2.87,2.87,0,0,0-1,.17,1.77,1.77,0,0,0-1,1A2.87,2.87,0,0,0,4,6.1c0,.54,0,.7,0,2.08s0,1.54,0,2.08a2.8,2.8,0,0,0,.17,1,1.73,1.73,0,0,0,.39.6,1.54,1.54,0,0,0,.59.38,2.8,2.8,0,0,0,1,.18c.54,0,.7,0,2.08,0s1.54,0,2.08,0a2.73,2.73,0,0,0,1-.18,1.62,1.62,0,0,0,1-1,2.73,2.73,0,0,0,.18-1c0-.54,0-.71,0-2.08s0-1.54,0-2.08A2.8,2.8,0,0,0,12.19,5.14Zm-4,5.68a2.65,2.65,0,1,1,2.64-2.64A2.65,2.65,0,0,1,8.18,10.82Zm2.75-4.77a.62.62,0,0,1,0-1.24.62.62,0,0,1,0,1.24Zm-2.75.41A1.72,1.72,0,1,0,9.89,8.18,1.72,1.72,0,0,0,8.18,6.46Z"/></g></g></svg>