<?xml version="1.0" encoding="utf-8"?>
<!-- Generator: Adobe Illustrator 26.0.0, SVG Export Plug-In . SVG Version: 6.00 Build 0)  -->
<svg version="1.1" id="Layer_1" xmlns="http://www.w3.org/2000/svg" xmlns:xlink="http://www.w3.org/1999/xlink" x="0px" y="0px"
	 viewBox="0 0 40.2 37.3" style="enable-background:new 0 0 40.2 37.3;" xml:space="preserve">
<style type="text/css">
	.st0{fill:#FEBE10;}
	.st1{fill:#FFFFFF;}
</style>
<g id="Layer_2_00000111883302582718479120000015103331259176099981_">
	<g id="Main_Body_Content">
		<path class="st0" d="M5.2,18.6l12,13c0.5,0.5,1.2,0.5,1.7,0c0,0,0.1-0.1,0.1-0.1L39.9,5.8c0.4-0.5,0.4-1.3-0.1-1.7
			c0,0-0.1,0-0.1-0.1l-5.1-3.8C34-0.2,33.3,0,32.9,0.5L19.1,18.2c-0.4,0.5-1.2,0.6-1.7,0.2c0,0-0.1-0.1-0.1-0.1l-5.9-5.9
			c-0.5-0.5-1.2-0.5-1.7,0c0,0,0,0,0,0L5.2,17C4.8,17.5,4.8,18.2,5.2,18.6z"/>
		<path class="st1" d="M32.2,35.3H2V5.1h25.5l1.6-2H0v34.2h34.3V18l-2,2.2L32.2,35.3z"/>
	</g>
</g>
</svg>
