<?xml version="1.0" encoding="utf-8"?>
<!-- Generator: Adobe Illustrator 26.0.0, SVG Export Plug-In . SVG Version: 6.00 Build 0)  -->
<svg version="1.1" id="Layer_1" xmlns="http://www.w3.org/2000/svg" xmlns:xlink="http://www.w3.org/1999/xlink" x="0px" y="0px"
	 viewBox="0 0 115 64" style="enable-background:new 0 0 115 64;" xml:space="preserve">
<style type="text/css">
	.st0{fill:#FEBE10;}
	.st1{fill:#F4C854;}
	.st2{fill:#BBBDBF;}
	.st3{fill:#EDF0F2;}
</style>
<g>
	<g>
		<g>
			<path class="st0" d="M52.19,48.6c2.49,3.72,5.36,5.24,5.36,5.24s2.88-1.52,5.36-5.24H52.19z"/>
		</g>
		<path class="st1" d="M59,40.97"/>
	</g>
	<g>
		<path class="st0" d="M45.07,19.69c-0.74-1.52-0.87-3.1-0.39-4.72c-3.69,0.51-8.3,0.49-13.96-0.54c0,0-0.46,4.01-0.11,9.99
			L0.3,28.16h6.85h23.78h4.94c-0.27-2.7-0.38-5.57-0.3-8.62C35.57,19.54,39.79,20.28,45.07,19.69z"/>
		<path class="st0" d="M84.49,24.44c0.35-5.99-0.11-10.01-0.11-10.01c-4.75,0.87-8.76,1.02-12.12,0.74c0.27,1.6-0.04,3.24-0.87,4.64
			c4.63,0.34,8.15-0.27,8.15-0.27c0.08,3.05-0.03,5.91-0.3,8.62h4.94h24.32h6.19L84.49,24.44z"/>
	</g>
	<g>
		<path class="st2" d="M48.06,18.79c-0.76-1.22-0.78-2.34-0.23-3.56c0.64-1.42,1.78-2.2,3.34-2.3c1.01-0.06,1.77-0.46,2.24-1.38
			c0.52-1.01,1.09-2,1.58-3.03c0.33-0.68,0.27-1.4-0.12-2.07c-0.47-0.81-0.75-1.67-0.63-2.61c0.18-1.44,0.96-2.46,2.27-3.04
			c1.37-0.6,2.7-0.44,3.88,0.46c1.69,1.29,1.95,3.75,0.66,5.35c-0.78,0.97-1.79,1.44-3.03,1.49c-0.87,0.03-1.51,0.5-1.94,1.22
			c-0.53,0.9-0.97,1.85-1.49,2.76c-1.03,1.79,0.37,4.05,2.46,3.9c1.01-0.07,2.03-0.07,3.04-0.12c0.9-0.04,1.58-0.46,2-1.26
			c0.94-1.8,3.17-2.61,5.01-1.75c2.17,1.02,2.84,3.61,1.64,5.48c-1.13,1.77-3.39,2.38-5.22,1.27c-0.46-0.28-0.89-0.7-1.18-1.15
			c-0.61-0.93-1.43-1.35-2.51-1.32c-1,0.03-1.99,0.06-2.99,0.1c-0.94,0.03-1.64,0.48-2.08,1.31c-1.03,1.92-3.42,2.66-5.32,1.57
			C48.89,19.8,48.38,19.31,48.06,18.79z"/>
	</g>
	<g>
		<path class="st3" d="M51.15,28.19h-1.01l-2.03-3.05v3.05h-0.75v-3.85h1.07l1.98,2.96v-2.96h0.75V28.19z"/>
		<path class="st3" d="M56.16,27.56h-2.24l-0.28,0.64h-0.73l1.62-3.85h1.01l1.62,3.85h-0.72L56.16,27.56z M55.04,24.82l-0.83,2.11
			h1.65L55.04,24.82z"/>
		<path class="st3" d="M62.72,28.19h-1.01l-2.03-3.05v3.05h-0.75v-3.85H60l1.98,2.96v-2.96h0.75V28.19z"/>
		<path class="st3" d="M68.06,24.34c0.23,0,0.43,0.08,0.6,0.25c0.17,0.17,0.25,0.37,0.25,0.6v2.16c0,0.23-0.08,0.43-0.25,0.6
			c-0.17,0.17-0.37,0.25-0.6,0.25h-2.5c-0.24,0-0.44-0.08-0.6-0.25c-0.16-0.17-0.25-0.37-0.25-0.6v-2.16c0-0.23,0.08-0.43,0.25-0.6
			c0.16-0.17,0.36-0.25,0.6-0.25H68.06z M68.22,27.15v-1.77c0-0.1-0.03-0.18-0.1-0.25s-0.15-0.1-0.25-0.1h-2.12
			c-0.1,0-0.18,0.03-0.25,0.1c-0.07,0.07-0.1,0.15-0.1,0.25v1.77c0,0.1,0.03,0.18,0.1,0.25c0.07,0.07,0.15,0.1,0.25,0.1h2.12
			c0.1,0,0.18-0.03,0.25-0.1C68.18,27.33,68.22,27.25,68.22,27.15z"/>
	</g>
	<g>
		<path class="st3" d="M9.25,30.33h6.43c1.07,0,1.85,0.24,2.34,0.73c0.49,0.48,0.73,1.26,0.73,2.34v1.53c0,1.07-0.24,1.85-0.73,2.34
			c-0.49,0.49-1.26,0.73-2.34,0.73H12v3.06H9.25V30.33z M15.99,33.39c0-0.61-0.31-0.92-0.92-0.92H12v3.37h3.06
			c0.61,0,0.92-0.31,0.92-0.92V33.39z"/>
		<path class="st3" d="M20.12,30.33h6.43c1.07,0,1.85,0.24,2.34,0.73c0.49,0.48,0.73,1.26,0.73,2.34v1.38
			c0,0.85-0.14,1.51-0.42,1.98c-0.28,0.47-0.73,0.78-1.34,0.93l1.91,3.37h-2.99l-1.76-3.22h-2.14v3.22h-2.76V30.33z M26.86,33.39
			c0-0.61-0.31-0.92-0.92-0.92h-3.06v3.22h3.06c0.61,0,0.92-0.31,0.92-0.92V33.39z"/>
		<path class="st3" d="M40.65,38.07c0,1.04-0.24,1.8-0.71,2.27c-0.47,0.47-1.23,0.71-2.27,0.71h-3.72c-1.04,0-1.8-0.24-2.27-0.71
			c-0.47-0.47-0.71-1.23-0.71-2.27V33.3c0-1.04,0.24-1.8,0.71-2.27c0.47-0.47,1.23-0.71,2.27-0.71h3.72c1.04,0,1.8,0.24,2.27,0.71
			c0.47,0.47,0.71,1.23,0.71,2.27V38.07z M37.97,33.3c0-0.6-0.3-0.89-0.89-0.89h-2.53c-0.59,0-0.89,0.3-0.89,0.89v4.76
			c0,0.6,0.3,0.89,0.89,0.89h2.53c0.6,0,0.89-0.3,0.89-0.89V33.3z"/>
		<path class="st3" d="M47.53,41.04h-2.76v-8.57h-3.21v-2.14h9.19v2.14h-3.21V41.04z"/>
		<path class="st3" d="M58.75,41.04h-7.29V30.33h7.29v2.14h-4.53v2.07h4.53v2.14h-4.53v2.22h4.53V41.04z"/>
		<path class="st3" d="M74.68,41.04h-2.76v-8.57H68.7v-2.14h9.19v2.14h-3.21V41.04z"/>
		<path class="st3" d="M84.02,41.04H78.5V38.9h1.38v-6.43H78.5v-2.14h5.51v2.14h-1.38v6.43h1.38V41.04z"/>
		<path class="st3" d="M94.9,38.07c0,1.04-0.24,1.8-0.71,2.27c-0.47,0.47-1.23,0.71-2.27,0.71H88.2c-1.04,0-1.8-0.24-2.27-0.71
			c-0.47-0.47-0.71-1.23-0.71-2.27V33.3c0-1.04,0.24-1.8,0.71-2.27c0.47-0.47,1.23-0.71,2.27-0.71h3.72c1.04,0,1.8,0.24,2.27,0.71
			c0.47,0.47,0.71,1.23,0.71,2.27V38.07z M92.22,33.3c0-0.6-0.3-0.89-0.89-0.89H88.8c-0.59,0-0.89,0.3-0.89,0.89v4.76
			c0,0.6,0.3,0.89,0.89,0.89h2.53c0.6,0,0.89-0.3,0.89-0.89V33.3z"/>
		<path class="st3" d="M105.91,41.04H103l-3.67-6.43v6.43h-2.76V30.33h2.91l3.68,6.43v-6.43h2.76V41.04z"/>
		<path class="st3" d="M63.34,32.47h4.49v-2.14h-5.1c-1.07,0-1.85,0.24-2.34,0.73c-0.44,0.44-0.66,1.12-0.71,2.03h-0.02v0.31v4.59
			v0.31h0.02c0.04,0.91,0.27,1.59,0.71,2.03c0.48,0.48,1.26,0.73,2.34,0.73h5.1V38.9h-4.49c-0.61,0-0.92-0.31-0.92-0.92v-4.59
			C62.43,32.78,62.73,32.47,63.34,32.47z"/>
	</g>
	<g>
		<path class="st0" d="M68.47,48.6c-5.47,6.88-10.92,9.75-10.92,9.75s-5.44-2.87-10.92-9.75H40.5c3.96,5.8,9.45,11.09,17.06,14.95
			c7.61-3.86,13.1-9.15,17.06-14.95H68.47z"/>
		<polygon class="st0" points="76.75,46.13 105.91,43.04 77.91,43.04 76.75,43.04 		"/>
		<polygon class="st0" points="38.25,43.04 37.21,43.04 9.25,43.04 38.25,46.12 		"/>
	</g>
	<g>
		<path class="st3" d="M42.22,43.23h0.75v3.16h2.45v0.69h-3.2V43.23z"/>
		<path class="st3" d="M50.43,46.45h-2.24l-0.28,0.64h-0.73l1.62-3.85h1.01l1.62,3.85h-0.72L50.43,46.45z M49.32,43.71l-0.83,2.11
			h1.65L49.32,43.71z"/>
		<path class="st3" d="M55.17,43.23h0.8l-1.45,2.4v1.46h-0.75v-1.46l-1.45-2.4h0.79l1.03,1.74L55.17,43.23z"/>
		<path class="st3" d="M61.09,43.87h-2.63v0.94h2.17v0.7h-2.17v0.95h2.63v0.63H57.7v-3.85h3.39V43.87z"/>
		<path class="st3" d="M65.94,47.08l-0.77-1.15h-1.34v1.15h-0.75v-3.85h3.07c0.2,0,0.37,0.07,0.51,0.21
			c0.14,0.14,0.21,0.31,0.21,0.51v1.27c0,0.18-0.06,0.34-0.19,0.48s-0.28,0.21-0.46,0.24l-0.24,0.02l0.75,1.13H65.94z M63.83,43.92
			v1.32h2.12c0.06,0,0.12-0.02,0.16-0.07c0.04-0.05,0.07-0.1,0.07-0.16v-0.86c0-0.07-0.02-0.12-0.07-0.17
			c-0.04-0.04-0.1-0.07-0.16-0.07H63.83z"/>
		<path class="st3" d="M72.94,45.47v0.88c0,0.2-0.07,0.37-0.21,0.51c-0.14,0.14-0.31,0.21-0.5,0.21l-2.65,0.01
			c-0.22,0-0.41-0.09-0.55-0.26c-0.11-0.13-0.17-0.29-0.17-0.48v-0.22c0-0.01,0-0.01,0.01-0.01l0.66-0.01c0.01,0,0.01,0,0.01,0.01
			v0.03c0,0.08,0.03,0.15,0.09,0.19c0.04,0.03,0.09,0.05,0.14,0.05l2.24-0.01c0.07,0,0.13-0.03,0.18-0.09
			c0.03-0.04,0.04-0.09,0.04-0.15V45.6c0-0.03-0.01-0.06-0.04-0.09c-0.02-0.03-0.05-0.04-0.09-0.04h-2.63
			c-0.17,0-0.32-0.06-0.45-0.19s-0.19-0.27-0.19-0.45v-0.89c0-0.2,0.07-0.37,0.21-0.51c0.14-0.14,0.31-0.21,0.51-0.21h2.64
			c0.2,0,0.37,0.07,0.51,0.21c0.14,0.14,0.21,0.31,0.21,0.51v0.24c0,0.01,0,0.01-0.01,0.01h-0.67c-0.01,0-0.01,0-0.01-0.01v-0.03
			c0-0.07-0.02-0.12-0.07-0.17c-0.05-0.05-0.1-0.07-0.17-0.07h-2.21c-0.07,0-0.12,0.02-0.17,0.07c-0.05,0.05-0.07,0.1-0.07,0.17
			v0.55c0,0.04,0.01,0.07,0.04,0.09c0.03,0.02,0.06,0.04,0.09,0.04h2.63c0.17,0,0.32,0.06,0.45,0.19
			C72.87,45.15,72.94,45.3,72.94,45.47z"/>
	</g>
</g>
</svg>
