<svg xmlns="http://www.w3.org/2000/svg" xmlns:xlink="http://www.w3.org/1999/xlink" viewBox="0 0 53.35 74.2"><defs><style>.cls-1{fill:none;clip-rule:evenodd;}.cls-2{font-size:12.29px;font-family:HelveticaNeue-CondensedBlack, Helvetica Neue;font-weight:800;}.cls-2,.cls-5{fill:#fff;}.cls-3{fill:#c1c1c8;}.cls-3,.cls-4{fill-rule:evenodd;}.cls-4{fill:url(#radial-gradient);}.cls-6{clip-path:url(#clip-path);}.cls-7{fill:url(#radial-gradient-2);}.cls-8{fill:url(#radial-gradient-3);}.cls-9{fill:url(#radial-gradient-5);}.cls-10{fill:url(#radial-gradient-6);}.cls-11{fill:url(#radial-gradient-7);}.cls-12{fill:url(#radial-gradient-8);}.cls-13{fill:url(#radial-gradient-9);}</style><radialGradient id="radial-gradient" cx="26.68" cy="22.95" r="25.5" gradientUnits="userSpaceOnUse"><stop offset="0.7" stop-color="#1a478f"/><stop offset="0.85" stop-color="#193672"/><stop offset="1" stop-color="#18224f"/></radialGradient><clipPath id="clip-path"><path class="cls-1" d="M42.33,23A15.66,15.66,0,1,1,26.68,7.29,15.66,15.66,0,0,1,42.33,23Z"/></clipPath><radialGradient id="radial-gradient-2" cx="22.34" cy="13.88" r="18.57" gradientUnits="userSpaceOnUse"><stop offset="0" stop-color="#f16b59"/><stop offset="0.58" stop-color="#d63d3a"/><stop offset="1" stop-color="#c52026"/></radialGradient><radialGradient id="radial-gradient-3" cx="22.34" cy="13.88" r="18.57" xlink:href="#radial-gradient-2"/><radialGradient id="radial-gradient-5" cx="22.34" cy="13.88" r="18.57" xlink:href="#radial-gradient-2"/><radialGradient id="radial-gradient-6" cx="22.34" cy="13.88" r="18.57" xlink:href="#radial-gradient-2"/><radialGradient id="radial-gradient-7" cx="22.34" cy="13.88" r="18.57" xlink:href="#radial-gradient-2"/><radialGradient id="radial-gradient-8" cx="22.34" cy="13.88" r="18.57" xlink:href="#radial-gradient-2"/><radialGradient id="radial-gradient-9" cx="35.54" cy="25.22" r="30.63" gradientUnits="userSpaceOnUse"><stop offset="0.45" stop-color="#1a478f"/><stop offset="0.72" stop-color="#193672"/><stop offset="1" stop-color="#18224f"/></radialGradient></defs><g id="Layer_2" data-name="Layer 2"><g id="Moving_Icons_Tickers" data-name="Moving Icons &amp; Tickers"><text class="cls-2" transform="translate(0.12 59.32)">AMERICAN</text><text class="cls-2" transform="translate(1.45 71.41)">FORMULA</text><path class="cls-3" d="M49.63,23A23,23,0,1,1,26.68,0,23,23,0,0,1,49.63,23Z"/><path class="cls-4" d="M48.7,23a22,22,0,1,1-22-22A22,22,0,0,1,48.7,23Z"/><path class="cls-3" d="M43.39,23A16.72,16.72,0,1,1,26.68,6.24,16.72,16.72,0,0,1,43.39,23Z"/><polygon class="cls-5" points="27.59 4.89 27.53 4.65 27.3 3.81 27.98 3.28 28.18 3.13 27.93 3.11 27.07 3.07 26.77 2.26 26.68 2.02 26.59 2.26 26.29 3.06 25.42 3.09 25.17 3.1 25.37 3.26 26.04 3.8 25.8 4.63 25.73 4.88 25.94 4.74 26.67 4.27 27.38 4.75 27.59 4.89"/><polygon class="cls-5" points="25.76 40.88 25.82 41.13 26.05 41.97 25.37 42.5 25.17 42.65 25.42 42.67 26.29 42.71 26.58 43.52 26.67 43.76 26.76 43.52 27.07 42.71 27.93 42.69 28.19 42.68 27.99 42.52 27.31 41.98 27.55 41.15 27.62 40.9 27.41 41.04 26.69 41.51 25.97 41.03 25.76 40.88"/><polygon class="cls-5" points="44.67 23.81 44.92 23.74 45.75 23.51 46.28 24.2 46.44 24.4 46.45 24.14 46.49 23.28 47.31 22.98 47.55 22.9 47.31 22.81 46.5 22.5 46.47 21.64 46.46 21.38 46.3 21.58 45.76 22.25 44.93 22.01 44.69 21.94 44.83 22.16 45.3 22.88 44.81 23.6 44.67 23.81"/><polygon class="cls-5" points="8.68 21.97 8.44 22.04 7.6 22.27 7.07 21.58 6.91 21.38 6.9 21.64 6.86 22.5 6.04 22.79 5.8 22.88 6.04 22.97 6.85 23.28 6.88 24.14 6.89 24.4 7.05 24.2 7.59 23.53 8.42 23.77 8.67 23.84 8.53 23.62 8.05 22.9 8.54 22.18 8.68 21.97"/><polygon class="cls-5" points="40 10.86 40.13 10.64 40.56 9.89 41.42 9.99 41.67 10.03 41.5 9.84 40.92 9.2 41.28 8.41 41.39 8.18 41.16 8.29 40.37 8.64 39.74 8.05 39.55 7.87 39.58 8.13 39.67 8.99 38.92 9.41 38.69 9.53 38.94 9.58 39.79 9.76 39.95 10.61 40 10.86"/><polygon class="cls-5" points="13.35 34.92 13.22 35.14 12.79 35.89 11.94 35.79 11.68 35.75 11.85 35.94 12.43 36.59 12.07 37.37 11.96 37.6 12.19 37.49 12.98 37.14 13.61 37.73 13.8 37.91 13.77 37.65 13.68 36.79 14.43 36.37 14.66 36.25 14.41 36.2 13.56 36.02 13.4 35.17 13.35 34.92"/><polygon class="cls-5" points="38.71 36.22 38.93 36.34 39.68 36.77 39.57 37.63 39.54 37.88 39.73 37.71 40.37 37.13 41.15 37.5 41.38 37.61 41.28 37.37 40.92 36.59 41.52 35.95 41.69 35.77 41.44 35.8 40.58 35.89 40.16 35.13 40.04 34.91 39.98 35.16 39.81 36.01 38.96 36.17 38.71 36.22"/><polygon class="cls-5" points="14.64 9.56 14.42 9.44 13.67 9.01 13.78 8.15 13.81 7.89 13.62 8.07 12.98 8.65 12.2 8.28 11.97 8.17 12.07 8.4 12.43 9.19 11.84 9.82 11.66 10.01 11.91 9.98 12.77 9.89 13.19 10.65 13.31 10.87 13.37 10.62 13.54 9.78 14.39 9.61 14.64 9.56"/><polygon class="cls-5" points="34.24 6.58 34.27 6.32 34.37 5.46 35.2 5.22 35.45 5.15 35.22 5.05 34.43 4.68 34.46 3.82 34.47 3.56 34.3 3.75 33.71 4.39 32.9 4.09 32.66 4.01 32.78 4.23 33.21 4.98 32.67 5.67 32.52 5.87 32.77 5.82 33.62 5.65 34.1 6.36 34.24 6.58"/><polygon class="cls-5" points="19.11 39.2 19.08 39.46 18.98 40.32 18.15 40.56 17.9 40.63 18.13 40.73 18.92 41.09 18.89 41.96 18.88 42.22 19.05 42.03 19.64 41.39 20.45 41.69 20.69 41.77 20.57 41.55 20.14 40.8 20.68 40.11 20.83 39.91 20.58 39.96 19.73 40.13 19.25 39.42 19.11 39.2"/><polygon class="cls-5" points="42.99 30.46 43.24 30.49 44.1 30.59 44.34 31.42 44.41 31.66 44.52 31.43 44.88 30.65 45.74 30.68 46 30.68 45.81 30.51 45.18 29.93 45.47 29.11 45.56 28.87 45.34 29 44.58 29.42 43.9 28.89 43.7 28.73 43.75 28.98 43.92 29.83 43.2 30.31 42.99 30.46"/><polygon class="cls-5" points="10.36 15.32 10.11 15.29 9.25 15.19 9.01 14.36 8.94 14.12 8.83 14.35 8.47 15.13 7.61 15.1 7.35 15.1 7.54 15.27 8.18 15.85 7.88 16.67 7.79 16.91 8.02 16.78 8.77 16.36 9.45 16.89 9.65 17.05 9.6 16.8 9.43 15.95 10.15 15.46 10.36 15.32"/><polygon class="cls-5" points="43.54 16.65 43.74 16.49 44.42 15.95 45.17 16.37 45.4 16.5 45.31 16.26 45.01 15.45 45.64 14.86 45.83 14.68 45.57 14.69 44.71 14.73 44.34 13.94 44.23 13.71 44.16 13.96 43.93 14.79 43.07 14.9 42.82 14.93 43.03 15.07 43.75 15.55 43.59 16.4 43.54 16.65"/><polygon class="cls-5" points="9.81 29.13 9.61 29.29 8.93 29.83 8.18 29.41 7.95 29.28 8.04 29.52 8.34 30.33 7.71 30.92 7.52 31.1 7.78 31.09 8.64 31.05 9.01 31.84 9.12 32.07 9.19 31.82 9.42 30.99 10.28 30.88 10.53 30.85 10.32 30.71 9.6 30.23 9.76 29.38 9.81 29.13"/><polygon class="cls-5" points="32.91 39.75 33.08 39.95 33.61 40.63 33.19 41.39 33.07 41.61 33.31 41.52 34.12 41.22 34.71 41.85 34.88 42.04 34.87 41.79 34.84 40.92 35.62 40.56 35.85 40.45 35.61 40.38 34.77 40.15 34.67 39.29 34.64 39.03 34.49 39.25 34.02 39.97 33.17 39.8 32.91 39.75"/><polygon class="cls-5" points="20.43 6.03 20.28 5.83 19.74 5.15 20.16 4.39 20.28 4.17 20.04 4.25 19.23 4.56 18.64 3.92 18.47 3.74 18.48 3.99 18.51 4.86 17.73 5.22 17.5 5.33 17.74 5.4 18.58 5.63 18.68 6.49 18.71 6.75 18.86 6.53 19.34 5.81 20.18 5.98 20.43 6.03"/><g class="cls-6"><rect class="cls-5" x="3.88" y="7.25" width="40.57" height="32.17"/><rect class="cls-7" x="3.88" y="6.85" width="40.57" height="2.54"/><rect class="cls-8" x="3.88" y="11.89" width="40.57" height="2.54"/><rect class="cls-7" x="3.88" y="16.93" width="40.57" height="2.54"/><rect class="cls-9" x="3.88" y="21.96" width="40.57" height="2.54"/><rect class="cls-10" x="3.88" y="27" width="40.57" height="2.54"/><rect class="cls-11" x="3.88" y="32.04" width="40.57" height="2.54"/><rect class="cls-12" x="3.88" y="37.08" width="40.57" height="2.54"/><rect class="cls-13" x="3.88" y="6.85" width="24.86" height="17.65"/><polygon class="cls-5" points="6.18 7.82 6.42 8.46 7.1 8.48 6.56 8.91 6.75 9.56 6.18 9.19 5.61 9.56 5.8 8.91 5.26 8.48 5.94 8.46 6.18 7.82"/><polygon class="cls-5" points="10.23 7.82 10.47 8.46 11.15 8.48 10.61 8.91 10.8 9.56 10.23 9.19 9.66 9.56 9.85 8.91 9.31 8.48 9.99 8.46 10.23 7.82"/><polygon class="cls-5" points="14.28 7.82 14.52 8.46 15.2 8.48 14.67 8.91 14.85 9.56 14.28 9.19 13.71 9.56 13.9 8.91 13.36 8.48 14.04 8.46 14.28 7.82"/><polygon class="cls-5" points="18.33 7.82 18.57 8.46 19.25 8.48 18.72 8.91 18.9 9.56 18.33 9.19 17.77 9.56 17.95 8.91 17.41 8.48 18.1 8.46 18.33 7.82"/><polygon class="cls-5" points="22.38 7.82 22.62 8.46 23.3 8.48 22.77 8.91 22.95 9.56 22.38 9.19 21.82 9.56 22 8.91 21.46 8.48 22.15 8.46 22.38 7.82"/><polygon class="cls-5" points="26.43 7.82 26.67 8.46 27.35 8.48 26.82 8.91 27 9.56 26.43 9.19 25.87 9.56 26.05 8.91 25.52 8.48 26.2 8.46 26.43 7.82"/><polygon class="cls-5" points="8.31 9.57 8.54 10.21 9.22 10.23 8.69 10.66 8.87 11.32 8.31 10.94 7.74 11.32 7.92 10.66 7.39 10.23 8.07 10.21 8.31 9.57"/><polygon class="cls-5" points="12.36 9.57 12.59 10.21 13.28 10.23 12.74 10.66 12.92 11.32 12.36 10.94 11.79 11.32 11.97 10.66 11.44 10.23 12.12 10.21 12.36 9.57"/><polygon class="cls-5" points="16.41 9.57 16.64 10.21 17.33 10.23 16.79 10.66 16.98 11.32 16.41 10.94 15.84 11.32 16.02 10.66 15.49 10.23 16.17 10.21 16.41 9.57"/><polygon class="cls-5" points="20.46 9.57 20.7 10.21 21.38 10.23 20.84 10.66 21.03 11.32 20.46 10.94 19.89 11.32 20.07 10.66 19.54 10.23 20.22 10.21 20.46 9.57"/><polygon class="cls-5" points="24.51 9.57 24.75 10.21 25.43 10.23 24.89 10.66 25.08 11.32 24.51 10.94 23.94 11.32 24.13 10.66 23.59 10.23 24.27 10.21 24.51 9.57"/><polygon class="cls-5" points="6.18 11.32 6.42 11.96 7.1 11.99 6.56 12.41 6.75 13.07 6.18 12.69 5.61 13.07 5.8 12.41 5.26 11.99 5.94 11.96 6.18 11.32"/><polygon class="cls-5" points="10.23 11.32 10.47 11.96 11.15 11.99 10.61 12.41 10.8 13.07 10.23 12.69 9.66 13.07 9.85 12.41 9.31 11.99 9.99 11.96 10.23 11.32"/><polygon class="cls-5" points="14.28 11.32 14.52 11.96 15.2 11.99 14.67 12.41 14.85 13.07 14.28 12.69 13.71 13.07 13.9 12.41 13.36 11.99 14.04 11.96 14.28 11.32"/><polygon class="cls-5" points="18.33 11.32 18.57 11.96 19.25 11.99 18.72 12.41 18.9 13.07 18.33 12.69 17.77 13.07 17.95 12.41 17.41 11.99 18.1 11.96 18.33 11.32"/><polygon class="cls-5" points="22.38 11.32 22.62 11.96 23.3 11.99 22.77 12.41 22.95 13.07 22.38 12.69 21.82 13.07 22 12.41 21.46 11.99 22.15 11.96 22.38 11.32"/><polygon class="cls-5" points="26.43 11.32 26.67 11.96 27.35 11.99 26.82 12.41 27 13.07 26.43 12.69 25.87 13.07 26.05 12.41 25.52 11.99 26.2 11.96 26.43 11.32"/><polygon class="cls-5" points="8.31 13.07 8.54 13.71 9.22 13.74 8.69 14.16 8.87 14.82 8.31 14.44 7.74 14.82 7.92 14.16 7.39 13.74 8.07 13.71 8.31 13.07"/><polygon class="cls-5" points="12.36 13.07 12.59 13.71 13.28 13.74 12.74 14.16 12.92 14.82 12.36 14.44 11.79 14.82 11.97 14.16 11.44 13.74 12.12 13.71 12.36 13.07"/><polygon class="cls-5" points="16.41 13.07 16.64 13.71 17.33 13.74 16.79 14.16 16.98 14.82 16.41 14.44 15.84 14.82 16.02 14.16 15.49 13.74 16.17 13.71 16.41 13.07"/><polygon class="cls-5" points="20.46 13.07 20.7 13.71 21.38 13.74 20.84 14.16 21.03 14.82 20.46 14.44 19.89 14.82 20.07 14.16 19.54 13.74 20.22 13.71 20.46 13.07"/><polygon class="cls-5" points="24.51 13.07 24.75 13.71 25.43 13.74 24.89 14.16 25.08 14.82 24.51 14.44 23.94 14.82 24.13 14.16 23.59 13.74 24.27 13.71 24.51 13.07"/><polygon class="cls-5" points="6.18 14.82 6.42 15.46 7.1 15.49 6.56 15.91 6.75 16.57 6.18 16.19 5.61 16.57 5.8 15.91 5.26 15.49 5.94 15.46 6.18 14.82"/><polygon class="cls-5" points="10.23 14.82 10.47 15.46 11.15 15.49 10.61 15.91 10.8 16.57 10.23 16.19 9.66 16.57 9.85 15.91 9.31 15.49 9.99 15.46 10.23 14.82"/><polygon class="cls-5" points="14.28 14.82 14.52 15.46 15.2 15.49 14.67 15.91 14.85 16.57 14.28 16.19 13.71 16.57 13.9 15.91 13.36 15.49 14.04 15.46 14.28 14.82"/><polygon class="cls-5" points="18.33 14.82 18.57 15.46 19.25 15.49 18.72 15.91 18.9 16.57 18.33 16.19 17.77 16.57 17.95 15.91 17.41 15.49 18.1 15.46 18.33 14.82"/><polygon class="cls-5" points="22.38 14.82 22.62 15.46 23.3 15.49 22.77 15.91 22.95 16.57 22.38 16.19 21.82 16.57 22 15.91 21.46 15.49 22.15 15.46 22.38 14.82"/><polygon class="cls-5" points="26.43 14.82 26.67 15.46 27.35 15.49 26.82 15.91 27 16.57 26.43 16.19 25.87 16.57 26.05 15.91 25.52 15.49 26.2 15.46 26.43 14.82"/><polygon class="cls-5" points="8.31 16.57 8.54 17.21 9.22 17.24 8.69 17.66 8.87 18.32 8.31 17.94 7.74 18.32 7.92 17.66 7.39 17.24 8.07 17.21 8.31 16.57"/><polygon class="cls-5" points="12.36 16.57 12.59 17.21 13.28 17.24 12.74 17.66 12.92 18.32 12.36 17.94 11.79 18.32 11.97 17.66 11.44 17.24 12.12 17.21 12.36 16.57"/><polygon class="cls-5" points="16.41 16.57 16.64 17.21 17.33 17.24 16.79 17.66 16.98 18.32 16.41 17.94 15.84 18.32 16.02 17.66 15.49 17.24 16.17 17.21 16.41 16.57"/><polygon class="cls-5" points="20.46 16.57 20.7 17.21 21.38 17.24 20.84 17.66 21.03 18.32 20.46 17.94 19.89 18.32 20.07 17.66 19.54 17.24 20.22 17.21 20.46 16.57"/><polygon class="cls-5" points="24.51 16.57 24.75 17.21 25.43 17.24 24.89 17.66 25.08 18.32 24.51 17.94 23.94 18.32 24.13 17.66 23.59 17.24 24.27 17.21 24.51 16.57"/><polygon class="cls-5" points="6.18 18.32 6.42 18.96 7.1 18.99 6.56 19.41 6.75 20.07 6.18 19.69 5.61 20.07 5.8 19.41 5.26 18.99 5.94 18.96 6.18 18.32"/><polygon class="cls-5" points="10.23 18.32 10.47 18.96 11.15 18.99 10.61 19.41 10.8 20.07 10.23 19.69 9.66 20.07 9.85 19.41 9.31 18.99 9.99 18.96 10.23 18.32"/><polygon class="cls-5" points="14.28 18.32 14.52 18.96 15.2 18.99 14.67 19.41 14.85 20.07 14.28 19.69 13.71 20.07 13.9 19.41 13.36 18.99 14.04 18.96 14.28 18.32"/><polygon class="cls-5" points="18.33 18.32 18.57 18.96 19.25 18.99 18.72 19.41 18.9 20.07 18.33 19.69 17.77 20.07 17.95 19.41 17.41 18.99 18.1 18.96 18.33 18.32"/><polygon class="cls-5" points="22.38 18.32 22.62 18.96 23.3 18.99 22.77 19.41 22.95 20.07 22.38 19.69 21.82 20.07 22 19.41 21.46 18.99 22.15 18.96 22.38 18.32"/><polygon class="cls-5" points="26.43 18.32 26.67 18.96 27.35 18.99 26.82 19.41 27 20.07 26.43 19.69 25.87 20.07 26.05 19.41 25.52 18.99 26.2 18.96 26.43 18.32"/><polygon class="cls-5" points="8.31 20.07 8.54 20.71 9.22 20.74 8.69 21.16 8.87 21.82 8.31 21.44 7.74 21.82 7.92 21.16 7.39 20.74 8.07 20.71 8.31 20.07"/><polygon class="cls-5" points="12.36 20.07 12.59 20.71 13.28 20.74 12.74 21.16 12.92 21.82 12.36 21.44 11.79 21.82 11.97 21.16 11.44 20.74 12.12 20.71 12.36 20.07"/><polygon class="cls-5" points="16.41 20.07 16.64 20.71 17.33 20.74 16.79 21.16 16.98 21.82 16.41 21.44 15.84 21.82 16.02 21.16 15.49 20.74 16.17 20.71 16.41 20.07"/><polygon class="cls-5" points="20.46 20.07 20.7 20.71 21.38 20.74 20.84 21.16 21.03 21.82 20.46 21.44 19.89 21.82 20.07 21.16 19.54 20.74 20.22 20.71 20.46 20.07"/><polygon class="cls-5" points="24.51 20.07 24.75 20.71 25.43 20.74 24.89 21.16 25.08 21.82 24.51 21.44 23.94 21.82 24.13 21.16 23.59 20.74 24.27 20.71 24.51 20.07"/><polygon class="cls-5" points="6.18 21.82 6.42 22.46 7.1 22.49 6.56 22.91 6.75 23.57 6.18 23.19 5.61 23.57 5.8 22.91 5.26 22.49 5.94 22.46 6.18 21.82"/><polygon class="cls-5" points="10.23 21.82 10.47 22.46 11.15 22.49 10.61 22.91 10.8 23.57 10.23 23.19 9.66 23.57 9.85 22.91 9.31 22.49 9.99 22.46 10.23 21.82"/><polygon class="cls-5" points="14.28 21.82 14.52 22.46 15.2 22.49 14.67 22.91 14.85 23.57 14.28 23.19 13.71 23.57 13.9 22.91 13.36 22.49 14.04 22.46 14.28 21.82"/><polygon class="cls-5" points="18.33 21.82 18.57 22.46 19.25 22.49 18.72 22.91 18.9 23.57 18.33 23.19 17.77 23.57 17.95 22.91 17.41 22.49 18.1 22.46 18.33 21.82"/><polygon class="cls-5" points="22.38 21.82 22.62 22.46 23.3 22.49 22.77 22.91 22.95 23.57 22.38 23.19 21.82 23.57 22 22.91 21.46 22.49 22.15 22.46 22.38 21.82"/><polygon class="cls-5" points="26.43 21.82 26.67 22.46 27.35 22.49 26.82 22.91 27 23.57 26.43 23.19 25.87 23.57 26.05 22.91 25.52 22.49 26.2 22.46 26.43 21.82"/></g></g></g></svg>