<svg xmlns="http://www.w3.org/2000/svg" viewBox="0 0 60.78 46.19"><defs><style>.cls-1{fill:#fff;}</style></defs><g id="Layer_2" data-name="Layer 2"><g id="Moving_Icons_Tickers" data-name="Moving Icons &amp; Tickers"><path class="cls-1" d="M18.26,2.65a33.65,33.65,0,0,1,23.37-1c6.52,2.06,12.73,6.09,16.12,12.17A28.49,28.49,0,0,0,46.51,7.68a25.53,25.53,0,0,0-15.19.92,35.46,35.46,0,0,0-8.9,4.9c-6.19-.05-12.38,0-18.57,0A39.32,39.32,0,0,1,18.26,2.65Z"/><path class="cls-1" d="M49.51,17.57a7.88,7.88,0,0,1,4.77-1.78,7.41,7.41,0,0,1,5.33,1.49A4.46,4.46,0,0,1,60.74,20H56.37c0-.93.28-2.08-.47-2.81-1-.71-3-.32-3.18,1.1-.34,1.08.59,1.95,1.52,2.3,2.11.79,4.61,1.26,6,3.16,1.42,2.39-.48,5.63-3.09,6.08.36.21.71.41,1.08.6A3.35,3.35,0,0,1,57,30a12,12,0,0,1-7.31-.47c-1.41-.65-1.9-2.28-2-3.72,1.48,0,3,0,4.43,0,0,.9-.22,1.93.35,2.71a2.42,2.42,0,0,0,3.94-.77,1.59,1.59,0,0,0-.8-2.12c-1.76-.78-3.63-1.29-5.32-2.22A3.41,3.41,0,0,1,48.45,20,5.66,5.66,0,0,1,49.51,17.57Z"/><path class="cls-1" d="M1.1,20.15C2.4,17.51,5.38,16.2,8.19,16a10.44,10.44,0,0,1,5.79.86,4.64,4.64,0,0,1,2.11,4.11c-1.58,0-3.16-.06-4.73,0a8.86,8.86,0,0,0-.2-2.77c-.89-1.68-3.69-1.37-4.49.26a18.13,18.13,0,0,0-1.86,7.31c0,1.15,0,2.67,1.24,3.25a3.16,3.16,0,0,0,2.79-.29,5.52,5.52,0,0,0,1.77-3.57c1.61,0,3.23,0,4.85,0-.46,2.32-2.52,3.94-4.66,4.69a12.23,12.23,0,0,1-7.38.1,4.77,4.77,0,0,1-3.2-3.28A10,10,0,0,1,1.1,20.15Z"/><path class="cls-1" d="M19.07,16.08c1.43,0,2.86-.08,4.28.05,1.81,2.71,3.35,5.61,5.12,8.35.59-2.81,1.27-5.59,1.91-8.39.65,0,1.29,0,1.93,0l-.44.38c-.95,4.57-2,9.11-2.93,13.69-.92,0-1.84,0-2.77,0-2-3.48-4.15-6.9-6.15-10.4-.93,3.46-1.65,7-2.53,10.44l-1.3,0C17.08,25.43,18.14,20.77,19.07,16.08Z"/><path class="cls-1" d="M38.86,16.17c.77,0,1.53,0,2.3,0,1.92,4.67,3.9,9.32,5.85,14-1.53-.05-3.07,0-4.6,0-.52-1.33-1-2.69-1.56-4-1.85,0-3.7,0-5.55,0-.81,1.31-1.53,2.67-2.29,4-.73,0-1.46,0-2.18,0C33.51,25.49,36.21,20.84,38.86,16.17Zm-.26,4.11c-1,1.62-1.94,3.25-2.89,4.89,1.58,0,3.17,0,4.75,0C39.8,23.56,39.36,21.85,38.6,20.28Z"/><path class="cls-1" d="M3.54,32.63a29.49,29.49,0,0,0,11.84,6.06c7.54,1.73,15.53-.59,21.78-4.94.68-.41,1.26-1.21,2.16-1.08,6,0,12,0,18,0a42.65,42.65,0,0,1-10,8.57,33.65,33.65,0,0,1-20.41,4.82A33,33,0,0,1,7.49,37.72,21.47,21.47,0,0,1,3.54,32.63Z"/></g></g></svg>