<?xml version="1.0" encoding="utf-8"?>
<!-- Generator: Adobe Illustrator 26.0.0, SVG Export Plug-In . SVG Version: 6.00 Build 0)  -->
<svg version="1.1" id="Layer_1" xmlns="http://www.w3.org/2000/svg" xmlns:xlink="http://www.w3.org/1999/xlink" x="0px" y="0px"
	 viewBox="0 0 170 52.9" style="enable-background:new 0 0 170 52.9;" xml:space="preserve">
<style type="text/css">
	.st0{fill:#FFFFFF;}
</style>
<g id="Layer_2_00000005964595012507967050000010441274920221707447_">
	<g id="Moving_Icons_Tickers">
		<path class="st0" d="M72.9,6c7.4-3.1,15.7-3.5,23.4-1c6.5,2.1,12.7,6.1,16.1,12.2c-3.2-2.9-7.1-5-11.2-6.1
			c-5-1.2-10.3-0.9-15.2,0.9c-3.2,1.2-6.2,2.8-8.9,4.9c-6.2,0-12.4,0-18.6,0C62.4,12.2,67.3,8.5,72.9,6z"/>
		<path class="st0" d="M104.1,20.9c1.3-1.1,3-1.7,4.8-1.8c1.9-0.2,3.8,0.3,5.3,1.5c0.7,0.8,1.1,1.7,1.1,2.7H111
			c0-0.9,0.3-2.1-0.5-2.8c-1-0.7-3-0.3-3.2,1.1c-0.3,1.1,0.6,2,1.5,2.3c2.1,0.8,4.6,1.3,6,3.2c1.4,2.4-0.5,5.6-3.1,6.1
			c0.4,0.2,0.7,0.4,1.1,0.6c-0.4-0.1-0.9-0.2-1.2-0.4c-2.4,0.6-5,0.4-7.3-0.5c-1.4-0.6-1.9-2.3-2-3.7c1.5,0,3,0,4.4,0
			c0,0.9-0.2,1.9,0.3,2.7c0.9,0.9,2.5,0.9,3.4,0c0.2-0.2,0.4-0.5,0.5-0.8c0.4-0.8,0-1.7-0.8-2.1c0,0,0,0,0,0
			c-1.8-0.8-3.6-1.3-5.3-2.2c-1.3-0.6-2-2-1.8-3.4C103.2,22.5,103.6,21.6,104.1,20.9z"/>
		<path class="st0" d="M55.7,23.5c1.3-2.6,4.3-3.9,7.1-4.1c2-0.3,4,0,5.8,0.9c1.4,0.9,2.2,2.5,2.1,4.1c-1.6,0-3.2-0.1-4.7,0
			c0.1-0.9,0-1.9-0.2-2.8c-0.9-1.7-3.7-1.4-4.5,0.3c-1.1,2.3-1.8,4.8-1.9,7.3c0,1.1,0,2.7,1.2,3.3c0.9,0.3,2,0.2,2.8-0.3
			c1-0.9,1.6-2.2,1.8-3.6c1.6,0,3.2,0,4.9,0c-0.5,2.3-2.5,3.9-4.7,4.7C63,34,60.4,34,58,33.3c-1.6-0.5-2.8-1.7-3.2-3.3
			C54.4,27.8,54.7,25.5,55.7,23.5z"/>
		<path class="st0" d="M73.7,19.4c1.4,0,2.9-0.1,4.3,0c1.8,2.7,3.3,5.6,5.1,8.4c0.6-2.8,1.3-5.6,1.9-8.4c0.7,0,1.3,0,1.9,0l-0.4,0.4
			c-0.9,4.6-2,9.1-2.9,13.7c-0.9,0-1.8,0-2.8,0c-2-3.5-4.2-6.9-6.2-10.4c-0.9,3.5-1.7,7-2.5,10.4h-1.3
			C71.7,28.8,72.8,24.1,73.7,19.4z"/>
		<path class="st0" d="M93.5,19.5c0.8,0,1.5,0,2.3,0c1.9,4.7,3.9,9.3,5.8,14c-1.5,0-3.1,0-4.6,0c-0.5-1.3-1-2.7-1.6-4
			c-1.8,0-3.7,0-5.5,0c-0.8,1.3-1.5,2.7-2.3,4c-0.7,0-1.5,0-2.2,0C88.1,28.8,90.8,24.2,93.5,19.5z M93.2,23.6
			c-1,1.6-1.9,3.2-2.9,4.9c1.6,0,3.2,0,4.8,0C94.4,26.9,94,25.2,93.2,23.6z"/>
		<path class="st0" d="M58.2,36c3.4,2.9,7.5,5,11.8,6.1c7.5,1.7,15.5-0.6,21.8-4.9c0.7-0.4,1.3-1.2,2.2-1.1c6,0,12,0,18,0
			c-2.9,3.4-6.2,6.2-10,8.6c-6.1,3.7-13.3,5.4-20.4,4.8c-7.2-0.6-14-3.5-19.4-8.3C60.5,39.6,59.2,37.9,58.2,36z"/>
	</g>
</g>
</svg>
