<svg xmlns="http://www.w3.org/2000/svg" viewBox="0 0 108.41 24.14"><defs><style>.cls-1{fill:#fff;}</style></defs><g id="Layer_2" data-name="Layer 2"><g id="Moving_Icons_Tickers" data-name="Moving Icons &amp; Tickers"><path class="cls-1" d="M11.45,0h1.44a12.35,12.35,0,0,1,8.18,4,12.07,12.07,0,0,1-3.91,19.1,13.4,13.4,0,0,1-3.83,1.07h-2.5a12.33,12.33,0,0,1-8.16-4.49A12.51,12.51,0,0,1,0,12.85V11.46A12.42,12.42,0,0,1,2.2,5.15,12.27,12.27,0,0,1,11.45,0ZM9.93,2A10.45,10.45,0,0,0,2.52,8.19,10.35,10.35,0,1,0,16.89,2.92,10.48,10.48,0,0,0,9.93,2Z"/><path class="cls-1" d="M8.06,4.19A9.3,9.3,0,0,1,19.88,5.93a14.56,14.56,0,0,0-2.25-1.48,8.49,8.49,0,0,0-8.41.65,8.62,8.62,0,0,0-3.74,7H7.42A7.41,7.41,0,0,1,20.94,7.9a6.58,6.58,0,0,0-10.62.63,6.76,6.76,0,0,0-1.06,3.55h1.87a5.84,5.84,0,0,1,1.75-4,5.57,5.57,0,0,1,6.65-.78,5.74,5.74,0,0,1,2.76,4.73c-.58,0-1.15,0-1.73,0a9.29,9.29,0,0,1-3.48,7.27,9.47,9.47,0,0,1-6.16,2.05A9.14,9.14,0,0,1,4.11,18a8.6,8.6,0,0,0,5.48,2.55A8.37,8.37,0,0,0,16,18.27a8.25,8.25,0,0,0,2.67-6.2H16.83a7.49,7.49,0,0,1-6.12,7.31,7.34,7.34,0,0,1-7.3-2.93,6.64,6.64,0,0,0,6.43,2.06A6.69,6.69,0,0,0,15,12.07H13a5.51,5.51,0,0,1-2.32,4.52,5.58,5.58,0,0,1-6.27.11A5.46,5.46,0,0,1,2,12.07l1.64,0A9.46,9.46,0,0,1,8.06,4.19Z"/><path class="cls-1" d="M100.21,4.57a15.17,15.17,0,0,1,7.6,1.3c-.39,1-.73,1.94-1.15,2.9a8.86,8.86,0,0,0-6-1.19,1.54,1.54,0,0,0-1.25.89c-.17.59.38,1.07.89,1.25,2.07.78,4.43.79,6.3,2.08a4.07,4.07,0,0,1,1.83,2.88v.75a4.24,4.24,0,0,1-3,3.7c-3.35,1.12-7,.17-10.06-1.24.3-1,.72-1.91,1-2.89a12.65,12.65,0,0,0,7,1.31c.56-.11,1.22-.4,1.3-1s-.71-1.08-1.3-1.27c-2.12-.69-4.52-.76-6.36-2.14A3.78,3.78,0,0,1,96.26,7,5.33,5.33,0,0,1,100.21,4.57Z"/><path class="cls-1" d="M35.58,5c1-.11,1.9,0,2.85-.07a5.47,5.47,0,0,1,.41.65c2.4,4.59,4.84,9.17,7.23,13.78-1.45-.05-2.89,0-4.33,0-1.45-3-2.92-5.91-4.37-8.87A1.65,1.65,0,0,0,37,10c-.55,1.32-1.22,2.59-1.78,3.9.64,0,1.29,0,1.93,0,.56,1,1.06,2.1,1.56,3.17-1.66,0-3.31,0-5,0-.34.77-.72,1.52-1,2.29-1.45.05-2.89,0-4.34,0C30.76,14.54,33.25,9.8,35.58,5Z"/><path class="cls-1" d="M46.84,5h3.55v14.4c-1.18,0-2.37,0-3.55,0C46.83,14.54,46.84,9.75,46.84,5Z"/><path class="cls-1" d="M51.93,5c2.58,0,5.16,0,7.75,0a5.4,5.4,0,0,1,4.4,2,5,5,0,0,1,0,5.44,4.82,4.82,0,0,1-2.49,1.75c1,1.74,2,3.49,3.08,5.21-1.2,0-2.4,0-3.6,0-1.45-2.67-3-5.3-4.46-7.95,1.17,0,2.35.06,3.51-.06a1.72,1.72,0,0,0,1-2.59A1.69,1.69,0,0,0,59.69,8H55.37q0,5.68,0,11.37H51.93Z"/><path class="cls-1" d="M66.27,4.94h8.44a4.22,4.22,0,0,1,4,2.71,4.05,4.05,0,0,1-1,4.33,3.52,3.52,0,0,1,1.85,3.49,4.4,4.4,0,0,1-4.33,3.84c-3,0-5.94,0-8.91,0Q66.26,12.13,66.27,4.94Zm3.44,3c0,.82,0,1.65,0,2.47H74.5a1.35,1.35,0,0,0,1.4-.89A1.21,1.21,0,0,0,74.71,8C73,8,71.37,8,69.71,8Zm0,5.47c0,1,0,1.92,0,2.88,1.66,0,3.33,0,5,0a1.52,1.52,0,0,0,1.59-1.51,1.5,1.5,0,0,0-1.58-1.35Z"/><path class="cls-1" d="M80.63,4.9c1.2,0,2.4,0,3.61,0-.06,2.68,0,5.36,0,8a3.36,3.36,0,0,0,1.51,3.12,3.48,3.48,0,0,0,4.2-.65,3.41,3.41,0,0,0,.73-2.24c0-2.77,0-5.53,0-8.3h3.63c0,2.77,0,5.55,0,8.32a6.82,6.82,0,0,1-1.72,4.82,7.13,7.13,0,0,1-5.07,1.63,7.17,7.17,0,0,1-5.09-1.61,6.71,6.71,0,0,1-1.74-4.63C80.62,10.59,80.63,7.75,80.63,4.9Z"/></g></g></svg>