<svg xmlns="http://www.w3.org/2000/svg" viewBox="0 0 129.83 29.43"><defs><style>.cls-1{fill:#fff;}</style></defs><g id="Layer_2" data-name="Layer 2"><g id="Moving_Icons_Tickers" data-name="Moving Icons &amp; Tickers"><path class="cls-1" d="M15.12,4.33A55,55,0,0,1,21.17,0C19.44,1.61,17.67,3.17,16,4.86a10.31,10.31,0,0,1,3.65,13,38.36,38.36,0,0,0,10.2,2.27c2.08.27,4.19.23,6.25.61-2.18.25-4.38.12-6.57.24-3.85.16-7.69.26-11.53.53-.1-.16-.28-.49-.37-.65a10.68,10.68,0,0,1-7,2.94,10.36,10.36,0,0,1-6.44-2c-.44,1.43-1.06,3-.58,4.46a1.64,1.64,0,0,0,1.94.89c1.78-.29,3.2-1.49,4.61-2.53a12.17,12.17,0,0,1-5.49,4.54c-1,.41-2.47.51-3.23-.46C.56,27.48.72,25.89,1,24.51a25,25,0,0,1,1.47-4.35A10.31,10.31,0,0,1,2.61,6.61,10.45,10.45,0,0,1,15.12,4.33ZM3.6,7.32A9.06,9.06,0,0,0,3.1,19a51.16,51.16,0,0,1,11-13.86A9.29,9.29,0,0,0,3.6,7.32ZM4.66,20.63A9.22,9.22,0,0,0,17,19.68c-.91-1.68-1.83-3.36-2.7-5.06a18,18,0,0,0,4.27,2.76,9.24,9.24,0,0,0,.23-7.24,9.49,9.49,0,0,0-3.6-4.39A57.39,57.39,0,0,0,4.66,20.63Z"/><path class="cls-1" d="M38.66,6.15c4,0,7.91,0,11.86,0a1.47,1.47,0,0,1,1.39,1c.29,1-.61,1.72-1.11,2.46a4.78,4.78,0,0,1-3,2.1c.22.44.58.95.28,1.44-1.06,1.69-2.47,3.53-4.64,3.66-4.28.09-8.56,0-12.84.05C33.27,13.27,36,9.69,38.66,6.15Zm2.7,4.17a23.58,23.58,0,0,0,2.79-.06,2.19,2.19,0,0,0,1.31-1.83c-.86-.09-1.72-.06-2.59-.09A20.69,20.69,0,0,0,41.36,10.32Zm-1.71,2.2c-.53.7-1,1.41-1.57,2.13a18.55,18.55,0,0,0,3-.14,2.75,2.75,0,0,0,1.25-1.83A7.94,7.94,0,0,0,39.65,12.52Z"/><path class="cls-1" d="M57.7,6.34a6.85,6.85,0,0,1,2.12-.18c2.94,0,5.89,0,8.84,0a1.43,1.43,0,0,1,.86,2.33l-4.75,6.29a4.91,4.91,0,0,1-4.08,2c-3.16,0-6.33,0-9.5,0a1.39,1.39,0,0,1-1-2.17c1.6-2.17,3.24-4.32,4.87-6.47A5,5,0,0,1,57.7,6.34Zm2.86,2.27c-1.27,1.47-2.34,3.11-3.55,4.63-.27.4-.74.8-.54,1.35.74,0,1.48.06,2.23,0s1-.84,1.44-1.35c1.08-1.51,2.3-2.93,3.3-4.51l-.16-.29A4.43,4.43,0,0,0,60.56,8.61Z"/><path class="cls-1" d="M74.65,6.16c3.92,0,7.85,0,11.78,0a26.91,26.91,0,0,1-1.76,2.2c-1.94,0-3.88,0-5.82,0-.5.65-1,1.3-1.48,2,2,0,3.93,0,5.9,0-.56.73-1.11,1.47-1.67,2.19-1.95,0-3.9,0-5.84,0-.57.7-1.1,1.42-1.62,2.15,2,0,3.93,0,5.9,0-.57.72-1.13,1.45-1.66,2.19-3.92,0-7.84,0-11.77,0C69.29,13.27,72,9.75,74.65,6.16Z"/><path class="cls-1" d="M81.69,16.82c2.72-3.54,5.38-7.12,8.09-10.67h5.81c-2.7,3.56-5.35,7.15-8.09,10.68C85.56,16.78,83.62,16.79,81.69,16.82Z"/><path class="cls-1" d="M91.29,16.81C94,13.27,96.67,9.7,99.37,6.15h4.56c.4,1.82.87,3.62,1.24,5.44,1.42-1.79,2.74-3.65,4.15-5.44h3.82c-2.7,3.55-5.35,7.15-8.1,10.67-1.52-.05-3,0-4.56,0-.41-1.78-.85-3.55-1.22-5.34-1.45,1.72-2.72,3.6-4.13,5.35C93.85,16.79,92.57,16.8,91.29,16.81Z"/><path class="cls-1" d="M115,8.2a5,5,0,0,1,3.9-2c3.12,0,6.25,0,9.37,0a1.38,1.38,0,0,1,1.52,1.42c-.07.91-.86,1.51-1.33,2.22-1.93,0-3.87,0-5.8,0l.81-1.11a3.13,3.13,0,0,0-3-.06c-1.46,1.77-2.79,3.64-4.15,5.49v.27a3.69,3.69,0,0,0,2.62.08c1.13-.94,1.82-2.32,2.81-3.41q3.57,0,7.16,0c-.55.75-1.13,1.48-1.65,2.25-.45,0-.91,0-1.37,0a11.71,11.71,0,0,1-2.5,2.75,4.89,4.89,0,0,1-2.81.77c-3.1,0-6.21,0-9.31,0a1.4,1.4,0,0,1-1.15-2.16C111.78,12.48,113.44,10.36,115,8.2Z"/></g></g></svg>