<?xml version="1.0" encoding="utf-8"?>
<!-- Generator: Adobe Illustrator 26.0.0, SVG Export Plug-In . SVG Version: 6.00 Build 0)  -->
<svg version="1.1" id="Layer_1" xmlns="http://www.w3.org/2000/svg" xmlns:xlink="http://www.w3.org/1999/xlink" x="0px" y="0px"
	 viewBox="0 0 170 52.9" style="enable-background:new 0 0 170 52.9;" xml:space="preserve">
<style type="text/css">
	.st0{fill:#F27221;}
	.st1{fill:#FFFFFF;}
</style>
<g id="Layer_2_00000117654477474926764720000013443704538342083226_">
	<g id="Moving_Icons_Tickers">
		<path class="st0" d="M121,3.6h0.7c0,12.8,0,25.6,0,38.5c4.1,0,8.2,0,12.3,0v0.8c-4.1,0-8.2,0-12.3,0c0,2.2,0,4.3,0,6.5h-0.8
			c0-2.2,0-4.4,0-6.6H36V42c8.3,0,16.7,0,25.1,0h9.5c4.6,0,9.3,0,13.9,0c3.9,0,7.8,0,11.7,0c3.2,0,6.4,0,9.7,0h9.6
			c1.8,0,3.6,0,5.5,0c0-1.9,0-3.8,0-5.7c0-1.9,0-3.5,0-5.2c0-3.9,0-7.7,0-11.6c0-1,0-1.9,0-2.9C121,12.2,121,7.9,121,3.6z"/>
		<path class="st1" d="M58.8,12.2c2.2-1.9,5.2-2.3,8-2.3c2.5,0,5.2,0.4,7.1,2.2c1.9,1.8,2.3,4.8,2.1,7.3c-2.2,0-4.3,0-6.5,0
			c0.1-1.4-0.2-2.7-0.9-3.9c-0.8-0.8-1.8-1.1-2.9-0.8c-0.9,0.1-1.7,0.6-2.2,1.4c-0.7,1.3-0.6,3,0.4,4.2c1.2,1.3,2.6,2.3,4.2,3
			c2.5,1.4,5.2,2.7,6.9,5.1c1.4,2.2,1.9,4.8,1.3,7.4c-0.2,1.7-1,3.2-2.2,4.4c-1,0.9-2.1,1.5-3.4,1.8h-9.5c-2-0.5-3.6-1.9-4.4-3.7
			c-0.8-1.9-1-4-0.8-6.1h6.7c-0.1,1.5,0.1,2.9,0.7,4.3c0.7,0.9,1.8,1.4,2.9,1.3c1.1,0.1,2.2-0.4,2.9-1.4c0.7-1.2,0.7-2.7,0.1-4
			c-0.8-1.1-1.8-2-2.9-2.6c-2.6-1.6-5.5-2.9-7.7-5.2c-1.5-1.6-2.3-3.7-2.3-5.8C56.1,16.4,57,13.9,58.8,12.2z"/>
		<path class="st1" d="M82.1,11.5c2.2-1.3,4.8-1.8,7.3-1.6c2.7-0.1,5.4,1,7.4,2.9c1.8,2,2.6,4.8,2.3,7.5c-2.2,0-4.4,0-6.6,0
			c0.1-1.3-0.1-2.6-0.6-3.8c-0.5-0.8-1.3-1.4-2.2-1.5c-1.1-0.3-2.2-0.1-3.2,0.6c-0.9,0.9-1.5,2.1-1.7,3.4c-0.4,2.7-0.5,5.4-0.4,8.1
			c0,2.6,0.2,5.2,0.6,7.8c0.2,1.2,0.9,2.3,2,2.9c1.8,0.5,3.6,0.4,5.3-0.2c0-2.4,0-4.7,0-7c-1.2,0-2.4,0-3.6,0c-0.1-1.7,0-3.3,0-5
			h10.3c0,5.4,0,10.7,0,16.1c-0.9,0.2-1.9,0.4-2.8,0.5c-3.9,0-7.8,0-11.7,0c-2.3-0.4-4.2-1.9-5.3-3.9c-1.4-2.9-1.5-6.3-1.6-9.5
			c0-4-0.2-8.1,0.9-12C79.1,14.6,80.4,12.8,82.1,11.5z"/>
		<path class="st1" d="M103.4,12.5c2-2,5-2.5,7.6-2.6s5.5,0.2,7.5,2c1.3,1.2,2.2,2.9,2.4,4.7c0,1,0,1.9,0,2.9h-6.4
			c-0.1-1.5-0.2-3.4-1.6-4.3c-1.6-0.9-3.5-0.4-4.6,1c-0.6,1.2-0.6,2.6,0.1,3.8c1,1.3,2.3,2.3,3.8,3c2.4,1.3,5,2.6,6.9,4.8
			c0.8,1,1.5,2.1,1.8,3.4c0,1.7,0,3.5,0,5.2c-0.4,1.7-1.3,3.2-2.6,4.3c-0.9,0.6-1.9,1.1-2.9,1.4h-9.6c-2-0.5-3.6-1.9-4.4-3.8
			c-0.7-1.9-0.9-3.9-0.7-6c2.2,0,4.4,0,6.7,0c-0.1,1.4,0.1,2.7,0.6,4c0.4,0.8,1.1,1.3,2,1.4c1.2,0.3,2.4,0.1,3.4-0.5
			c0.9-0.8,1.3-2,1.2-3.2c-0.3-1.5-1.3-2.8-2.6-3.6c-2.7-1.8-5.8-3.1-8.2-5.5c-1.5-1.4-2.4-3.4-2.5-5.5
			C100.9,16.9,101.7,14.4,103.4,12.5z"/>
	</g>
</g>
</svg>
