<?xml version="1.0" encoding="utf-8"?>
<!-- Generator: Adobe Illustrator 26.0.0, SVG Export Plug-In . SVG Version: 6.00 Build 0)  -->
<svg version="1.1" id="Layer_1" xmlns="http://www.w3.org/2000/svg" xmlns:xlink="http://www.w3.org/1999/xlink" x="0px" y="0px"
	 viewBox="0 0 170 52.9" style="enable-background:new 0 0 170 52.9;" xml:space="preserve">
<style type="text/css">
	.st0{enable-background:new    ;}
	.st1{fill:#FFFFFF;}
	.st2{fill-rule:evenodd;clip-rule:evenodd;fill:#C1C1C8;}
	.st3{fill-rule:evenodd;clip-rule:evenodd;fill:url(#SVGID_1_);}
	.st4{clip-path:url(#SVGID_00000100376121656200845570000011825692613219181206_);}
	.st5{fill:url(#SVGID_00000125581609484640549960000015037735253564503948_);}
	.st6{fill:url(#SVGID_00000137822873036621368480000014184293289074782372_);}
	.st7{fill:url(#SVGID_00000024720718789081855140000012563612517562332837_);}
	.st8{fill:url(#SVGID_00000181785971209732611710000002374238164071854993_);}
	.st9{fill:url(#SVGID_00000024720198151409312540000008973400137732299428_);}
	.st10{fill:url(#SVGID_00000132047617486311987080000016209985346526123922_);}
	.st11{fill:url(#SVGID_00000163765887647451779670000000131968916473210034_);}
	.st12{fill:url(#SVGID_00000024706123815017881390000001807266042102777275_);}
</style>
<g>
	<g class="st0">
		<path class="st1" d="M12.3,21.6l2.1,8.8H12l-0.2-1.5H10l-0.2,1.5H7.4l2.1-8.8H12.3z M10.9,23.4l-0.6,3.7h1.3L10.9,23.4L10.9,23.4z
			"/>
		<path class="st1" d="M18,21.6l0.9,5.2h0l0.9-5.2h3.3v8.8H21v-6.5h0l-1.2,6.5h-1.6l-1.2-6.5h0v6.5h-2.1v-8.8H18z"/>
		<path class="st1" d="M29.4,21.6v1.9h-2.9v1.5h2.7v1.8h-2.7v1.7h3v1.9h-5.3v-8.8H29.4z"/>
		<path class="st1" d="M33.9,21.6c0.4,0,0.8,0.1,1.1,0.2c0.3,0.1,0.6,0.3,0.7,0.5c0.2,0.2,0.3,0.5,0.4,0.7s0.1,0.6,0.1,0.9
			c0,0.6-0.1,1.1-0.4,1.4c-0.2,0.4-0.6,0.6-1.1,0.7v0c0.5,0,0.9,0.2,1.1,0.6s0.3,0.8,0.3,1.4v0.7c0,0.1,0,0.2,0,0.4s0,0.2,0,0.4
			s0,0.2,0,0.3c0,0.1,0,0.2,0.1,0.2c0,0,0.1,0.1,0.1,0.1s0.1,0.1,0.2,0.1v0.1h-2.4c-0.1-0.1-0.1-0.2-0.1-0.4c0-0.2,0-0.3-0.1-0.5
			c0-0.2,0-0.3,0-0.4c0-0.1,0-0.3,0-0.4v-0.6c0-0.2,0-0.5,0-0.6c0-0.2-0.1-0.3-0.1-0.4c-0.1-0.1-0.1-0.2-0.2-0.2
			c-0.1,0-0.2-0.1-0.4-0.1h-0.6v3.5h-2.3v-8.8H33.9z M33.1,25.3c0.3,0,0.6-0.1,0.7-0.3s0.2-0.4,0.2-0.8c0-0.4-0.1-0.6-0.2-0.8
			c-0.2-0.2-0.4-0.2-0.7-0.2h-0.4v2.1H33.1z"/>
		<path class="st1" d="M39.6,21.6v8.8h-2.3v-8.8H39.6z"/>
		<path class="st1" d="M43.9,23.2c-0.1-0.2-0.3-0.3-0.5-0.3c-0.2,0-0.3,0-0.4,0.1c-0.1,0.1-0.2,0.2-0.2,0.5
			c-0.1,0.2-0.1,0.5-0.1,0.9c0,0.4,0,0.9,0,1.5s0,1.1,0,1.5c0,0.4,0.1,0.7,0.1,0.9c0.1,0.2,0.1,0.4,0.2,0.5s0.2,0.1,0.4,0.1
			c0.1,0,0.3,0,0.3-0.1c0.1-0.1,0.2-0.2,0.2-0.4s0.1-0.4,0.1-0.7s0-0.6,0-1h2.2v0.7c0,0.6-0.1,1.1-0.2,1.5c-0.2,0.4-0.4,0.7-0.7,0.9
			c-0.3,0.2-0.6,0.4-0.9,0.5c-0.3,0.1-0.7,0.1-1.1,0.1c-0.6,0-1.2-0.1-1.6-0.2c-0.4-0.2-0.7-0.4-1-0.8c-0.2-0.4-0.4-0.8-0.5-1.4
			c-0.1-0.6-0.1-1.3-0.1-2.1c0-0.8,0.1-1.5,0.2-2.1c0.1-0.6,0.3-1.1,0.5-1.4c0.2-0.4,0.6-0.6,1-0.8c0.4-0.2,0.9-0.2,1.5-0.2
			c0.5,0,1,0.1,1.3,0.2c0.4,0.1,0.7,0.3,0.9,0.6c0.2,0.2,0.4,0.5,0.5,0.9c0.1,0.3,0.2,0.7,0.2,1.1v0.6h-2.2v-0.5
			C44.1,23.7,44,23.4,43.9,23.2z"/>
		<path class="st1" d="M51.5,21.6l2.1,8.8h-2.4L51,28.8h-1.8l-0.2,1.5h-2.4l2.1-8.8H51.5z M50,23.4l-0.6,3.7h1.3L50,23.4L50,23.4z"
			/>
		<path class="st1" d="M56.6,21.6L58,27h0v-5.4h2.1v8.8h-2.5l-1.5-5.4h0v5.4H54v-8.8H56.6z"/>
	</g>
	<g class="st0">
		<path class="st1" d="M119.7,21.6v1.9h-2.9v1.5h2.7v1.8h-2.7v3.6h-2.3v-8.8H119.7z"/>
		<path class="st1" d="M120.3,23.8c0.1-0.6,0.3-1,0.5-1.4c0.2-0.4,0.6-0.6,1-0.8c0.4-0.2,0.9-0.3,1.5-0.3c0.6,0,1.1,0.1,1.5,0.3
			s0.7,0.4,1,0.8c0.2,0.4,0.4,0.8,0.5,1.4c0.1,0.6,0.2,1.3,0.2,2.1s-0.1,1.5-0.2,2.1c-0.1,0.6-0.3,1-0.5,1.4c-0.2,0.4-0.6,0.6-1,0.8
			c-0.4,0.2-0.9,0.2-1.5,0.2c-0.6,0-1.1-0.1-1.5-0.2c-0.4-0.2-0.7-0.4-1-0.8c-0.2-0.4-0.4-0.8-0.5-1.4c-0.1-0.6-0.2-1.3-0.2-2.1
			S120.2,24.4,120.3,23.8z M122.6,27.4c0,0.4,0.1,0.7,0.1,0.9s0.1,0.4,0.2,0.5s0.2,0.1,0.4,0.1s0.3,0,0.4-0.1s0.2-0.2,0.2-0.5
			c0.1-0.2,0.1-0.5,0.1-0.9c0-0.4,0-0.9,0-1.5s0-1.1,0-1.5c0-0.4-0.1-0.7-0.1-0.9c-0.1-0.2-0.1-0.4-0.2-0.5
			c-0.1-0.1-0.2-0.1-0.4-0.1s-0.3,0-0.4,0.1c-0.1,0.1-0.2,0.2-0.2,0.5s-0.1,0.5-0.1,0.9c0,0.4,0,0.9,0,1.5S122.6,27,122.6,27.4z"/>
		<path class="st1" d="M130.8,21.6c0.4,0,0.8,0.1,1.1,0.2c0.3,0.1,0.6,0.3,0.7,0.5s0.3,0.5,0.4,0.7s0.1,0.6,0.1,0.9
			c0,0.6-0.1,1.1-0.4,1.4c-0.2,0.4-0.6,0.6-1.1,0.7v0c0.5,0,0.9,0.2,1.1,0.6c0.2,0.3,0.3,0.8,0.3,1.4v0.7c0,0.1,0,0.2,0,0.4
			s0,0.2,0,0.4c0,0.1,0,0.2,0,0.3c0,0.1,0,0.2,0.1,0.2c0,0,0.1,0.1,0.1,0.1c0,0,0.1,0.1,0.2,0.1v0.1h-2.4c-0.1-0.1-0.1-0.2-0.1-0.4
			c0-0.2,0-0.3-0.1-0.5c0-0.2,0-0.3,0-0.4s0-0.3,0-0.4v-0.6c0-0.2,0-0.5,0-0.6s-0.1-0.3-0.1-0.4c-0.1-0.1-0.1-0.2-0.2-0.2
			c-0.1,0-0.2-0.1-0.4-0.1h-0.6v3.5h-2.3v-8.8H130.8z M130,25.3c0.3,0,0.6-0.1,0.7-0.3c0.2-0.2,0.2-0.4,0.2-0.8
			c0-0.4-0.1-0.6-0.2-0.8c-0.2-0.2-0.4-0.2-0.7-0.2h-0.4v2.1H130z"/>
		<path class="st1" d="M137.5,21.6l0.9,5.2h0l0.9-5.2h3.3v8.8h-2.1v-6.5h0l-1.2,6.5h-1.6l-1.2-6.5h0v6.5h-2.1v-8.8H137.5z"/>
		<path class="st1" d="M145.8,27.9c0,0.4,0.1,0.7,0.2,0.9c0.1,0.1,0.3,0.2,0.5,0.2s0.4-0.1,0.5-0.2c0.1-0.1,0.2-0.4,0.2-0.9v-6.3
			h2.3v5.8c0,0.6-0.1,1.1-0.2,1.5c-0.1,0.4-0.3,0.7-0.6,1s-0.6,0.4-0.9,0.5c-0.4,0.1-0.8,0.1-1.3,0.1c-0.5,0-0.9,0-1.3-0.1
			s-0.7-0.3-0.9-0.5s-0.4-0.6-0.6-1c-0.1-0.4-0.2-0.9-0.2-1.5v-5.8h2.3V27.9z"/>
		<path class="st1" d="M152.8,21.6v6.9h2.8v1.9h-5.1v-8.8H152.8z"/>
		<path class="st1" d="M160.5,21.6l2.1,8.8h-2.4l-0.2-1.5h-1.8l-0.2,1.5h-2.4l2.1-8.8H160.5z M159,23.4l-0.6,3.7h1.3L159,23.4
			L159,23.4z"/>
	</g>
	<g>
		<path class="st2" d="M110.4,26.5c0,12.7-10.3,23-23,23s-23-10.3-23-23s10.3-23,23-23l0,0C100.2,3.5,110.4,13.8,110.4,26.5z"/>
		
			<radialGradient id="SVGID_1_" cx="87.5" cy="740.4101" r="25.4936" gradientTransform="matrix(1 0 0 1 0 -714)" gradientUnits="userSpaceOnUse">
			<stop  offset="0.7" style="stop-color:#1A478F"/>
			<stop  offset="0.85" style="stop-color:#193672"/>
			<stop  offset="1" style="stop-color:#18224F"/>
		</radialGradient>
		<path class="st3" d="M109.5,26.5c0,12.2-9.8,22-22,22s-22-9.8-22-22s9.8-22,22-22S109.5,14.3,109.5,26.5z"/>
		<path class="st2" d="M104.2,26.5c0,9.2-7.5,16.7-16.8,16.7c-9.2,0-16.7-7.5-16.7-16.8c0-9.2,7.5-16.7,16.7-16.7
			C96.7,9.7,104.2,17.2,104.2,26.5C104.2,26.4,104.2,26.5,104.2,26.5z"/>
		<polygon class="st1" points="88.4,8.4 88.3,8.1 88.1,7.3 88.8,6.7 89,6.6 88.7,6.6 87.9,6.5 87.6,5.7 87.5,5.5 87.4,5.7 87.1,6.5 
			86.2,6.6 86,6.6 86.2,6.7 86.8,7.3 86.6,8.1 86.5,8.3 86.7,8.2 87.5,7.7 88.2,8.2 		"/>
		<polygon class="st1" points="86.6,44.3 86.6,44.6 86.9,45.4 86.2,46 86,46.1 86.2,46.1 87.1,46.2 87.4,47 87.5,47.2 87.6,47 
			87.9,46.2 88.7,46.2 89,46.1 88.8,46 88.1,45.4 88.4,44.6 88.4,44.4 88.2,44.5 87.5,45 86.8,44.5 		"/>
		<polygon class="st1" points="105.5,27.3 105.7,27.2 106.6,27 107.1,27.7 107.2,27.9 107.3,27.6 107.3,26.7 108.1,26.4 108.4,26.4 
			108.1,26.3 107.3,26 107.3,25.1 107.3,24.8 107.1,25 106.6,25.7 105.7,25.5 105.5,25.4 105.6,25.6 106.1,26.3 105.6,27.1 		"/>
		<polygon class="st1" points="69.5,25.4 69.2,25.5 68.4,25.7 67.9,25 67.7,24.8 67.7,25.1 67.7,26 66.8,26.3 66.6,26.3 66.8,26.4 
			67.7,26.7 67.7,27.6 67.7,27.9 67.9,27.7 68.4,27 69.2,27.2 69.5,27.3 69.3,27.1 68.9,26.4 69.3,25.6 		"/>
		<polygon class="st1" points="100.8,14.3 100.9,14.1 101.4,13.4 102.2,13.5 102.5,13.5 102.3,13.3 101.7,12.7 102.1,11.9 
			102.2,11.6 102,11.8 101.2,12.1 100.5,11.5 100.4,11.3 100.4,11.6 100.5,12.5 99.7,12.9 99.5,13 99.7,13 100.6,13.2 100.8,14.1 		
			"/>
		<polygon class="st1" points="74.2,38.4 74,38.6 73.6,39.4 72.7,39.3 72.5,39.2 72.7,39.4 73.2,40.1 72.9,40.8 72.8,41.1 73,41 
			73.8,40.6 74.4,41.2 74.6,41.4 74.6,41.1 74.5,40.3 75.2,39.8 75.5,39.7 75.2,39.7 74.4,39.5 74.2,38.6 		"/>
		<polygon class="st1" points="99.5,39.7 99.7,39.8 100.5,40.2 100.4,41.1 100.3,41.3 100.5,41.2 101.2,40.6 102,41 102.2,41.1 
			102.1,40.8 101.7,40.1 102.3,39.4 102.5,39.2 102.2,39.3 101.4,39.4 101,38.6 100.8,38.4 100.8,38.6 100.6,39.5 99.8,39.6 		"/>
		<polygon class="st1" points="75.4,13 75.2,12.9 74.5,12.5 74.6,11.6 74.6,11.4 74.4,11.5 73.8,12.1 73,11.7 72.8,11.6 72.9,11.9 
			73.2,12.7 72.6,13.3 72.5,13.5 72.7,13.4 73.6,13.4 74,14.1 74.1,14.3 74.2,14.1 74.3,13.2 75.2,13.1 		"/>
		<polygon class="st1" points="95,10 95.1,9.8 95.2,8.9 96,8.7 96.3,8.6 96,8.5 95.2,8.1 95.3,7.3 95.3,7 95.1,7.2 94.5,7.9 
			93.7,7.6 93.5,7.5 93.6,7.7 94,8.4 93.5,9.1 93.3,9.3 93.6,9.3 94.4,9.1 94.9,9.8 		"/>
		<polygon class="st1" points="79.9,42.7 79.9,42.9 79.8,43.8 79,44 78.7,44.1 78.9,44.2 79.7,44.6 79.7,45.4 79.7,45.7 79.9,45.5 
			80.4,44.9 81.3,45.2 81.5,45.2 81.4,45 80.9,44.3 81.5,43.6 81.6,43.4 81.4,43.4 80.5,43.6 80.1,42.9 		"/>
		<polygon class="st1" points="103.8,33.9 104,34 104.9,34.1 105.1,34.9 105.2,35.1 105.3,34.9 105.7,34.1 106.5,34.1 106.8,34.1 
			106.6,34 106,33.4 106.3,32.6 106.4,32.3 106.1,32.5 105.4,32.9 104.7,32.4 104.5,32.2 104.6,32.4 104.7,33.3 104,33.8 		"/>
		<polygon class="st1" points="71.2,18.8 70.9,18.8 70.1,18.7 69.8,17.8 69.7,17.6 69.6,17.8 69.3,18.6 68.4,18.6 68.2,18.6 
			68.3,18.7 69,19.3 68.7,20.1 68.6,20.4 68.8,20.2 69.6,19.8 70.3,20.4 70.5,20.5 70.4,20.3 70.2,19.4 71,18.9 		"/>
		<polygon class="st1" points="104.3,20.1 104.5,20 105.2,19.4 106,19.8 106.2,20 106.1,19.7 105.8,18.9 106.4,18.3 106.6,18.1 
			106.4,18.2 105.5,18.2 105.1,17.4 105,17.2 105,17.4 104.7,18.3 103.9,18.4 103.6,18.4 103.8,18.5 104.6,19 104.4,19.9 		"/>
		<polygon class="st1" points="70.6,32.6 70.4,32.8 69.7,33.3 69,32.9 68.8,32.7 68.8,33 69.1,33.8 68.5,34.4 68.3,34.6 68.6,34.6 
			69.4,34.5 69.8,35.3 69.9,35.5 70,35.3 70.2,34.5 71.1,34.3 71.3,34.3 71.1,34.2 70.4,33.7 70.6,32.8 		"/>
		<polygon class="st1" points="93.7,43.2 93.9,43.4 94.4,44.1 94,44.9 93.9,45.1 94.1,45 94.9,44.7 95.5,45.3 95.7,45.5 95.7,45.3 
			95.6,44.4 96.4,44 96.7,43.9 96.4,43.8 95.6,43.6 95.5,42.8 95.4,42.5 95.3,42.7 94.8,43.4 94,43.3 		"/>
		<polygon class="st1" points="81.2,9.5 81.1,9.3 80.5,8.6 81,7.9 81.1,7.6 80.8,7.7 80,8 79.4,7.4 79.3,7.2 79.3,7.5 79.3,8.3 
			78.5,8.7 78.3,8.8 78.5,8.9 79.4,9.1 79.5,10 79.5,10.2 79.7,10 80.1,9.3 81,9.4 		"/>
		<g>
			<g>
				<defs>
					<path id="SVGID_00000173123567890179126270000015178961335018364060_" d="M103.1,26.5c0,8.6-7.1,15.6-15.7,15.6
						S71.8,35,71.8,26.4s7-15.6,15.7-15.6C96.1,10.8,103.1,17.8,103.1,26.5C103.1,26.4,103.1,26.4,103.1,26.5z"/>
				</defs>
				<clipPath id="SVGID_00000158028604245399895530000009094950808891045530_">
					<use xlink:href="#SVGID_00000173123567890179126270000015178961335018364060_"  style="overflow:visible;"/>
				</clipPath>
				<g style="clip-path:url(#SVGID_00000158028604245399895530000009094950808891045530_);">
					<rect x="64.7" y="10.7" class="st1" width="40.6" height="32.2"/>
					
						<radialGradient id="SVGID_00000021815674152062664940000004126890276980682122_" cx="83.149" cy="731.3401" r="18.57" gradientTransform="matrix(1 0 0 1 0 -714)" gradientUnits="userSpaceOnUse">
						<stop  offset="0" style="stop-color:#F16B59"/>
						<stop  offset="0.58" style="stop-color:#D63D3A"/>
						<stop  offset="1" style="stop-color:#C52026"/>
					</radialGradient>
					
						<rect x="64.7" y="10.3" style="fill:url(#SVGID_00000021815674152062664940000004126890276980682122_);" width="40.6" height="2.5"/>
					
						<radialGradient id="SVGID_00000163780650716150847090000015967048849516846740_" cx="83.149" cy="731.3401" r="18.57" gradientTransform="matrix(1 0 0 1 0 -714)" gradientUnits="userSpaceOnUse">
						<stop  offset="0" style="stop-color:#F16B59"/>
						<stop  offset="0.58" style="stop-color:#D63D3A"/>
						<stop  offset="1" style="stop-color:#C52026"/>
					</radialGradient>
					
						<rect x="64.7" y="15.4" style="fill:url(#SVGID_00000163780650716150847090000015967048849516846740_);" width="40.6" height="2.5"/>
					
						<radialGradient id="SVGID_00000011004433505747062900000014755620335885383865_" cx="83.149" cy="731.3401" r="18.57" gradientTransform="matrix(1 0 0 1 0 -714)" gradientUnits="userSpaceOnUse">
						<stop  offset="0" style="stop-color:#F16B59"/>
						<stop  offset="0.58" style="stop-color:#D63D3A"/>
						<stop  offset="1" style="stop-color:#C52026"/>
					</radialGradient>
					
						<rect x="64.7" y="20.4" style="fill:url(#SVGID_00000011004433505747062900000014755620335885383865_);" width="40.6" height="2.5"/>
					
						<radialGradient id="SVGID_00000129196465639269590010000009815469811392049281_" cx="83.149" cy="731.3401" r="18.57" gradientTransform="matrix(1 0 0 1 0 -714)" gradientUnits="userSpaceOnUse">
						<stop  offset="0" style="stop-color:#F16B59"/>
						<stop  offset="0.58" style="stop-color:#D63D3A"/>
						<stop  offset="1" style="stop-color:#C52026"/>
					</radialGradient>
					
						<rect x="64.7" y="25.4" style="fill:url(#SVGID_00000129196465639269590010000009815469811392049281_);" width="40.6" height="2.5"/>
					
						<radialGradient id="SVGID_00000155140582605622053880000013208070156885333419_" cx="83.149" cy="731.3401" r="18.57" gradientTransform="matrix(1 0 0 1 0 -714)" gradientUnits="userSpaceOnUse">
						<stop  offset="0" style="stop-color:#F16B59"/>
						<stop  offset="0.58" style="stop-color:#D63D3A"/>
						<stop  offset="1" style="stop-color:#C52026"/>
					</radialGradient>
					
						<rect x="64.7" y="30.5" style="fill:url(#SVGID_00000155140582605622053880000013208070156885333419_);" width="40.6" height="2.5"/>
					
						<radialGradient id="SVGID_00000054953843381047831310000015062273827286205064_" cx="83.149" cy="731.3401" r="18.57" gradientTransform="matrix(1 0 0 1 0 -714)" gradientUnits="userSpaceOnUse">
						<stop  offset="0" style="stop-color:#F16B59"/>
						<stop  offset="0.58" style="stop-color:#D63D3A"/>
						<stop  offset="1" style="stop-color:#C52026"/>
					</radialGradient>
					
						<rect x="64.7" y="35.5" style="fill:url(#SVGID_00000054953843381047831310000015062273827286205064_);" width="40.6" height="2.5"/>
					
						<radialGradient id="SVGID_00000103982428020676090350000003436202174116622745_" cx="83.149" cy="731.3401" r="18.57" gradientTransform="matrix(1 0 0 1 0 -714)" gradientUnits="userSpaceOnUse">
						<stop  offset="0" style="stop-color:#F16B59"/>
						<stop  offset="0.58" style="stop-color:#D63D3A"/>
						<stop  offset="1" style="stop-color:#C52026"/>
					</radialGradient>
					
						<rect x="64.7" y="40.5" style="fill:url(#SVGID_00000103982428020676090350000003436202174116622745_);" width="40.6" height="2.5"/>
					
						<radialGradient id="SVGID_00000003785023449317986820000008629453113629151137_" cx="96.349" cy="742.6801" r="30.63" gradientTransform="matrix(1 0 0 1 0 -714)" gradientUnits="userSpaceOnUse">
						<stop  offset="0.45" style="stop-color:#1A478F"/>
						<stop  offset="0.72" style="stop-color:#193672"/>
						<stop  offset="1" style="stop-color:#18224F"/>
					</radialGradient>
					
						<rect x="64.7" y="10.3" style="fill:url(#SVGID_00000003785023449317986820000008629453113629151137_);" width="24.9" height="17.6"/>
					<polygon class="st1" points="67,11.3 67.2,11.9 67.9,11.9 67.4,12.4 67.6,13 67,12.7 66.4,13 66.6,12.4 66.1,11.9 66.7,11.9 
											"/>
					<polygon class="st1" points="71,11.3 71.3,11.9 72,11.9 71.4,12.4 71.6,13 71,12.7 70.5,13 70.7,12.4 70.1,11.9 70.8,11.9 
											"/>
					<polygon class="st1" points="75.1,11.3 75.3,11.9 76,11.9 75.5,12.4 75.7,13 75.1,12.7 74.5,13 74.7,12.4 74.2,11.9 74.8,11.9 
											"/>
					<polygon class="st1" points="79.1,11.3 79.4,11.9 80.1,11.9 79.5,12.4 79.7,13 79.1,12.7 78.6,13 78.8,12.4 78.2,11.9 
						78.9,11.9 					"/>
					<polygon class="st1" points="83.2,11.3 83.4,11.9 84.1,11.9 83.6,12.4 83.8,13 83.2,12.7 82.6,13 82.8,12.4 82.3,11.9 83,11.9 
											"/>
					<polygon class="st1" points="87.2,11.3 87.5,11.9 88.2,11.9 87.6,12.4 87.8,13 87.2,12.7 86.7,13 86.9,12.4 86.3,11.9 87,11.9 
											"/>
					<polygon class="st1" points="69.1,13 69.3,13.7 70,13.7 69.5,14.1 69.7,14.8 69.1,14.4 68.5,14.8 68.7,14.1 68.2,13.7 
						68.9,13.7 					"/>
					<polygon class="st1" points="73.2,13 73.4,13.7 74.1,13.7 73.5,14.1 73.7,14.8 73.2,14.4 72.6,14.8 72.8,14.1 72.2,13.7 
						72.9,13.7 					"/>
					<polygon class="st1" points="77.2,13 77.4,13.7 78.1,13.7 77.6,14.1 77.8,14.8 77.2,14.4 76.6,14.8 76.8,14.1 76.3,13.7 
						77,13.7 					"/>
					<polygon class="st1" points="81.3,13 81.5,13.7 82.2,13.7 81.6,14.1 81.8,14.8 81.3,14.4 80.7,14.8 80.9,14.1 80.3,13.7 
						81,13.7 					"/>
					<polygon class="st1" points="85.3,13 85.6,13.7 86.2,13.7 85.7,14.1 85.9,14.8 85.3,14.4 84.7,14.8 84.9,14.1 84.4,13.7 
						85.1,13.7 					"/>
					<polygon class="st1" points="67,14.8 67.2,15.4 67.9,15.5 67.4,15.9 67.6,16.5 67,16.2 66.4,16.5 66.6,15.9 66.1,15.5 
						66.7,15.4 					"/>
					<polygon class="st1" points="71,14.8 71.3,15.4 72,15.5 71.4,15.9 71.6,16.5 71,16.2 70.5,16.5 70.7,15.9 70.1,15.5 70.8,15.4 
											"/>
					<polygon class="st1" points="75.1,14.8 75.3,15.4 76,15.5 75.5,15.9 75.7,16.5 75.1,16.2 74.5,16.5 74.7,15.9 74.2,15.5 
						74.8,15.4 					"/>
					<polygon class="st1" points="79.1,14.8 79.4,15.4 80.1,15.5 79.5,15.9 79.7,16.5 79.1,16.2 78.6,16.5 78.8,15.9 78.2,15.5 
						78.9,15.4 					"/>
					<polygon class="st1" points="83.2,14.8 83.4,15.4 84.1,15.5 83.6,15.9 83.8,16.5 83.2,16.2 82.6,16.5 82.8,15.9 82.3,15.5 
						83,15.4 					"/>
					<polygon class="st1" points="87.2,14.8 87.5,15.4 88.2,15.5 87.6,15.9 87.8,16.5 87.2,16.2 86.7,16.5 86.9,15.9 86.3,15.5 
						87,15.4 					"/>
					<polygon class="st1" points="69.1,16.5 69.3,17.2 70,17.2 69.5,17.6 69.7,18.3 69.1,17.9 68.5,18.3 68.7,17.6 68.2,17.2 
						68.9,17.2 					"/>
					<polygon class="st1" points="73.2,16.5 73.4,17.2 74.1,17.2 73.5,17.6 73.7,18.3 73.2,17.9 72.6,18.3 72.8,17.6 72.2,17.2 
						72.9,17.2 					"/>
					<polygon class="st1" points="77.2,16.5 77.4,17.2 78.1,17.2 77.6,17.6 77.8,18.3 77.2,17.9 76.6,18.3 76.8,17.6 76.3,17.2 
						77,17.2 					"/>
					<polygon class="st1" points="81.3,16.5 81.5,17.2 82.2,17.2 81.6,17.6 81.8,18.3 81.3,17.9 80.7,18.3 80.9,17.6 80.3,17.2 
						81,17.2 					"/>
					<polygon class="st1" points="85.3,16.5 85.6,17.2 86.2,17.2 85.7,17.6 85.9,18.3 85.3,17.9 84.7,18.3 84.9,17.6 84.4,17.2 
						85.1,17.2 					"/>
					<polygon class="st1" points="67,18.3 67.2,18.9 67.9,19 67.4,19.4 67.6,20 67,19.7 66.4,20 66.6,19.4 66.1,19 66.7,18.9 					
						"/>
					<polygon class="st1" points="71,18.3 71.3,18.9 72,19 71.4,19.4 71.6,20 71,19.7 70.5,20 70.7,19.4 70.1,19 70.8,18.9 					"/>
					<polygon class="st1" points="75.1,18.3 75.3,18.9 76,19 75.5,19.4 75.7,20 75.1,19.7 74.5,20 74.7,19.4 74.2,19 74.8,18.9 
											"/>
					<polygon class="st1" points="79.1,18.3 79.4,18.9 80.1,19 79.5,19.4 79.7,20 79.1,19.7 78.6,20 78.8,19.4 78.2,19 78.9,18.9 
											"/>
					<polygon class="st1" points="83.2,18.3 83.4,18.9 84.1,19 83.6,19.4 83.8,20 83.2,19.7 82.6,20 82.8,19.4 82.3,19 83,18.9 
											"/>
					<polygon class="st1" points="87.2,18.3 87.5,18.9 88.2,19 87.6,19.4 87.8,20 87.2,19.7 86.7,20 86.9,19.4 86.3,19 87,18.9 
											"/>
					<polygon class="st1" points="69.1,20 69.3,20.7 70,20.7 69.5,21.1 69.7,21.8 69.1,21.4 68.5,21.8 68.7,21.1 68.2,20.7 
						68.9,20.7 					"/>
					<polygon class="st1" points="73.2,20 73.4,20.7 74.1,20.7 73.5,21.1 73.7,21.8 73.2,21.4 72.6,21.8 72.8,21.1 72.2,20.7 
						72.9,20.7 					"/>
					<polygon class="st1" points="77.2,20 77.4,20.7 78.1,20.7 77.6,21.1 77.8,21.8 77.2,21.4 76.6,21.8 76.8,21.1 76.3,20.7 
						77,20.7 					"/>
					<polygon class="st1" points="81.3,20 81.5,20.7 82.2,20.7 81.6,21.1 81.8,21.8 81.3,21.4 80.7,21.8 80.9,21.1 80.3,20.7 
						81,20.7 					"/>
					<polygon class="st1" points="85.3,20 85.6,20.7 86.2,20.7 85.7,21.1 85.9,21.8 85.3,21.4 84.7,21.8 84.9,21.1 84.4,20.7 
						85.1,20.7 					"/>
					<polygon class="st1" points="67,21.8 67.2,22.4 67.9,22.5 67.4,22.9 67.6,23.5 67,23.2 66.4,23.5 66.6,22.9 66.1,22.5 
						66.7,22.4 					"/>
					<polygon class="st1" points="71,21.8 71.3,22.4 72,22.5 71.4,22.9 71.6,23.5 71,23.2 70.5,23.5 70.7,22.9 70.1,22.5 70.8,22.4 
											"/>
					<polygon class="st1" points="75.1,21.8 75.3,22.4 76,22.5 75.5,22.9 75.7,23.5 75.1,23.2 74.5,23.5 74.7,22.9 74.2,22.5 
						74.8,22.4 					"/>
					<polygon class="st1" points="79.1,21.8 79.4,22.4 80.1,22.5 79.5,22.9 79.7,23.5 79.1,23.2 78.6,23.5 78.8,22.9 78.2,22.5 
						78.9,22.4 					"/>
					<polygon class="st1" points="83.2,21.8 83.4,22.4 84.1,22.5 83.6,22.9 83.8,23.5 83.2,23.2 82.6,23.5 82.8,22.9 82.3,22.5 
						83,22.4 					"/>
					<polygon class="st1" points="87.2,21.8 87.5,22.4 88.2,22.5 87.6,22.9 87.8,23.5 87.2,23.2 86.7,23.5 86.9,22.9 86.3,22.5 
						87,22.4 					"/>
					<polygon class="st1" points="69.1,23.5 69.3,24.2 70,24.2 69.5,24.6 69.7,25.3 69.1,24.9 68.5,25.3 68.7,24.6 68.2,24.2 
						68.9,24.2 					"/>
					<polygon class="st1" points="73.2,23.5 73.4,24.2 74.1,24.2 73.5,24.6 73.7,25.3 73.2,24.9 72.6,25.3 72.8,24.6 72.2,24.2 
						72.9,24.2 					"/>
					<polygon class="st1" points="77.2,23.5 77.4,24.2 78.1,24.2 77.6,24.6 77.8,25.3 77.2,24.9 76.6,25.3 76.8,24.6 76.3,24.2 
						77,24.2 					"/>
					<polygon class="st1" points="81.3,23.5 81.5,24.2 82.2,24.2 81.6,24.6 81.8,25.3 81.3,24.9 80.7,25.3 80.9,24.6 80.3,24.2 
						81,24.2 					"/>
					<polygon class="st1" points="85.3,23.5 85.6,24.2 86.2,24.2 85.7,24.6 85.9,25.3 85.3,24.9 84.7,25.3 84.9,24.6 84.4,24.2 
						85.1,24.2 					"/>
					<polygon class="st1" points="67,25.3 67.2,25.9 67.9,26 67.4,26.4 67.6,27 67,26.7 66.4,27 66.6,26.4 66.1,26 66.7,25.9 					
						"/>
					<polygon class="st1" points="71,25.3 71.3,25.9 72,26 71.4,26.4 71.6,27 71,26.7 70.5,27 70.7,26.4 70.1,26 70.8,25.9 					"/>
					<polygon class="st1" points="75.1,25.3 75.3,25.9 76,26 75.5,26.4 75.7,27 75.1,26.7 74.5,27 74.7,26.4 74.2,26 74.8,25.9 
											"/>
					<polygon class="st1" points="79.1,25.3 79.4,25.9 80.1,26 79.5,26.4 79.7,27 79.1,26.7 78.6,27 78.8,26.4 78.2,26 78.9,25.9 
											"/>
					<polygon class="st1" points="83.2,25.3 83.4,25.9 84.1,26 83.6,26.4 83.8,27 83.2,26.7 82.6,27 82.8,26.4 82.3,26 83,25.9 
											"/>
					<polygon class="st1" points="87.2,25.3 87.5,25.9 88.2,26 87.6,26.4 87.8,27 87.2,26.7 86.7,27 86.9,26.4 86.3,26 87,25.9 
											"/>
				</g>
			</g>
		</g>
	</g>
</g>
</svg>
