<?xml version="1.0" encoding="utf-8"?>
<!-- Generator: Adobe Illustrator 26.0.0, SVG Export Plug-In . SVG Version: 6.00 Build 0)  -->
<svg version="1.1" id="Layer_1" xmlns="http://www.w3.org/2000/svg" xmlns:xlink="http://www.w3.org/1999/xlink" x="0px" y="0px"
	 viewBox="0 0 170 52.9" style="enable-background:new 0 0 170 52.9;" xml:space="preserve">
<style type="text/css">
	.st0{fill:#FFFFFF;}
</style>
<g id="Layer_2_00000013170713513806977890000014196681114380366491_">
	<g id="Moving_Icons_Tickers">
		<path class="st0" d="M21,8.4h2.2c4.7,0.4,9.1,2.5,12.2,6c6.7,7.4,6.2,18.8-1.2,25.5c-1.4,1.3-2.9,2.3-4.6,3.1
			c-1.8,0.8-3.8,1.4-5.7,1.6H20c-4.8-0.6-9.2-3-12.2-6.7c-2.3-2.9-3.7-6.5-4-10.2v-2.1c0.2-3.4,1.4-6.7,3.3-9.4
			C10.3,11.5,15.4,8.7,21,8.4z M18.7,11.4c-5,1.1-9.1,4.6-11.1,9.3c-3.2,7.9,0.6,17,8.5,20.2s17-0.6,20.2-8.5
			c3-7.4-0.1-15.9-7.2-19.6C25.9,11.1,22.2,10.6,18.7,11.4z"/>
		<path class="st0" d="M15.9,14.6c5.8-3.5,13.2-2.4,17.7,2.6c-1.1-0.8-2.2-1.6-3.4-2.2c-4.1-1.9-8.9-1.6-12.6,1
			c-3.5,2.4-5.5,6.3-5.6,10.5h2.9c0-6.1,5-11.1,11.1-11.1c3.7,0,7.1,1.8,9.2,4.8c-3.5-4.2-9.7-4.8-13.9-1.3c-0.8,0.7-1.5,1.4-2,2.3
			c-1,1.6-1.6,3.4-1.6,5.3h2.8c0.1-2.3,1-4.4,2.6-6c2.7-2.6,6.7-3,10-1.2c2.5,1.5,4,4.2,4.1,7.1c-0.9,0-1.7,0-2.6,0
			c0,4.2-1.9,8.2-5.2,10.9c-2.6,2.1-5.9,3.2-9.2,3.1c-4-0.1-7.7-1.9-10.2-5c2.2,2.2,5.1,3.6,8.2,3.8c3.5,0.3,7-1,9.6-3.4
			c2.6-2.4,4.1-5.8,4-9.3H29c0,5.4-3.9,10-9.2,10.9c-4.2,0.8-8.4-0.9-10.9-4.4c2.4,2.7,6.1,3.9,9.6,3.1c4.5-1.1,7.7-5,7.7-9.6h-3
			c0,2.7-1.3,5.2-3.5,6.8c-2.8,2-6.5,2-9.4,0.2c-2.3-1.5-3.7-4.2-3.6-6.9h2.5C9.3,21.6,11.8,17.2,15.9,14.6z"/>
		<path class="st0" d="M153.9,15.2c3.9-0.3,7.8,0.3,11.4,1.9c-0.6,1.5-1.1,2.9-1.7,4.3c-2.7-1.6-5.9-2.3-9-1.8
			c-0.8,0.1-1.5,0.6-1.9,1.3c-0.3,0.9,0.6,1.6,1.3,1.9c3.1,1.2,6.6,1.2,9.4,3.1c1.5,1,2.5,2.5,2.7,4.3v1.1c-0.2,2.6-2,4.8-4.5,5.5
			c-5,1.7-10.5,0.3-15.1-1.9c0.4-1.5,1.1-2.9,1.5-4.3c3.2,1.6,6.9,2.3,10.5,2c0.8-0.2,1.8-0.6,1.9-1.5c0.1-0.9-1.1-1.6-1.9-1.9
			c-3.2-1-6.8-1.1-9.5-3.2c-2.1-1.8-2.6-5-1.1-7.3C149.3,16.8,151.4,15.5,153.9,15.2z"/>
		<path class="st0" d="M57.1,15.9c1.5-0.2,2.8,0,4.3-0.1c0.2,0.3,0.4,0.6,0.6,1c3.6,6.9,7.2,13.7,10.8,20.6c-2.2-0.1-4.3,0-6.5,0
			c-2.2-4.5-4.4-8.8-6.5-13.3c-0.1-0.3-0.3-0.5-0.6-0.7c-0.8,2-1.8,3.9-2.7,5.8c1,0,1.9,0,2.9,0c0.8,1.5,1.6,3.1,2.3,4.7
			c-2.5,0-5,0-7.5,0c-0.5,1.2-1.1,2.3-1.5,3.4c-2.2,0.1-4.3,0-6.5,0C49.9,30.1,53.6,23,57.1,15.9z"/>
		<path class="st0" d="M74,15.9h5.3v21.6c-1.8,0-3.5,0-5.3,0C73.9,30.1,74,23,74,15.9z"/>
		<path class="st0" d="M81.6,15.9c3.9,0,7.7,0,11.6,0c2.5-0.1,5,1,6.6,3c1.6,2.5,1.6,5.7,0,8.1c-0.9,1.3-2.2,2.2-3.7,2.6
			c1.5,2.6,3,5.2,4.6,7.8c-1.8,0-3.6,0-5.4,0c-2.2-4-4.5-7.9-6.7-11.9c1.8,0,3.5,0.1,5.3-0.1c1.4-0.4,2.2-1.8,1.8-3.2
			c-0.1-0.3-0.2-0.5-0.3-0.7c-0.5-0.7-1.3-1.2-2.1-1.2h-6.5c0,5.7,0,11.3,0,17h-5.2V15.9z"/>
		<path class="st0" d="M103,15.8h12.6c2.6,0,5,1.6,6,4.1c0.8,2.3,0.2,4.8-1.5,6.5c1.9,1,3,3.1,2.8,5.2c-0.4,3.3-3.2,5.7-6.5,5.7
			c-4.5,0-8.9,0-13.3,0C103.1,30.1,103,22.9,103,15.8z M108.2,20.3c0,1.2,0,2.5,0,3.7h7.2c0.9,0.1,1.8-0.5,2.1-1.3
			c0.3-1-0.3-2-1.3-2.2c-0.2,0-0.3-0.1-0.5-0.1C113.1,20.3,110.7,20.3,108.2,20.3L108.2,20.3z M108.2,28.4c0,1.5,0,2.9,0,4.3
			c2.5,0,5,0,7.5,0c1.3,0.1,2.3-0.9,2.4-2.2c0,0,0-0.1,0-0.1c-0.1-1.2-1.2-2.1-2.4-2L108.2,28.4z"/>
		<path class="st0" d="M124.5,15.7c1.8,0,3.6,0,5.4,0c-0.1,4,0,8,0,12c-0.2,1.9,0.7,3.7,2.3,4.7c2.1,1.1,4.7,0.7,6.3-1
			c0.8-1,1.1-2.1,1.1-3.4c0-4.1,0-8.3,0-12.4h5.4c0,4.1,0,8.3,0,12.5c0.1,2.6-0.8,5.2-2.6,7.2c-2.1,1.8-4.8,2.6-7.6,2.4
			c-2.8,0.2-5.5-0.7-7.6-2.4c-1.7-1.9-2.7-4.4-2.6-6.9C124.5,24.2,124.5,20,124.5,15.7z"/>
	</g>
</g>
</svg>
