<svg xmlns="http://www.w3.org/2000/svg" viewBox="0 0 82.39 38.5"><defs><style>.cls-1{fill:#f27221;}.cls-2{fill:#fff;}</style></defs><g id="Layer_2" data-name="Layer 2"><g id="Moving_Icons_Tickers" data-name="Moving Icons &amp; Tickers"><path class="cls-1" d="M71.39,0H72c0,10.77,0,21.54,0,32.3,3.44,0,6.88,0,10.33,0V33c-3.45,0-6.9,0-10.34,0,0,1.82,0,3.65,0,5.47l-.65,0c0-1.84,0-3.68,0-5.52H0v-.65c7,0,14.05,0,21.07,0h8c3.9,0,7.81,0,11.71,0,3.28,0,6.56,0,9.85,0,2.7,0,5.4,0,8.11,0H66.8c1.53,0,3.06,0,4.59,0,0-1.61,0-3.22,0-4.82s0-2.93,0-4.39c0-3.25,0-6.51,0-9.76,0-.82,0-1.63,0-2.45C71.41,7.26,71.38,3.63,71.39,0Z"/><path class="cls-2" d="M19.16,7.24c1.84-1.57,4.36-1.9,6.69-1.92,2.09,0,4.39.34,6,1.85s1.94,4,1.77,6.17c-1.82,0-3.63,0-5.45,0a5.26,5.26,0,0,0-.78-3.25,2.57,2.57,0,0,0-2.42-.69,2.44,2.44,0,0,0-1.85,1.18,3.23,3.23,0,0,0,.3,3.49,10.88,10.88,0,0,0,3.5,2.52c2.11,1.15,4.37,2.29,5.79,4.31a8.22,8.22,0,0,1,1.09,6.18,6.38,6.38,0,0,1-1.89,3.72,6.54,6.54,0,0,1-2.83,1.51h-8a5.52,5.52,0,0,1-3.69-3.1,10.67,10.67,0,0,1-.67-5.1h5.61a7,7,0,0,0,.59,3.6,2.86,2.86,0,0,0,2.47,1.09,2.63,2.63,0,0,0,2.4-1.15,3.36,3.36,0,0,0,.06-3.32,7.25,7.25,0,0,0-2.45-2.22c-2.2-1.37-4.64-2.46-6.43-4.39a6.92,6.92,0,0,1-1.91-4.89A7.05,7.05,0,0,1,19.16,7.24Z"/><path class="cls-2" d="M38.77,6.71A10.89,10.89,0,0,1,44.9,5.33a8.62,8.62,0,0,1,6.19,2.41A8,8,0,0,1,53,14c-1.86,0-3.72,0-5.57,0a6.42,6.42,0,0,0-.54-3.22,2.57,2.57,0,0,0-1.82-1.28,3.21,3.21,0,0,0-2.65.47A4.89,4.89,0,0,0,41,12.84a41.89,41.89,0,0,0-.34,6.81,34.75,34.75,0,0,0,.5,6.52,3.26,3.26,0,0,0,1.71,2.46,7.14,7.14,0,0,0,4.47-.2c0-2,0-3.92,0-5.87-1,0-2,0-3,0-.05-1.39,0-2.77,0-4.16H53c0,4.5,0,9,0,13.5a17.08,17.08,0,0,1-2.36.39c-3.29,0-6.57,0-9.85,0A6.2,6.2,0,0,1,36.36,29c-1.18-2.46-1.22-5.27-1.34-7.94,0-3.36-.2-6.8.75-10.07A7.44,7.44,0,0,1,38.77,6.71Z"/><path class="cls-2" d="M56.59,7.48C58.27,5.82,60.75,5.4,63,5.33s4.59.18,6.34,1.64a6.41,6.41,0,0,1,2,3.92c0,.82,0,1.63,0,2.45H66c-.07-1.29-.18-2.87-1.38-3.64a2.94,2.94,0,0,0-3.84.86,3.26,3.26,0,0,0,.09,3.2,8.69,8.69,0,0,0,3.2,2.55c2,1.13,4.24,2.15,5.81,4a7.52,7.52,0,0,1,1.52,2.84c0,1.46,0,2.92,0,4.39a6.4,6.4,0,0,1-2.17,3.6A7.49,7.49,0,0,1,66.8,32.3H58.72A5.57,5.57,0,0,1,55,29.09a11.47,11.47,0,0,1-.63-5c1.87,0,3.73,0,5.59,0a8.58,8.58,0,0,0,.51,3.38,2.28,2.28,0,0,0,1.64,1.2,3.46,3.46,0,0,0,2.84-.46,3.14,3.14,0,0,0,1-2.71,4.47,4.47,0,0,0-2.2-3c-2.27-1.55-4.9-2.62-6.86-4.6a7.06,7.06,0,0,1-2.12-4.58A7.51,7.51,0,0,1,56.59,7.48Z"/></g></g></svg>