<svg xmlns="http://www.w3.org/2000/svg" viewBox="0 0 169.99 52.92"><defs><style>.cls-1{fill:#fff;}.cls-2{font-size:13.59px;fill:#febe10;font-family:Gilroy-ExtraBold, Gilroy;font-weight:800;}</style></defs><g id="Layer_2" data-name="Layer 2"><g id="Moving_Icons_Tickers" data-name="Moving Icons &amp; Tickers"><path class="cls-1" d="M44.09,52.92a2.83,2.83,0,0,1-2.83-2.83,2,2,0,0,1,0-.35l-3.63-2.1a2.81,2.81,0,0,1-2,.85,2.77,2.77,0,0,1-1.85-.69L30,50a.31.31,0,0,1,0,.1,2.84,2.84,0,0,1-5.67,0c0-.12,0-.23,0-.34l-3.52-2a2.83,2.83,0,1,1-2.62-4.81V39.26a2.82,2.82,0,0,1-2.15-2.75,2.64,2.64,0,0,1,0-.28l-3.62-2.09a2.8,2.8,0,0,1-1.69.57,2.85,2.85,0,0,1-1.65-.53l-3.53,2a2.88,2.88,0,0,1,.06.59A2.83,2.83,0,1,1,2.83,34a2.8,2.8,0,0,1,1.65.53l3.53-2a2.38,2.38,0,0,1-.07-.59,2.82,2.82,0,0,1,1.8-2.64V24.69A2.82,2.82,0,0,1,8,22.18L4.8,20.37a2.83,2.83,0,1,1,.86-2v.17l3,1.71a2.85,2.85,0,0,1,2.16-1,2.8,2.8,0,0,1,2.11,1l3.18-1.84a2.86,2.86,0,0,1,1.65-2.56V10.25A2.83,2.83,0,1,1,21,5.74l3.28-1.9a2.67,2.67,0,0,1-.19-1,2.83,2.83,0,1,1,5.66,0,2.75,2.75,0,0,1-.19,1l3.33,1.93A2.8,2.8,0,0,1,35,4.85a2.83,2.83,0,0,1,1.09,5.44v5.44a2.83,2.83,0,1,1-3.31,4.37l-3,1.75a1.34,1.34,0,0,1,0,.2,2.86,2.86,0,0,1-1.65,2.58v4.56A2.84,2.84,0,0,1,30,31.85l4,2.33a2.8,2.8,0,0,1,3.33.1L41.26,32v-.16a2.83,2.83,0,1,1,.85,2L38.42,36a2.7,2.7,0,0,1,0,.48,2.82,2.82,0,0,1-1.92,2.68V43a2.83,2.83,0,0,1,1.92,2.68v.1l3.78,2.18a2.83,2.83,0,1,1,1.84,5Zm0-3.81a1,1,0,1,0,1,1A1,1,0,0,0,44.09,49.11Zm-16.92,0a1,1,0,1,0,1,1A1,1,0,0,0,27.17,49.11Zm0-1.85a2.81,2.81,0,0,1,2,.84L32.83,46a2,2,0,0,1,0-.34,2.85,2.85,0,0,1,1.71-2.6v-4a2.85,2.85,0,0,1-1.71-2.6,2.74,2.74,0,0,1,.08-.64l-3.61-2.09a2.83,2.83,0,0,1-2.1.93,2.79,2.79,0,0,1-1.75-.62l-3.7,2.14a2.64,2.64,0,0,1,0,.28A2.86,2.86,0,0,1,20.26,39v4.18a2.85,2.85,0,0,1,1.48,2.48c0,.07,0,.14,0,.21L25.32,48A2.79,2.79,0,0,1,27.17,47.26Zm8.47-2.58a1,1,0,1,0,1,1A1,1,0,0,0,35.64,44.68Zm-16.74,0a1,1,0,1,0,1,1A1,1,0,0,0,18.9,44.68ZM2.83,35.83a1,1,0,1,0,1,1A1,1,0,0,0,2.83,35.83Zm32.81-.29a1,1,0,1,0,1,1A1,1,0,0,0,35.64,35.54Zm-16.74,0a1,1,0,0,0,0,2,1,1,0,1,0,0-2ZM17,34.41a2.8,2.8,0,0,1,3.58-.16l3.75-2.16c0-.07,0-.14,0-.21A2.84,2.84,0,0,1,26,29.29V24.75a2.82,2.82,0,0,1-2-2.7v0L21,20.25a2.82,2.82,0,0,1-4.17,0l-3.21,1.86a2.83,2.83,0,0,1-1.83,2.59v4.53a2.83,2.83,0,0,1,1.83,2.65,2.46,2.46,0,0,1-.06.53ZM44.09,30.9a1,1,0,1,0,1,1A1,1,0,0,0,44.09,30.9Zm-16.92,0a1,1,0,1,0,1,1A1,1,0,0,0,27.17,30.9Zm-16.39,0a1,1,0,1,0,1,1A1,1,0,0,0,10.78,30.9Zm16.11-9.83a1,1,0,1,0,1,1A1,1,0,0,0,26.89,21.07Zm-16.11,0a1,1,0,1,0,1,1A1,1,0,0,0,10.78,21.07ZM24.94,20a2.78,2.78,0,0,1,1.95-.79,2.85,2.85,0,0,1,1.95.78l3.3-1.9A2.8,2.8,0,0,1,34,15.68V10.35a2.85,2.85,0,0,1-1.87-2.64l-4-2.32a2.86,2.86,0,0,1-1.22.27,2.8,2.8,0,0,1-1.23-.28L21.74,7.65v0a2.83,2.83,0,0,1-2,2.7v5.26a2.84,2.84,0,0,1,2,2.51Zm10-2.65a1,1,0,1,0,1,1A1,1,0,0,0,35,17.36Zm-16.06,0a1,1,0,1,0,1,1A1,1,0,0,0,18.9,17.36Zm-16.07,0a1,1,0,1,0,1,1A1,1,0,0,0,2.83,17.36ZM35,6.7a1,1,0,1,0,1,1A1,1,0,0,0,35,6.7ZM18.9,6.7a1,1,0,1,0,1,1A1,1,0,0,0,18.9,6.7Zm8-4.85a1,1,0,1,0,1,1A1,1,0,0,0,26.89,1.85Z"/><text class="cls-2" transform="translate(42.92 17.12)">Nano<tspan x="0" y="14.85" xml:space="preserve">   Superhydrophobic</tspan><tspan x="0" y="29.7" xml:space="preserve">  Technology</tspan></text></g></g></svg>