<svg xmlns="http://www.w3.org/2000/svg" xmlns:xlink="http://www.w3.org/1999/xlink" viewBox="0 0 718.41 621.12"><defs><style>.cls-1,.cls-2{fill:#fff;}.cls-1,.cls-4,.cls-5{stroke:#231f20;stroke-miterlimit:10;stroke-width:1.3px;}.cls-3{clip-path:url(#clip-path);}.cls-4{fill:#d7daff;}.cls-5{fill:none;}.cls-6{font-size:28.54px;font-family:Metropolis-Medium, Metropolis;font-weight:500;letter-spacing:-0.03em;}</style><clipPath id="clip-path" transform="translate(0 0)"><path class="cls-1" d="M715.4,254.62c-10,1.74-8.45-20.07-17.54-25.1-4.25-2.35-9.93-1.33-14-3.66-4.43-2.54-14.22-13.87-15.66-18.48-3-9.62,8.72-15.85,7.61-25s-7.63-8.18-14.11-10.3c-8.48-2.76-7.45-7.75-10.92-15.41-2-4.5-5.3-8.39-7.08-12.89-2-5.07.09-5-.08-8.61-.36-7.61-5.6-6.41-6.85-13.84-.95-5.64,1.83-6,3.21-10.65,1.84-6.19,2.1-14.66,1.1-21-1.57-10-4.92-27-16-28a67.94,67.94,0,0,1-17.87-3.63c-4.5-1.49-8.26-4.77-12.52-6s-8.34,1.53-12.34,1.55c-6.52,0-13.09-2.76-18.36-5.12-9.82-4.41-10.78-1.15-18.51,3.78-5.93,3.79-11,2.89-16.1,8.1-2.91,3-9.39,9.21-11.22,12.89-1.1,2.23.35,6-.47,7.52-3.35,6.48-4.88,1.57-8.9,2.32-12.53,2.35-25.66,16.88-39,11.74-3.13-1.21-6.52-3.85-9.54-5.38-3.57-1.8-7.13-6-9.92-7.23-3.83-1.72-9.13.88-12.95-.77-4.33-1.86-4.61-6-7.5-9.56-.91-1.12-.57-2.76-1-4.13-.38-1.1-.48-2.36-.86-3.41-1.32-3.6-2.41-2-4.93-.83-1.41-1.16-2.29-2.83-3.87-3.76-1.34-.8-3.1-1.31-4.32-2.36-4.21-3.63,2.9-3.23,2.27-6.12-.43-2-6.26-.89-4.94-4.8.54-1.6,3.37-1.09,2.82-3.3-.35-1.45-4.68-4.25-5.93-4.8-2.9-1.28-4.92,1.25-7.18,3.15-3.82,3.2-6.49,6.94-9.72,10.66-1.41,1.63-3,3.92-5,4.91-2.82,1.41-6.8.42-9.71-.06-2.44-.41-5.28-.35-7.62-1.14-2.19-.74-3.54-2.48-5.26-4a49.29,49.29,0,0,1-5.08-4.82c-1.07-1.24-1.72-3-2.84-4.07a4.11,4.11,0,0,0-.73-.53,2.53,2.53,0,0,0,.73-1c-3.15-1.08-4.32-3.61-7.7-4.47-2.75-.7-4.75.3-7.49.17-9.15-.45-1.77-17.23-6.87-22.25-1.81-1.78-6.53-1.5-9.19-3.27-3.21-2.13-5.09-6.3-7.52-3.62-3.53,3.88-4.75,2.48-10.3,2.12-4.74-.32-8.27,1.41-12.6,3.77-3.71,2-6.83,5-10.51,7.07-3.44,1.89-6.41,1.77-10.36,1.51-3-.2-5.89-1.15-8.87-.47-3.35.77-6.26,3-9.74,3.57-5.2.89-15.86.21-20.05-3-2-1.56-2-4.38-4.91-5.54-2.25-.9-4.27-.1-6.56-.08-5.59,0-6.59-1.71-8.87-5.65-2.72-4.68-6.3-1.57-10.84-2.28-1.95-.3-5.48-1.77-6.36-3.58-.5-1,.69-3.15,0-4-1.82-2.31-7.37.61-9.53.91-5.59.76-11.71-1-17.2.23-5,1.09-10.3,3.73-15,5.76-7.7,3.35-17.7,11.6-26.66,9.74-3.36-.7-5-2.34-8.38-2-2.67.31-4.54,1.15-7.44,1-2.58-.1-5.14-.22-7.74-.09s-8.19-.32-5.14,4.18c1.67,2.45,5.17,1.48,7.57,3,3.18,2,2.57,2.68-1,3.68s-7-.25-9.75,2.66c1,.84,2.61,1.25,3.44,2.29-2.65,1.85-6.24.8-9.23.66-3.44-.15-7,.93-10.32.63.56-4.08-2.35-1.08-3.56-.64a17.07,17.07,0,0,1-4.26.84C71.35,34,73.29,33.77,72,33c-.11-.07-.57-1.24-.84-1.5-.49-.47-1.64-.06-2.27-.35-1.47-.68-2.74-1.57-4.4-1.31-2.85.44-8.49,5.42-10,7.57-1.2,1.77-3,5.67-3.09,7.83-.16,2.66,0,2.3,2.33,3.41s2.54-.19,4.91.23c1.74.31,2.85.28,2.68,2.61-2.61,1.07-2.14,9.73.42,10.68C60,64,58.31,63.75,58.43,66.81c.08,1.78,2.72,3.92,2.62,5.47a3.36,3.36,0,0,1-6.63.53c-3.87,1.33,4.22,6.65,5.29,7.61,1.81,1.62,4.77,2.3,3.66,5.56-.42,1.25-2,.66-2.28,1.45-.3,1,.68,1.31.58,2.07-.13,1.06-.33,3.83.1,4.72,1,2.08,3,1.37,4.27,3,2.52,3.26-1.05,1.19-1.38,3.37-.44,2.87,2.92,1.75,4.66,2,2.74.41,5.35,1.67,8.26,2-.55,2.49-2.91,2.24-4.32,3.92a21.47,21.47,0,0,0,4,3c5.15-5.37,11.21.27,16.52,1.74-.11,5.66,4.16,9.78,9.68,10.21,2.48.2,4.91-1.08,7.45-1,2.1.08,3.94,1,6.08.6.66-2.2,1.9-4.17,2.38-6.4.65-3-.11-6.2,3.33-7.13,4.84-1.3,12.13,1.86,16.25,4.07,3.91,2.1,7.56,6.51,10.42,9.69,1.12,1.24,2.63,3.72,4.31,4.46,3,1.3,6-1,8.8-1.73,5.37-1.42,11.23-.48,15.91-3.89,5.69-4.16,7.69-9.27,15.08-7.26,4.11,1.12,8.79,3.57,12.84,1.29,1.84-1,8.14-9,9.55-3,.85,3.61-5.33,6.53-5.67,9.79-.14,1.28,1.34,3.3,1.72,4.6a17,17,0,0,1,.6,3.44c-1.12,1.25-2.43,5.36-2.25,8,.16,2.45,1.73,4.34,1.64,7-.1,3.18-.47,4.08.4,7.11a53.63,53.63,0,0,1,1.37,6.43,1.21,1.21,0,0,0-.6.18c-.61.43-1,2.09-1.46,2.7-2.39,3.44-6.08,4.66-5.65,9.17.2,2.08.76,2.45-.23,4.66-1.21,2.72-2.5,5.32-3.59,8.07-1,2.43-2.18,4.69-3.21,7.05-.12.27-.31.68-.51,1.16a2.73,2.73,0,0,0-.38.38c-1.74,2.28-2.28,6.39-3,9.13-.47,1.87-1.28,3.75-1.8,5.66a18.6,18.6,0,0,0-1.55,4.57,46.12,46.12,0,0,1-4.91,11.08c-1.56,2.61-4.16,4.53-5.48,7.17-.1.2-.22.39-.33.59-1.76-.11-3.41,2.33-6.41,2.76-5.93.86-14.15.1-17.84.13-4.73,0-6.93-1.84-11.19-2.2,0,1.08-1,2.58-2.09,2.47-2.42-.84-5.48-2.67-6.74-5.62-1.11-2.57,3.29-1.83-.47-5.06-2.72-2.33-6.07.87-8.69,1.1-7.67.67-15.21,3.06-22.52,5.09-7.11,2-14.66,9.37-22.26,8.47-5-.61-8.37-5.53-13.25-7.4a121.73,121.73,0,0,1-12-4.81c-5-2.49-10-4.69-15.68-5.36-6.44-.75-12-.93-18.11-2.23-2.06-.43-4.69-.52-6.51-.87s-.62-4.3-5.13-1.51c-6.25,3.88-.36,16.15-1.66,22-1.35,6.09-4.19,7.5-2.94,14.37,4.64,25.33-3.47,124-4.28,130.59-1.12,9-1.95,18.5-2.39,27.52-.24,5.22-.9,8.71,2.91,11.62,5,3.86,19.72,4.49,26,4.67,22.12.65,44.81-3,67.1-3,6.57,0,15.53,2.47,21.47,1.64,1.67-.24,4.88-3.7,6.63-3.15,3.57,1.14.41,3.14,2.2,4.83,2.1,2,0,1.79,3.33,3.36,3.68,1.72,14.92-2,19.18-2.43,16.19-1.48,33.16-1.28,49.41-1.29,11.22,0,21.63,3.38,32.87,2.86,2.71-8.67-16.7-16.57-20.59-22.64-1.3-2-4.95-8.63-5.09-10.92-.18-3.19,1.76-2.85,2-5.13.87-7.21.26-4.79-5.34-10.38-7-7-6.28-17.42-11.3-25.47-5.41-8.68-13.86-16.52-18-25.88-2.26-5.09-2.68-11.43-4.2-16.89-2.21-8-4.58-10.25-10.17-16.33-2.47-2.68-5.37-14.37-8.1-22.9-2.3-7.18-5-11.43-1.86-13.06,3.06,3.22,2.94,7.66,4.94,11,2.9,4.88,5.59,6.87,7.54,12.72,3.19,9.57,11,18,20.56,22.56,2.92-9,3.21-14,6.74-22.73,1.46-3.61,2.69-10.86,3.33-13.39a2.54,2.54,0,0,0,0-.29,9.65,9.65,0,0,0,1,.17c.06.21.11.42.16.63-1.42,7.6-.85,16.84-2.25,23.23-.44,2-4.08,6.54-2,8.21s4.6-1.92,6.57-1.28c1.77.59,4.49,5.81,5.78,7.26a81,81,0,0,0,7.56,7.61c7.52,6.4,10.81,15.29,15.78,23.62,3.6,6,7.47,11.66,11,17.75,3.29,5.6,2.32,11.63,5,16.8,3.15,6,11.49,10,16.07,14.91,5.43,5.76,12.55,10.44,16.34,17.35,2.06,3.76,5.22,9.77,5,14.23-.17,3.83-2.4,6.38-1.29,10.39,1,3.67,3,6.54,3.07,10.84,0,3-1.65,7.08,1.35,9,6.93,4.5,6,13.12,13.9,15.43,8.28,2.43,14.33,8.79,18.35,16.44,5.16,9.79,8.21,17.69,16.36,25.25,5.38,5,10.28,11.28,14.76,16.94,3.67,4.62,7.81,9.11,11.19,13.61a7.76,7.76,0,0,1,.71,1.15c0,8.15-.05,16,.63,24.25.38,4.72,1.21,6.28,3.08,10.48,2.43,5.43,2,11.3,3.87,16.84C365.93,595,369,598,370.1,601.6c1.25,4.13-.53,7.78.16,11.88,2,12,18.41,5.42,26.71,2.83,7.75-2.42,16.61-5.21,22.85-10.65,4.86-4.24,5-5.85,11.95-7.12,11.25-2.06,21.19-5.55,30.46-13,7.66-6.15,18-3.4,26.39-11.11,3.79-3.47,4.84-8.08,9-11.52,7.3-6,18.23-10.31,26.77-14.39,6.43-3.08,14.78-7.08,18.93-13.12,2.51-3.66,3.21-8.48,6.56-11.82,9.33-9.32,12.92-9.8,12.92-9.8s-.11-.26-.16-.38c3.63-1.47,7.22-3.59,10.41-4.94,5.4-2.28,8.42-5.42,14.53-6,4.86-.47,12.33-.48,14.37-6.18,1.68-4.71-.77-8.19,3.09-12.68a23.4,23.4,0,0,1,9.48-6.73c3.21-1.22,6.9-1.14,9.44-3.84,3.23-3.44,4.67-9.53,6.45-13.59,2.85-6.49,9.23-6.85,14.69-10.19,5.85-3.58,2.55-4.13,1.14-9-1.46-5.05.58-13.68,1.14-18.9.21-1.93,4.44-11.27,5.62-5.29,6.71,1.27,8-13.52,9.41-17.4,3.63-10,12.35-17.76,11.8-29.35-.21-4.43-.88-3-4.48-4.8s-3.53-4.23-5.72-7.23c-2.43-3.34-8.54-9.4-12.63-10.41-2.86-.7-6.58.29-9.45.42-3.88.18-7.73-.13-11.55.39-8.19-2.74-14.86-5.12-20.57-11.85-7.08-8.35-6.62-13-7.12-23.86-.12-2.71.7-9.87-1.68-11.68-3.6-2.75-4.54,3.49-5.9,5.9a13.42,13.42,0,0,0-1.86,4.65c-2.2,2.32-4.39,6.75-5.26,8-1.76,2.56-2.87,5.51-4.61,8.08-2.56,3.79-6.56,6.51-9,10.13-1.26,1.87-1.11,3.7-1.66,6-.8,3.29-1.77,3.64-4.76,5.2-3.77,2-6.28,5.21-10.42,6.4a61.34,61.34,0,0,1-11,1.57c-4,.37-8.45.56-12.1,2.38-2.73,1.36-4.75,4.24-7.86,4.65-3.32.42-5-3.2-7.7-3.75-.71-1.78-.12-3.18-2.58-4.11-3.35.36-1.76-.18-3.67-2.41a4.47,4.47,0,0,0-.79-.68,15.16,15.16,0,0,0,2.8-5.26c1.25-3.68,2.19-7.13.37-10.77-.68-1.35-1.91-2.37-2.28-3.88s.26-3,.31-4.55c.09-2.47-1.16-2.71-2.52-4.4-.87-1.09-1.18-2.53-2.26-3.4-6.68-5.38-7.73,10.23-8.86,13.39-1.36,3.8.7,6.12.94,9.85a20.19,20.19,0,0,1-.52,3.65,18.85,18.85,0,0,0-1.77-2.26c-1.89-1.94-4.26-3.29-6.11-5.27-2.39-2.56-4.79-7.55-5.84-10.92-1.92-6.22,1.56-12.29-2.15-17.88-2.74-4.13-6.47-3.86-10.4-6.32s-8.93-5.64-12.05-9.22a25,25,0,0,0-4.18-3.66c-2-1.52-2.57-3.28-3.53-5.55-1.37-3.23-2.28-6.78-4.71-9.25a13.1,13.1,0,0,0-2-6.61,99.3,99.3,0,0,0-6.47-9,6.55,6.55,0,0,0-2.94-2.14c-1.29-.41-3.61.7-4.38-.66-1.5-2.65,4.22-5.39,5.87-5.79,1.12-.26,3.25.3,3.25-1.67,0-1.75-2-1.33-3-2.07a4.17,4.17,0,0,1-.38-.34,6.51,6.51,0,0,1,.8-2.49c.94-1.14,2-.66,3.13-1.27a15,15,0,0,0,6.85-1.5c3.48-2.07,3-6.39,7.36-6.1,3.74.25,3.36,5,8.13,4.62,1.73-.12,5.68-3.74,7.32-4.68,6.59,5.42,16.63,12.42,16.3,21.3,6.9,1.41,5.32,6.43,8.54,11.33,2.12,3.22,4.75,4.61,6.9,8.36s.33,4.46,4.68,6.18c2.74,1.08,6.69-.72,9.57,0,3.87,1,3.71,1.83,7,4.11,6.7,4.64,14,3.71,22.06,6.74,7.24,2.71,12.65,4.63,20.6,3.13,11.15-2.11,17.13-13.76,28.24-17.62,23.82-8.26,10.58,23.2,27.81,26.48,5,1,11.46-2,16.45-1.87,4.54.11,8.33,1.64,13,1s10.44-2.09,15.82-2.67c3.61-.39,6.55-.42,9.18-3,2.31,3,11.9,5,15.3,2.71,6.54-4.4.91-17.24,2.91-23.3,1.42-4.27,1.43-3,5.33-6,3.26-2.5,5.11-4.71,8.19-7.32,1.59-1.34,6-1.63,7-3.86C718.41,260.67,715.58,256.8,715.4,254.62Z"/></clipPath></defs><g id="Layer_2" data-name="Layer 2"><g id="Panel_5" data-name="Panel 5"><path class="cls-1" d="M156.42,146.84c-1.63,0-4.34-.12-5.77.55-.69.33-1.25,1.6-1.92,2.1-.48.36-2.76,1.24-3,1.59-1.44,2.29,1.66,5.78,4,6.78,2.14.9,4.49-.05,6.64.48,1.6.4,2.29,1.73,3.79,2.25,3.2,1.1,5.22-2.33,7.7-3.74,3.34-1.92,6.24-3.7,9.7-4.54,2.14-.52,3.09.22,2.47-2.59-.29-1.28,1.29-1.92,1.27-3.46-.05-3.26,9.77-4.64,7.91-7.58-1.06-1.68-12.16,2.94-13.83,3.51-4.19,1.42-13.61-.86-15.45,1.71C159.69,144.33,159.19,146.59,156.42,146.84Z" transform="translate(0 0)"/><path class="cls-1" d="M494.21,318.2c-1.58-.63-2.95,1.34-3.15,2.67-.21,1.49.39,3.57.62,5.08s1.27,4.41,2.8,2.16c.83-1.23.54-3.21.71-4.64a13.39,13.39,0,0,0,.37-3.27A2.79,2.79,0,0,0,494.21,318.2Z" transform="translate(0 0)"/><path class="cls-2" d="M715.4,254.62c-10,1.74-8.45-20.07-17.54-25.1-4.25-2.35-9.93-1.33-14-3.66-4.43-2.54-14.22-13.87-15.66-18.48-3-9.62,8.72-15.85,7.61-25s-7.63-8.18-14.11-10.3c-8.48-2.76-7.45-7.75-10.92-15.41-2-4.5-5.3-8.39-7.08-12.89-2-5.07.09-5-.08-8.61-.36-7.61-5.6-6.41-6.85-13.84-.95-5.64,1.83-6,3.21-10.65,1.84-6.19,2.1-14.66,1.1-21-1.57-10-4.92-27-16-28a67.94,67.94,0,0,1-17.87-3.63c-4.5-1.49-8.26-4.77-12.52-6s-8.34,1.53-12.34,1.55c-6.52,0-13.09-2.76-18.36-5.12-9.82-4.41-10.78-1.15-18.51,3.78-5.93,3.79-11,2.89-16.1,8.1-2.91,3-9.39,9.21-11.22,12.89-1.1,2.23.35,6-.47,7.52-3.35,6.48-4.88,1.57-8.9,2.32-12.53,2.35-25.66,16.88-39,11.74-3.13-1.21-6.52-3.85-9.54-5.38-3.57-1.8-7.13-6-9.92-7.23-3.83-1.72-9.13.88-12.95-.77-4.33-1.86-4.61-6-7.5-9.56-.91-1.12-.57-2.76-1-4.13-.38-1.1-.48-2.36-.86-3.41-1.32-3.6-2.41-2-4.93-.83-1.41-1.16-2.29-2.83-3.87-3.76-1.34-.8-3.1-1.31-4.32-2.36-4.21-3.63,2.9-3.23,2.27-6.12-.43-2-6.26-.89-4.94-4.8.54-1.6,3.37-1.09,2.82-3.3-.35-1.45-4.68-4.25-5.93-4.8-2.9-1.28-4.92,1.25-7.18,3.15-3.82,3.2-6.49,6.94-9.72,10.66-1.41,1.63-3,3.92-5,4.91-2.82,1.41-6.8.42-9.71-.06-2.44-.41-5.28-.35-7.62-1.14-2.19-.74-3.54-2.48-5.26-4a49.29,49.29,0,0,1-5.08-4.82c-1.07-1.24-1.72-3-2.84-4.07a4.11,4.11,0,0,0-.73-.53,2.53,2.53,0,0,0,.73-1c-3.15-1.08-4.32-3.61-7.7-4.47-2.75-.7-4.75.3-7.49.17-9.15-.45-1.77-17.23-6.87-22.25-1.81-1.78-6.53-1.5-9.19-3.27-3.21-2.13-5.09-6.3-7.52-3.62-3.53,3.88-4.75,2.48-10.3,2.12-4.74-.32-8.27,1.41-12.6,3.77-3.71,2-6.83,5-10.51,7.07-3.44,1.89-6.41,1.77-10.36,1.51-3-.2-5.89-1.15-8.87-.47-3.35.77-6.26,3-9.74,3.57-5.2.89-15.86.21-20.05-3-2-1.56-2-4.38-4.91-5.54-2.25-.9-4.27-.1-6.56-.08-5.59,0-6.59-1.71-8.87-5.65-2.72-4.68-6.3-1.57-10.84-2.28-1.95-.3-5.48-1.77-6.36-3.58-.5-1,.69-3.15,0-4-1.82-2.31-7.37.61-9.53.91-5.59.76-11.71-1-17.2.23-5,1.09-10.3,3.73-15,5.76-7.7,3.35-17.7,11.6-26.66,9.74-3.36-.7-5-2.34-8.38-2-2.67.31-4.54,1.15-7.44,1-2.58-.1-5.14-.22-7.74-.09s-8.19-.32-5.14,4.18c1.67,2.45,5.17,1.48,7.57,3,3.18,2,2.57,2.68-1,3.68s-7-.25-9.75,2.66c1,.84,2.61,1.25,3.44,2.29-2.65,1.85-6.24.8-9.23.66-3.44-.15-7,.93-10.32.63.56-4.08-2.35-1.08-3.56-.64a17.07,17.07,0,0,1-4.26.84C71.35,34,73.29,33.77,72,33c-.11-.07-.57-1.24-.84-1.5-.49-.47-1.64-.06-2.27-.35-1.47-.68-2.74-1.57-4.4-1.31-2.85.44-8.49,5.42-10,7.57-1.2,1.77-3,5.67-3.09,7.83-.16,2.66,0,2.3,2.33,3.41s2.54-.19,4.91.23c1.74.31,2.85.28,2.68,2.61-2.61,1.07-2.14,9.73.42,10.68C60,64,58.31,63.75,58.43,66.81c.08,1.78,2.72,3.92,2.62,5.47a3.36,3.36,0,0,1-6.63.53c-3.87,1.33,4.22,6.65,5.29,7.61,1.81,1.62,4.77,2.3,3.66,5.56-.42,1.25-2,.66-2.28,1.45-.3,1,.68,1.31.58,2.07-.13,1.06-.33,3.83.1,4.72,1,2.08,3,1.37,4.27,3,2.52,3.26-1.05,1.19-1.38,3.37-.44,2.87,2.92,1.75,4.66,2,2.74.41,5.35,1.67,8.26,2-.55,2.49-2.91,2.24-4.32,3.92a21.47,21.47,0,0,0,4,3c5.15-5.37,11.21.27,16.52,1.74-.11,5.66,4.16,9.78,9.68,10.21,2.48.2,4.91-1.08,7.45-1,2.1.08,3.94,1,6.08.6.66-2.2,1.9-4.17,2.38-6.4.65-3-.11-6.2,3.33-7.13,4.84-1.3,12.13,1.86,16.25,4.07,3.91,2.1,7.56,6.51,10.42,9.69,1.12,1.24,2.63,3.72,4.31,4.46,3,1.3,6-1,8.8-1.73,5.37-1.42,11.23-.48,15.91-3.89,5.69-4.16,7.69-9.27,15.08-7.26,4.11,1.12,8.79,3.57,12.84,1.29,1.84-1,8.14-9,9.55-3,.85,3.61-5.33,6.53-5.67,9.79-.14,1.28,1.34,3.3,1.72,4.6a17,17,0,0,1,.6,3.44c-1.12,1.25-2.43,5.36-2.25,8,.16,2.45,1.73,4.34,1.64,7-.1,3.18-.47,4.08.4,7.11a53.63,53.63,0,0,1,1.37,6.43,1.21,1.21,0,0,0-.6.18c-.61.43-1,2.09-1.46,2.7-2.39,3.44-6.08,4.66-5.65,9.17.2,2.08.76,2.45-.23,4.66-1.21,2.72-2.5,5.32-3.59,8.07-1,2.43-2.18,4.69-3.21,7.05-.12.27-.31.68-.51,1.16a2.73,2.73,0,0,0-.38.38c-1.74,2.28-2.28,6.39-3,9.13-.47,1.87-1.28,3.75-1.8,5.66a18.6,18.6,0,0,0-1.55,4.57,46.12,46.12,0,0,1-4.91,11.08c-1.56,2.61-4.16,4.53-5.48,7.17-.1.2-.22.39-.33.59-1.76-.11-3.41,2.33-6.41,2.76-5.93.86-14.15.1-17.84.13-4.73,0-6.93-1.84-11.19-2.2,0,1.08-1,2.58-2.09,2.47-2.42-.84-5.48-2.67-6.74-5.62-1.11-2.57,3.29-1.83-.47-5.06-2.72-2.33-6.07.87-8.69,1.1-7.67.67-15.21,3.06-22.52,5.09-7.11,2-14.66,9.37-22.26,8.47-5-.61-8.37-5.53-13.25-7.4a121.73,121.73,0,0,1-12-4.81c-5-2.49-10-4.69-15.68-5.36-6.44-.75-12-.93-18.11-2.23-2.06-.43-4.69-.52-6.51-.87s-.62-4.3-5.13-1.51c-6.25,3.88-.36,16.15-1.66,22-1.35,6.09-4.19,7.5-2.94,14.37,4.64,25.33-3.47,124-4.28,130.59-1.12,9-1.95,18.5-2.39,27.52-.24,5.22-.9,8.71,2.91,11.62,5,3.86,19.72,4.49,26,4.67,22.12.65,44.81-3,67.1-3,6.57,0,15.53,2.47,21.47,1.64,1.67-.24,4.88-3.7,6.63-3.15,3.57,1.14.41,3.14,2.2,4.83,2.1,2,0,1.79,3.33,3.36,3.68,1.72,14.92-2,19.18-2.43,16.19-1.48,33.16-1.28,49.41-1.29,11.22,0,21.63,3.38,32.87,2.86,2.71-8.67-16.7-16.57-20.59-22.64-1.3-2-4.95-8.63-5.09-10.92-.18-3.19,1.76-2.85,2-5.13.87-7.21.26-4.79-5.34-10.38-7-7-6.28-17.42-11.3-25.47-5.41-8.68-13.86-16.52-18-25.88-2.26-5.09-2.68-11.43-4.2-16.89-2.21-8-4.58-10.25-10.17-16.33-2.47-2.68-5.37-14.37-8.1-22.9-2.3-7.18-5-11.43-1.86-13.06,3.06,3.22,2.94,7.66,4.94,11,2.9,4.88,5.59,6.87,7.54,12.72,3.19,9.57,11,18,20.56,22.56,2.92-9,3.21-14,6.74-22.73,1.46-3.61,2.69-10.86,3.33-13.39a2.54,2.54,0,0,0,0-.29,9.65,9.65,0,0,0,1,.17c.06.21.11.42.16.63-1.42,7.6-.85,16.84-2.25,23.23-.44,2-4.08,6.54-2,8.21s4.6-1.92,6.57-1.28c1.77.59,4.49,5.81,5.78,7.26a81,81,0,0,0,7.56,7.61c7.52,6.4,10.81,15.29,15.78,23.62,3.6,6,7.47,11.66,11,17.75,3.29,5.6,2.32,11.63,5,16.8,3.15,6,11.49,10,16.07,14.91,5.43,5.76,12.55,10.44,16.34,17.35,2.06,3.76,5.22,9.77,5,14.23-.17,3.83-2.4,6.38-1.29,10.39,1,3.67,3,6.54,3.07,10.84,0,3-1.65,7.08,1.35,9,6.93,4.5,6,13.12,13.9,15.43,8.28,2.43,14.33,8.79,18.35,16.44,5.16,9.79,8.21,17.69,16.36,25.25,5.38,5,10.28,11.28,14.76,16.94,3.67,4.62,7.81,9.11,11.19,13.61a7.76,7.76,0,0,1,.71,1.15c0,8.15-.05,16,.63,24.25.38,4.72,1.21,6.28,3.08,10.48,2.43,5.43,2,11.3,3.87,16.84C365.93,595,369,598,370.1,601.6c1.25,4.13-.53,7.78.16,11.88,2,12,18.41,5.42,26.71,2.83,7.75-2.42,16.61-5.21,22.85-10.65,4.86-4.24,5-5.85,11.95-7.12,11.25-2.06,21.19-5.55,30.46-13,7.66-6.15,18-3.4,26.39-11.11,3.79-3.47,4.84-8.08,9-11.52,7.3-6,18.23-10.31,26.77-14.39,6.43-3.08,14.78-7.08,18.93-13.12,2.51-3.66,3.21-8.48,6.56-11.82,9.33-9.32,12.92-9.8,12.92-9.8s-.11-.26-.16-.38c3.63-1.47,7.22-3.59,10.41-4.94,5.4-2.28,8.42-5.42,14.53-6,4.86-.47,12.33-.48,14.37-6.18,1.68-4.71-.77-8.19,3.09-12.68a23.4,23.4,0,0,1,9.48-6.73c3.21-1.22,6.9-1.14,9.44-3.84,3.23-3.44,4.67-9.53,6.45-13.59,2.85-6.49,9.23-6.85,14.69-10.19,5.85-3.58,2.55-4.13,1.14-9-1.46-5.05.58-13.68,1.14-18.9.21-1.93,4.44-11.27,5.62-5.29,6.71,1.27,8-13.52,9.41-17.4,3.63-10,12.35-17.76,11.8-29.35-.21-4.43-.88-3-4.48-4.8s-3.53-4.23-5.72-7.23c-2.43-3.34-8.54-9.4-12.63-10.41-2.86-.7-6.58.29-9.45.42-3.88.18-7.73-.13-11.55.39-8.19-2.74-14.86-5.12-20.57-11.85-7.08-8.35-6.62-13-7.12-23.86-.12-2.71.7-9.87-1.68-11.68-3.6-2.75-4.54,3.49-5.9,5.9a13.42,13.42,0,0,0-1.86,4.65c-2.2,2.32-4.39,6.75-5.26,8-1.76,2.56-2.87,5.51-4.61,8.08-2.56,3.79-6.56,6.51-9,10.13-1.26,1.87-1.11,3.7-1.66,6-.8,3.29-1.77,3.64-4.76,5.2-3.77,2-6.28,5.21-10.42,6.4a61.34,61.34,0,0,1-11,1.57c-4,.37-8.45.56-12.1,2.38-2.73,1.36-4.75,4.24-7.86,4.65-3.32.42-5-3.2-7.7-3.75-.71-1.78-.12-3.18-2.58-4.11-3.35.36-1.76-.18-3.67-2.41a4.47,4.47,0,0,0-.79-.68,15.16,15.16,0,0,0,2.8-5.26c1.25-3.68,2.19-7.13.37-10.77-.68-1.35-1.91-2.37-2.28-3.88s.26-3,.31-4.55c.09-2.47-1.16-2.71-2.52-4.4-.87-1.09-1.18-2.53-2.26-3.4-6.68-5.38-7.73,10.23-8.86,13.39-1.36,3.8.7,6.12.94,9.85a20.19,20.19,0,0,1-.52,3.65,18.85,18.85,0,0,0-1.77-2.26c-1.89-1.94-4.26-3.29-6.11-5.27-2.39-2.56-4.79-7.55-5.84-10.92-1.92-6.22,1.56-12.29-2.15-17.88-2.74-4.13-6.47-3.86-10.4-6.32s-8.93-5.64-12.05-9.22a25,25,0,0,0-4.18-3.66c-2-1.52-2.57-3.28-3.53-5.55-1.37-3.23-2.28-6.78-4.71-9.25a13.1,13.1,0,0,0-2-6.61,99.3,99.3,0,0,0-6.47-9,6.55,6.55,0,0,0-2.94-2.14c-1.29-.41-3.61.7-4.38-.66-1.5-2.65,4.22-5.39,5.87-5.79,1.12-.26,3.25.3,3.25-1.67,0-1.75-2-1.33-3-2.07a4.17,4.17,0,0,1-.38-.34,6.51,6.51,0,0,1,.8-2.49c.94-1.14,2-.66,3.13-1.27a15,15,0,0,0,6.85-1.5c3.48-2.07,3-6.39,7.36-6.1,3.74.25,3.36,5,8.13,4.62,1.73-.12,5.68-3.74,7.32-4.68,6.59,5.42,16.63,12.42,16.3,21.3,6.9,1.41,5.32,6.43,8.54,11.33,2.12,3.22,4.75,4.61,6.9,8.36s.33,4.46,4.68,6.18c2.74,1.08,6.69-.72,9.57,0,3.87,1,3.71,1.83,7,4.11,6.7,4.64,14,3.71,22.06,6.74,7.24,2.71,12.65,4.63,20.6,3.13,11.15-2.11,17.13-13.76,28.24-17.62,23.82-8.26,10.58,23.2,27.81,26.48,5,1,11.46-2,16.45-1.87,4.54.11,8.33,1.64,13,1s10.44-2.09,15.82-2.67c3.61-.39,6.55-.42,9.18-3,2.31,3,11.9,5,15.3,2.71,6.54-4.4.91-17.24,2.91-23.3,1.42-4.27,1.43-3,5.33-6,3.26-2.5,5.11-4.71,8.19-7.32,1.59-1.34,6-1.63,7-3.86C718.41,260.67,715.58,256.8,715.4,254.62Z" transform="translate(0 0)"/><g class="cls-3"><path class="cls-1" d="M435.93,243.47c3.44,1.32,10.62,1.46,14-.53s3-6.39,7.36-6.1c3.74.25,3.37,5,8.13,4.62,1.73-.12,5.68-3.74,7.32-4.68,6.59,5.42,16.63,12.42,16.3,21.3,6.9,1.41,5.32,6.43,8.54,11.33,2.12,3.22,4.75,4.61,6.9,8.36s.33,4.46,4.68,6.18c2.74,1.08,6.69-.72,9.57,0,3.87,1,3.71,1.83,7,4.11,6.7,4.64,14,3.71,22.06,6.74,7.24,2.71,12.65,4.63,20.6,3.13,11.15-2.11,17.13-13.76,28.24-17.62,23.82-8.26,10.58,23.2,27.81,26.48,5,1,11.46-2,16.45-1.87,4.54.11,8.33,1.64,13,1s10.44-2.09,15.82-2.67c3.61-.39,6.55-.42,9.18-3,2.31,3,11.9,5,15.3,2.71,6.54-4.4.91-17.24,2.91-23.3,1.42-4.27,1.43-3,5.33-6,3.26-2.5,5.11-4.71,8.19-7.32,1.59-1.34,6-1.63,7-3.86.78-1.77-2-5.64-2.23-7.82-10,1.74-8.45-20.07-17.54-25.1-4.25-2.35-9.93-1.33-14-3.66-4.43-2.54-14.22-13.87-15.66-18.48-3-9.62,8.72-15.85,7.61-25s-7.63-8.18-14.11-10.3c-8.48-2.76-7.45-7.75-10.92-15.41-2-4.5-5.3-8.39-7.08-12.89-2-5.07.09-5-.08-8.61-.36-7.61-5.6-6.41-6.85-13.84-.95-5.64,1.83-6,3.21-10.65,1.84-6.19,2.1-14.66,1.1-21-1.57-10-4.92-27-16-28a67.94,67.94,0,0,1-17.87-3.63c-4.5-1.49-8.26-4.77-12.52-6s-8.34,1.53-12.34,1.55c-6.52,0-13.09-2.76-18.36-5.12-9.82-4.41-10.78-1.15-18.51,3.78-5.93,3.79-11,2.89-16.1,8.1-2.91,3-9.39,9.21-11.22,12.89-1.1,2.23.34,6-.47,7.52-3.35,6.48-4.88,1.57-8.9,2.32-12.53,2.35-25.66,16.88-39,11.74-3.13-1.21-6.52-3.85-9.54-5.38-3.57-1.8-7.13-6-9.92-7.23-3.83-1.72-9.13.88-12.95-.77-4.33-1.86-4.61-6-7.5-9.56-.91-1.12-.57-2.76-1-4.13-.38-1.1-.48-2.36-.86-3.41-1.32-3.6-2.41-2-4.93-.83-1.41-1.16-2.29-2.83-3.87-3.76-1.34-.8-3.1-1.31-4.32-2.36-4.21-3.63,2.9-3.23,2.27-6.12-.43-2-6.26-.89-4.94-4.8.54-1.6,3.37-1.09,2.82-3.3-.35-1.45-4.68-4.25-5.93-4.8-2.9-1.28-4.92,1.25-7.18,3.15-3.82,3.2-6.49,6.94-9.72,10.66-1.41,1.63-3,3.92-5,4.91-2.82,1.41-6.8.42-9.71-.06-2.44-.41-5.28-.35-7.62-1.14-2.19-.74-3.54-2.48-5.26-4a49.29,49.29,0,0,1-5.08-4.82c-1.07-1.24-1.72-3-2.84-4.07-1.36-1.31-3.3-1.29-5.19-.91-7,1.38-16,6.06-16.74,13.86a65.55,65.55,0,0,0-.11,12.76c.6,5.2.57,12.1,2.81,16.8,1.18,2.49,2.71,4.58,3.5,7.28.73,2.52,1.18,5.06,2.07,7.54a93.85,93.85,0,0,1,2.95,8.91c.47,1.92.45,5.35,1.93,6.74,6.35,5.94,9.59,18.24,13.11,25.34,5.37,10.83,9.11,22.66,15.17,33.1,7.6,13.09,16.09,26.88,25.82,38.39C412.09,224.81,427.27,231.31,435.93,243.47Z" transform="translate(0 0)"/><path class="cls-1" d="M436.79,250.68c2.74.4,2-3.66,3.13-5s2.21-.55,3.39-1.42c3.34-2.48-1.59-5.82-3.55-7.58-.88-.8-2.48-1.39-3.16-2.36-1.18-1.71-.36-4.68-1-6.6-1.16-3.26-5.24-2.73-6.57-5.6-2-4.28-1-10.9-1-15.53,0-3.7-2.62-4-5-6.55-1.88-2-3.13-4.87-5-6.79-2.05-2.11-5.82-1.36-8.63-2.72-4.11-2-6.09-4.89-10.7-5.53-1.63-.23-2.23.24-3.24-1-1.52-1.82,0-2.8-.23-4.61-.45-3.15-3.76-5.9-6.24-8s-5.57-3.92-7.12-7.1.63-4.94.4-8.42c-.11-1.69-1.48-3.79-1-5.51.14-.49,2-1.65,2.39-2.49,1-2,.45-3.67,1.92-5.59,1.13-1.48,3.16-2,4.2-3.56,2-2.85-.32-4.44-1.11-7.45s2.46-4.8.14-6.86c-1.49-1.32-5-1.22-7-2.11-3.41-1.58-6.42-2.34-8.47-5.22A130.71,130.71,0,0,1,362.49,99c-1.09-2.29-1.11-4.51-3.47-5.78-4.16-2.24-11-1-15.49-1.41-9.37-.85-18.49-1.85-27.25,2.79-7.15,3.78-11.77,10.71-16.42,17.09-7.2,9.87-14.14,20.17-20.52,30.59-7.49,12.22-15.55,23.3-18,37.57a78.91,78.91,0,0,0-.65,23.71c1.06,7.87,1.31,16.31,5,23.54,6.3,12.41,24.55,11,36.42,13.27,7.51,1.43,12.66,3.77,18.07,9,1.59,1.52,21.34,16.07,28.18,17.93,12,3.27,22.5,10.25,34.44,10.68,8.53.3,17.36-1.75,25.41-4.22,7.69-2.37,11.85-9.63,17.71-15,2.16-2,4-4.23,6.42-5.85C433.73,251.81,435.59,252,436.79,250.68Z" transform="translate(0 0)"/><path class="cls-1" d="M212.22,135.77a16.37,16.37,0,0,0-.29-8.16c-.38-1.3-1.86-3.32-1.72-4.6.34-3.26,6.52-6.18,5.67-9.79-1.41-6-7.71,2-9.55,3-4.05,2.28-8.73-.17-12.84-1.29-7.39-2-9.39,3.1-15.08,7.26-4.68,3.41-10.54,2.47-15.91,3.89-2.8.74-5.85,3-8.8,1.73-1.68-.74-3.19-3.22-4.31-4.46-2.86-3.18-6.51-7.59-10.42-9.69-4.12-2.21-11.41-5.37-16.25-4.07-3.44.93-2.68,4.13-3.33,7.13-.48,2.23-1.72,4.2-2.38,6.4-2.14.44-4-.52-6.08-.6-2.54-.09-5,1.19-7.45,1-5.52-.43-9.79-4.55-9.68-10.21-5.31-1.47-11.37-7.11-16.52-1.74a21.47,21.47,0,0,1-4-3c1.41-1.68,3.77-1.43,4.32-3.92-2.91-.37-5.52-1.63-8.26-2-1.74-.26-5.1.86-4.66-2,.33-2.18,3.9-.11,1.38-3.37-1.28-1.65-3.27-.94-4.27-3-.43-.89-.23-3.66-.1-4.72.1-.76-.88-1-.58-2.07.23-.79,1.86-.2,2.28-1.45,1.11-3.26-1.85-3.94-3.66-5.56-1.07-1-9.16-6.28-5.29-7.61a3.36,3.36,0,0,0,6.63-.53c.1-1.55-2.54-3.69-2.62-5.47C58.31,63.75,60,64,61.75,62.17c-2.56-1-3-9.61-.42-10.68.17-2.33-.94-2.3-2.68-2.61-2.37-.42-2.4.94-4.91-.23s-2.49-.75-2.33-3.41c.14-2.16,1.89-6.06,3.09-7.83,1.46-2.15,7.1-7.13,10-7.57,1.66-.26,2.93.63,4.4,1.31.63.29,1.78-.11,2.27.35.27.26.73,1.43.84,1.5,1.33.77-.61,1,1.85,1.47a17.07,17.07,0,0,0,4.26-.84c1.21-.44,4.12-3.44,3.56.64,3.3.3,6.88-.78,10.32-.63,3,.14,6.58,1.19,9.23-.66-.83-1-2.46-1.45-3.44-2.29,2.75-2.91,6.14-1.65,9.75-2.66s4.14-1.63,1-3.68c-2.4-1.54-5.9-.57-7.57-3-3-4.5,2.39-4,5.14-4.18s5.16,0,7.74.09c2.9.12,4.77-.72,7.44-1,3.39-.38,5,1.26,8.38,2,9,1.86,19-6.39,26.66-9.74,4.68-2,10-4.67,15-5.76,5.49-1.21,11.61.54,17.2-.23,2.16-.3,7.71-3.22,9.53-.91.7.9-.49,3,0,4.05.88,1.81,4.41,3.28,6.36,3.58,4.54.71,8.12-2.4,10.84,2.28,2.28,3.94,3.28,5.69,8.87,5.65,2.29,0,4.31-.82,6.56.08,2.91,1.16,2.88,4,4.91,5.54,4.19,3.24,14.85,3.92,20.05,3,3.48-.6,6.39-2.8,9.74-3.57,3-.68,5.9.27,8.87.47,3.95.26,6.92.38,10.36-1.51,3.68-2,6.8-5,10.51-7.07,4.33-2.36,7.86-4.09,12.6-3.77,5.55.36,6.77,1.76,10.3-2.12,2.43-2.68,4.31,1.49,7.52,3.62,2.66,1.77,7.38,1.49,9.19,3.27,5.1,5-2.28,21.8,6.87,22.25,2.74.13,4.74-.87,7.49-.17,3.38.86,4.55,3.39,7.7,4.47-.84,2-4.11,2-5.23,4-.89,1.56.32,3.64-1,5.07-2,2.18-3.62-.3-4,3.28s2.29,2.41,3.35,4.57c.88,1.81,0,4.6,1,6.71,1.13,2.39,1.86,4.63,2.81,6.9.42,1,1.62.61,1.76,2,.17,1.67-1,1.78-1.51,3-.94,2.22-.94,3.91-1.36,6.27a18.62,18.62,0,0,1,3.45-.27c.72,2.31,1.13,5.31,2.15,7.35s6.11,3.44,5.37,5.74c-.4,1.28-3.77,1.33-4.6,1.8s-2.29,2.76-3,3c-3.26.92-2-2.91-2.17-4.92-3.16-.47-4.14,1.15-7.06,1.78a25.58,25.58,0,0,1-6.81-.15c-2.9-.3-5.24-.9-8.24-.33-3.7.71-6.06,3-9.31,4.71-3.73,2-7.5,3.25-10.8,5.87-6,4.81-12.65,7.22-19.62,10.63-9.57,4.67-20.39,10-30.89,12.09-11,2.19-21.54,1.14-32.42,4.83-3.74,1.26-6.1,2.32-10.05,2.31C216,137.76,214.57,135.5,212.22,135.77Z" transform="translate(0 0)"/><path class="cls-1" d="M555.2,515c5.93.26,12.45-4.27,17.84-6.55s8.42-5.42,14.53-6c4.86-.47,12.33-.48,14.37-6.18,1.68-4.71-.77-8.19,3.09-12.68a23.4,23.4,0,0,1,9.48-6.73c3.21-1.22,6.9-1.14,9.44-3.84,3.23-3.44,4.67-9.53,6.45-13.59,2.85-6.49,9.23-6.85,14.69-10.19,5.85-3.58,2.55-4.13,1.14-9-1.46-5.05.58-13.68,1.14-18.9.21-1.93,4.44-11.27,5.62-5.29,6.71,1.27,8-13.52,9.41-17.4,3.63-10,12.35-17.76,11.8-29.35-.21-4.43-.88-3-4.48-4.8s-3.53-4.23-5.72-7.23c-2.43-3.34-8.54-9.4-12.63-10.41-2.86-.7-6.58.29-9.45.42-3.88.18-7.73-.13-11.55.39-8.19-2.74-14.86-5.12-20.57-11.85-7.08-8.35-6.62-13-7.12-23.86-.12-2.71.7-9.87-1.68-11.68-3.6-2.75-4.54,3.49-5.9,5.9-2,3.57-1.88,4.38-2.31,8.67-.6,6.08-3.1,10.79-5.83,16.12-11.5,22.42-3.93,49.43-18.21,71.28-6,9.15-14.66,15.64-23.49,21.72-8.21,5.65-17.24,13.39-19.77,23.44-2.07,8.22-1.5,14.91.34,22.88,1,4.36,2.55,19.13,6,22.19C538.32,498.16,545,514.58,555.2,515Z" transform="translate(0 0)"/><path class="cls-1" d="M357.1,531.26c0,11.29-.31,21.47.6,32.53.38,4.72,1.21,6.28,3.08,10.48,2.43,5.43,2,11.3,3.87,16.84C365.93,595,369,598,370.1,601.6c1.25,4.13-.53,7.78.16,11.88,2,12,18.41,5.42,26.71,2.83,7.75-2.42,16.61-5.21,22.85-10.65,4.86-4.24,5-5.85,11.95-7.12,11.25-2.06,21.19-5.55,30.46-13,7.66-6.15,18-3.4,26.39-11.11,3.79-3.47,4.84-8.08,9-11.52,7.3-6,18.23-10.31,26.77-14.39,6.43-3.08,14.78-7.08,18.93-13.12,2.51-3.66,3.21-8.48,6.56-11.82,9.33-9.32,12.92-9.8,12.92-9.8-1.52-4.15-9.2-14.57-12.17-21.87C547,483,543.83,480,539.81,471.17c-4.66-10.26-1.94-17.9-16.4-15.68-22.47,3.45-42,18.33-64.11,23.65-24.17,5.81-47.62,13.44-71.19,21.38-10.58,3.56-25,10.71-30,21.28C357.07,524.08,357.1,529,357.1,531.26Z" transform="translate(0 0)"/><path class="cls-1" d="M502.64,352.16c-1.2-1.22-2.49-2.18-2.78-4s.62-3.26.51-5c-.24-3.73-2.3-6.05-.94-9.85,1.13-3.16,2.18-18.77,8.86-13.39,1.08.87,1.39,2.31,2.26,3.4,1.36,1.69,2.61,1.93,2.52,4.4-.05,1.51-.69,3-.31,4.55s1.6,2.53,2.28,3.88c1.82,3.64.88,7.09-.37,10.77-.74,2.17-2,5.25-4.14,6.31a5.78,5.78,0,0,1-5.08.34C504.43,353.08,502,352.69,502.64,352.16Z" transform="translate(0 0)"/><path class="cls-1" d="M449.1,284.52c0-4.77.8-10.62-2-14.61a99.3,99.3,0,0,0-6.47-9,6.55,6.55,0,0,0-2.94-2.14c-1.29-.41-3.61.7-4.38-.66-1.5-2.65,4.22-5.39,5.87-5.79,1.12-.26,3.25.3,3.25-1.67,0-1.75-2-1.33-3-2.07-1.35-1-1.27-2.52-2.28-3.6-1.63-1.74-3.55-.72-5.82-.79-3.24-.1-5.64-1.78-8.28.78-3.46,3.36-3.84,8.83-5.81,13-1.62,3.43-5,6.79-5.9,10.47-.69,2.74,1.54,6.57,3.23,8.68,5.58,7,17.06,1.81,24.56,5.22C441.73,283.46,447,286.75,449.1,284.52Z" transform="translate(0 0)"/><path class="cls-4" d="M197.39,261.61c-6.1,7.47-3.9,23-6,32.4-.44,2-4.08,6.54-2,8.21s4.6-1.92,6.57-1.28c1.77.59,4.49,5.81,5.78,7.26a81,81,0,0,0,7.56,7.61c7.52,6.4,10.81,15.29,15.78,23.62,3.6,6,7.47,11.66,11,17.75,3.29,5.6,2.32,11.63,5,16.8,3.15,6,11.49,10,16.07,14.91,5.43,5.76,12.55,10.44,16.34,17.35,2.06,3.76,5.22,9.77,5,14.23-.17,3.83-2.4,6.38-1.29,10.39,1,3.67,3,6.54,3.07,10.84,0,3-1.65,7.08,1.35,9,6.93,4.5,6,13.12,13.9,15.43,8.28,2.43,14.33,8.79,18.35,16.44,5.16,9.79,8.21,17.69,16.36,25.25,5.38,5,10.28,11.28,14.76,16.94,3.67,4.62,7.81,9.11,11.19,13.61,1.84,2.44,1.63,5.66,5.17,5.27,1.67-.18,4.6-4.55,4.77-6.09.54-5.12-6.43-9.4.83-13.89,2.39-1.47,4.92-1.2,7.79-1.12,1.34,0,2.36,1.35,3.72,1.07,3.38-.69,5.56-4.66,8.89-5.69,5-1.56,9.85,1.81,15,1.86,3.48,0,6.54.56,9.92.55,9.06,0,16-4.75,24.57,1,3.35,2.23,2,3.43,6.65,2.92,6.25-.69,6.8-5,8.86-9.81,5.18-12,14.23-23.43,26.56-28.44,27.68-11.25,57.75-18.68,84-33,6.26-3.41,11.22-7.69,17.94-10.34,5.24-2.07,12.27-2.65,14.75-8.49,2.08-4.91.83-11.93,1-17.17.31-7.13,1.59-13.53,2.66-20.48,1-6.69-2.5-14.24-9.95-15.68-4.65-.9-11,.87-15.93.62-5.87-.3-11.91-.21-17.73-.48-9-.42-15.57.74-22.25-5.56-5-4.66-10.52-9.43-14.29-15.11-1.48-2.22-.19-3.93-3.06-5-3.35.36-1.76-.18-3.67-2.41-2.34-2.7-5.73-.8-8.59-1.89s-4.05-4.42-6-6.42-4.26-3.29-6.11-5.27c-2.39-2.56-4.79-7.55-5.84-10.92-1.92-6.22,1.56-12.29-2.15-17.88-2.74-4.13-6.47-3.86-10.4-6.32s-8.93-5.64-12.05-9.22a25,25,0,0,0-4.18-3.66c-2-1.52-2.57-3.28-3.53-5.55-1.55-3.65-2.5-7.71-5.72-10.15-3.44,0-14.66,2.4-17.37.75-5.42-3.29,1.4-8.79-6.65-10-14.1-2.2-30.09-.52-44.4-.51s-22.55-5.65-33-14.79c-8.9-7.77-18.77-14.51-28.47-21.24-7.2-5-15.38-11.62-24-13.68-10.53-2.52-22.68-4.1-33.45-3.05-15.84,1.54-33.76,9.88-42.8,23.54-6.43,9.72-10.58,19.76-21,25.81C196.94,263.49,196.83,261.53,197.39,261.61Z" transform="translate(0 0)"/><path class="cls-1" d="M192.24,263.49c-.14,3.88,2.15,7.49,1.89,10.95,3.63.28,7-.66,10.67.11s6.29,2.28,10.07,1.05c8.38-2.73,10.79-12.46,19.32-14.31,3.8-.82,6.27-1,8.49-4.61.95-1.53,1.1-3.14,2.34-4.48,1.44-1.55,4.25-2.26,5.86-3.88,4.06-4.07-.89-3.86-4.17-6.37a41.92,41.92,0,0,1-8.26-9c-1.56-2.1-4.2-4.16-2.61-6.49,1.1-1.62,3.54-1.53,5.14-1.86a60.48,60.48,0,0,0,9.93-2.85c2.53-1,25.37-7.16,23.84-11.83-.63-1.92-3.72-.72-4.79-3.2-.94-2.18.64-4.14.73-6.21.21-4.55-2.32-9.15-3.59-13.38-.62-2.06-.6-5.11-1.89-6.88-2.49-3.44-7.21-1.72-10.62-.05-6.91,3.38-12.15,6.85-19.82,8.08-6.85,1.09-14.6.85-20.91,3.9a21.2,21.2,0,0,0-11.06,11.44c-3.14,7.45-7.12,16.59-8.08,24.52C193,242.57,188,256.07,192.24,263.49Z" transform="translate(0 0)"/><path class="cls-1" d="M205.73,199.08c1.7,1.36,3.8.45,5.53,1.31s1.11,2,2.36,3.5c1.51,1.79,5.46,2.29,7.9,3.19,3.06,1.13,6.46,2.13,9.46.64,2.71-1.35,4.94-4.25,7.31-6.11,3.62-2.84,7.92-4.83,11.72-7.47,4-2.76,7.3-6.29,11.42-8.83,4.9-3,10-5.84,15-8.6A197,197,0,0,0,296,164.54c4.05-2.91,6.67-5.35,8.64-9.95,2.37-5.51-.68-8.84.14-14.33.34-2.35,1.76-4.31,1.95-6.69s-.74-3.39-1.56-5.52c-1-2.68-1.49-9.34.9-11.67,1.34-1.29,3.39-1,4.91-1.68,2-.85,3.47-2.73,4.94-4.31,1.26-1.37,8.62-9.34,4-10.66-1.69-.49-6.32,2.89-8.07,3.56a25,25,0,0,1-7.7,1.95c-2.55,0-4.93-.91-7.48-1-3.72-.1-6.56,1.64-9.89,3.26-7.47,3.63-13.4,8.31-21.83,7.89-1.95-.09-3.16.06-4.79-1s-2.58-3.23-4.48-4.1c-5.55-2.53-11.21,1.92-15.87,4.32-5.51,2.84-5.9-.34-10.45-1.92s-6.27,3.9-6,7.81c.15,2.65,1.7,1.71-.66,3.9-.66.61-1.79-.09-2.36.55s.2,2-.2,2.72c-1.07,2-2.67,2.44-3,5.15-2.1,1.09-2.57-2-4.52-1.87-1.12,1.22-2.45,5.37-2.27,8,.16,2.45,1.73,4.34,1.64,7-.1,3.18-.47,4.08.4,7.11a55.15,55.15,0,0,1,1.39,6.52c.39,2.4.49,4.66.72,7.16.51,5.29-1.29,7-3.25,11.74-.65,1.56-.71,3.3-1.48,4.8-1.33,2.57-5.09,4.49-5.84,7.3C203.05,193.72,205.65,196.88,205.73,199.08Z" transform="translate(0 0)"/><path class="cls-1" d="M201.28,196.12c4.18-1.39,8.72-7.23,10.89-11.05a16.77,16.77,0,0,0,1.84-3.33c.33-1.12,0-2.2.44-3.31.94-2.35,3.79-3.1,5.18-5.42,1.25-2.1,3.57-3.74,4.6-5.87,1-2-.62-3-2.25-4.18-.83-.59-2.2-1-2.63-2-.5-1.16.64-1.93-.86-2.49-1.16-.44-2.36.72-3.42,1-.67.19-1.46-.09-2,.27s-1,2.09-1.46,2.7c-2.39,3.44-6.08,4.66-5.65,9.17.2,2.08.76,2.45-.23,4.66-1.21,2.72-2.5,5.32-3.59,8.07-1,2.43-2.18,4.69-3.21,7.05-.51,1.17-2.21,4.75-1.57,6.08C198.56,200,200.69,196.44,201.28,196.12Z" transform="translate(0 0)"/><path class="cls-1" d="M192.81,210.52c.11-2.85,1.58-5.67,2.28-8.45s1.23-6.85,3-9.13,4.67-1,6.89-2.3c1.88-1.11,2.82-4.78,5.3-4.83,2.26-.05,2.3,6,2.46,7.81.35,4.15-2.87,4.37-5,7.17-2,2.54-1.64,6.49-1.9,9.54-.21,2.56.31,7.34-1.72,9.27-1.29,1.23-4.09,1.52-5.74,1.36-2.28-.22-3.34-1.51-4.15-3.66C193,214.13,193.79,211,192.81,210.52Z" transform="translate(0 0)"/><path class="cls-1" d="M191.6,269.73c.48.18,3,.85,3.77.18s.44-3.31.58-4.31a36.35,36.35,0,0,1,1.57-6.18,69.54,69.54,0,0,0,1.58-8.62c.41-2.28,0-4.68,1-6.76s2.49-3.9,2.91-6.28c.35-2,0-4.08.15-6.09.05-1,.63-3.1.05-4-1-1.62-3.43,0-4.67.45-1.42.48-2.72,0-4.16.08a5.27,5.27,0,0,1,1.4-3.6c.85-1,3.22-1.78,3.74-2.85,1.07-2.18-2.32-2.12-3.12-3.29s-.35-4.09-.31-5.47,0-4.48-1.09-5.56c-1.9-1.83-2.92,3.83-3.24,4.92a46.12,46.12,0,0,1-4.91,11.08c-1.56,2.61-4.16,4.53-5.48,7.17-1.21,2.41-3.57,4.83-4.26,7.43-.81,3.06,1.09,8,1.92,10.84,1.19,4.1,1.64,8.36,2.86,12.47.54,1.84.49,4.67,2.18,5.86C185.91,268.47,189.26,269.32,191.6,269.73Z" transform="translate(0 0)"/><path class="cls-1" d="M195,215.52c.39-1.34,1.83-2,2.46-3.21.44-.85.62-1.84,1.11-2.65,1.81-3,4.85-.31,6.44,1.31,1.34,1.36,1.12,2.4,1,4.26-.09,2.66-.15,5.31-.28,8-.1,2.25-.18,4.13-1.4,6.09a8.2,8.2,0,0,1-2.81,2.23c-1.15.76-2.41,1.87-3.89,1.68s-3.81-1.37-4-2.95c-.15-1.27.63-2.56.77-3.83.19-1.6.28-3.24.45-4.85a24.2,24.2,0,0,0,.47-4.15A12.25,12.25,0,0,0,195,215.52Z" transform="translate(0 0)"/><path class="cls-1" d="M82.81,238.28c-5-.61-8.37-5.53-13.25-7.4a121.73,121.73,0,0,1-12-4.81c-5-2.49-10-4.69-15.68-5.36-6.44-.75-12-.93-18.11-2.23-2.06-.43-4.69-.52-6.51-.87s-.62-4.3-5.13-1.51c-6.25,3.88-.36,16.15-1.66,22-1.35,6.09-4.19,7.5-2.94,14.37,4.64,25.33-3.47,124-4.28,130.59-1.12,9-1.95,18.5-2.39,27.52-.24,5.22-.9,8.71,2.91,11.62,5,3.86,19.72,4.49,26,4.67,22.12.65,44.81-3,67.1-3,6.57,0,15.53,2.47,21.47,1.64,1.67-.24,4.88-3.7,6.63-3.15,3.57,1.14.41,3.14,2.2,4.83,2.1,2,0,1.79,3.33,3.36,3.68,1.72,14.92-2,19.18-2.43,16.19-1.48,33.16-1.28,49.41-1.29,11.22,0,21.63,3.38,32.87,2.86,2.71-8.67-16.7-16.57-20.59-22.64-1.3-2-4.95-8.63-5.09-10.92-.18-3.19,1.76-2.85,2-5.13.87-7.21.26-4.79-5.34-10.38-7-7-6.28-17.42-11.3-25.47-5.41-8.68-13.86-16.52-18-25.88-2.26-5.09-2.68-11.43-4.2-16.89-2.21-8-4.58-10.25-10.17-16.33-2.47-2.68-5.37-14.37-8.1-22.9-2.3-7.18-5-11.43-1.86-13.06,3.06,3.22,2.94,7.66,4.94,11,2.9,4.88,5.59,6.87,7.54,12.72,3.19,9.57,11,18,20.56,22.56,2.92-9,3.21-14,6.74-22.73,1.46-3.61,2.69-10.86,3.33-13.39.57-2.3-1-9.73-4.46-19.94-2.36-6.91-6.83-19.19-6.83-19.19-1.82-.29-3.47,2.32-6.57,2.76-5.93.86-14.15.1-17.84.13-4.73,0-6.93-1.84-11.19-2.2,0,1.08-1,2.58-2.09,2.47-2.42-.84-5.48-2.67-6.74-5.62-1.11-2.57,3.29-1.83-.47-5.06-2.72-2.33-6.07.87-8.69,1.1-7.67.67-15.21,3.06-22.52,5.09C98,231.79,90.41,239.18,82.81,238.28Z" transform="translate(0 0)"/><path class="cls-1" d="M515.75,360.22c4.83-3.23,6.4,3.52,10.86,2.95,3.11-.41,5.13-3.29,7.86-4.65,3.65-1.82,8.11-2,12.1-2.38a61.34,61.34,0,0,0,11-1.57c4.14-1.19,6.65-4.43,10.42-6.4,3-1.56,4-1.91,4.76-5.2.55-2.25.4-4.08,1.66-6,2.44-3.62,6.44-6.34,9-10.13,1.74-2.57,2.85-5.52,4.61-8.08,1.27-1.83,5.38-10.46,8.17-9.35,1.38.55,1.11,3.39,1.89,4.3,1.06,1.21,2.27.95,3.2,2.52,1.88,3.18,2.94,9.86,1.06,13.06-1.36,2.31-2.55,3.41-5,2.84s-3.76-3-4,1.62c-.11,2.05-.13,8.94.88,10.56,1.28,2.05,5.36.27,4.37,4.06-4.81.85-7.11,3.84-7.59,8.32-.85,7.8-2.21,14.79-1.48,22.82.43,4.72.34,7-4.69,9-8.6,3.49-18.78,1.71-27.65.59-7.31-.93-16.38-1.42-22.84-5.56-3.2-2-5.35-5.28-7.81-8.12A120.79,120.79,0,0,1,515.75,360.22Z" transform="translate(0 0)"/></g><path class="cls-5" d="M715.4,254.62c-10,1.74-8.45-20.07-17.54-25.1-4.25-2.35-9.93-1.33-14-3.66-4.43-2.54-14.22-13.87-15.66-18.48-3-9.62,8.72-15.85,7.61-25s-7.63-8.18-14.11-10.3c-8.48-2.76-7.45-7.75-10.92-15.41-2-4.5-5.3-8.39-7.08-12.89-2-5.07.09-5-.08-8.61-.36-7.61-5.6-6.41-6.85-13.84-.95-5.64,1.83-6,3.21-10.65,1.84-6.19,2.1-14.66,1.1-21-1.57-10-4.92-27-16-28a67.94,67.94,0,0,1-17.87-3.63c-4.5-1.49-8.26-4.77-12.52-6s-8.34,1.53-12.34,1.55c-6.52,0-13.09-2.76-18.36-5.12-9.82-4.41-10.78-1.15-18.51,3.78-5.93,3.79-11,2.89-16.1,8.1-2.91,3-9.39,9.21-11.22,12.89-1.1,2.23.35,6-.47,7.52-3.35,6.48-4.88,1.57-8.9,2.32-12.53,2.35-25.66,16.88-39,11.74-3.13-1.21-6.52-3.85-9.54-5.38-3.57-1.8-7.13-6-9.92-7.23-3.83-1.72-9.13.88-12.95-.77-4.33-1.86-4.61-6-7.5-9.56-.91-1.12-.57-2.76-1-4.13-.38-1.1-.48-2.36-.86-3.41-1.32-3.6-2.41-2-4.93-.83-1.41-1.16-2.29-2.83-3.87-3.76-1.34-.8-3.1-1.31-4.32-2.36-4.21-3.63,2.9-3.23,2.27-6.12-.43-2-6.26-.89-4.94-4.8.54-1.6,3.37-1.09,2.82-3.3-.35-1.45-4.68-4.25-5.93-4.8-2.9-1.28-4.92,1.25-7.18,3.15-3.82,3.2-6.49,6.94-9.72,10.66-1.41,1.63-3,3.92-5,4.91-2.82,1.41-6.8.42-9.71-.06-2.44-.41-5.28-.35-7.62-1.14-2.19-.74-3.54-2.48-5.26-4a49.29,49.29,0,0,1-5.08-4.82c-1.07-1.24-1.72-3-2.84-4.07a4.11,4.11,0,0,0-.73-.53,2.53,2.53,0,0,0,.73-1c-3.15-1.08-4.32-3.61-7.7-4.47-2.75-.7-4.75.3-7.49.17-9.15-.45-1.77-17.23-6.87-22.25-1.81-1.78-6.53-1.5-9.19-3.27-3.21-2.13-5.09-6.3-7.52-3.62-3.53,3.88-4.75,2.48-10.3,2.12-4.74-.32-8.27,1.41-12.6,3.77-3.71,2-6.83,5-10.51,7.07-3.44,1.89-6.41,1.77-10.36,1.51-3-.2-5.89-1.15-8.87-.47-3.35.77-6.26,3-9.74,3.57-5.2.89-15.86.21-20.05-3-2-1.56-2-4.38-4.91-5.54-2.25-.9-4.27-.1-6.56-.08-5.59,0-6.59-1.71-8.87-5.65-2.72-4.68-6.3-1.57-10.84-2.28-1.95-.3-5.48-1.77-6.36-3.58-.5-1,.69-3.15,0-4-1.82-2.31-7.37.61-9.53.91-5.59.76-11.71-1-17.2.23-5,1.09-10.3,3.73-15,5.76-7.7,3.35-17.7,11.6-26.66,9.74-3.36-.7-5-2.34-8.38-2-2.67.31-4.54,1.15-7.44,1-2.58-.1-5.14-.22-7.74-.09s-8.19-.32-5.14,4.18c1.67,2.45,5.17,1.48,7.57,3,3.18,2,2.57,2.68-1,3.68s-7-.25-9.75,2.66c1,.84,2.61,1.25,3.44,2.29-2.65,1.85-6.24.8-9.23.66-3.44-.15-7,.93-10.32.63.56-4.08-2.35-1.08-3.56-.64a17.07,17.07,0,0,1-4.26.84C71.35,34,73.29,33.77,72,33c-.11-.07-.57-1.24-.84-1.5-.49-.47-1.64-.06-2.27-.35-1.47-.68-2.74-1.57-4.4-1.31-2.85.44-8.49,5.42-10,7.57-1.2,1.77-3,5.67-3.09,7.83-.16,2.66,0,2.3,2.33,3.41s2.54-.19,4.91.23c1.74.31,2.85.28,2.68,2.61-2.61,1.07-2.14,9.73.42,10.68C60,64,58.31,63.75,58.43,66.81c.08,1.78,2.72,3.92,2.62,5.47a3.36,3.36,0,0,1-6.63.53c-3.87,1.33,4.22,6.65,5.29,7.61,1.81,1.62,4.77,2.3,3.66,5.56-.42,1.25-2,.66-2.28,1.45-.3,1,.68,1.31.58,2.07-.13,1.06-.33,3.83.1,4.72,1,2.08,3,1.37,4.27,3,2.52,3.26-1.05,1.19-1.38,3.37-.44,2.87,2.92,1.75,4.66,2,2.74.41,5.35,1.67,8.26,2-.55,2.49-2.91,2.24-4.32,3.92a21.47,21.47,0,0,0,4,3c5.15-5.37,11.21.27,16.52,1.74-.11,5.66,4.16,9.78,9.68,10.21,2.48.2,4.91-1.08,7.45-1,2.1.08,3.94,1,6.08.6.66-2.2,1.9-4.17,2.38-6.4.65-3-.11-6.2,3.33-7.13,4.84-1.3,12.13,1.86,16.25,4.07,3.91,2.1,7.56,6.51,10.42,9.69,1.12,1.24,2.63,3.72,4.31,4.46,3,1.3,6-1,8.8-1.73,5.37-1.42,11.23-.48,15.91-3.89,5.69-4.16,7.69-9.27,15.08-7.26,4.11,1.12,8.79,3.57,12.84,1.29,1.84-1,8.14-9,9.55-3,.85,3.61-5.33,6.53-5.67,9.79-.14,1.28,1.34,3.3,1.72,4.6a17,17,0,0,1,.6,3.44c-1.12,1.25-2.43,5.36-2.25,8,.16,2.45,1.73,4.34,1.64,7-.1,3.18-.47,4.08.4,7.11a53.63,53.63,0,0,1,1.37,6.43,1.21,1.21,0,0,0-.6.18c-.61.43-1,2.09-1.46,2.7-2.39,3.44-6.08,4.66-5.65,9.17.2,2.08.76,2.45-.23,4.66-1.21,2.72-2.5,5.32-3.59,8.07-1,2.43-2.18,4.69-3.21,7.05-.12.27-.31.68-.51,1.16a2.73,2.73,0,0,0-.38.38c-1.74,2.28-2.28,6.39-3,9.13-.47,1.87-1.28,3.75-1.8,5.66a18.6,18.6,0,0,0-1.55,4.57,46.12,46.12,0,0,1-4.91,11.08c-1.56,2.61-4.16,4.53-5.48,7.17-.1.2-.22.39-.33.59-1.76-.11-3.41,2.33-6.41,2.76-5.93.86-14.15.1-17.84.13-4.73,0-6.93-1.84-11.19-2.2,0,1.08-1,2.58-2.09,2.47-2.42-.84-5.48-2.67-6.74-5.62-1.11-2.57,3.29-1.83-.47-5.06-2.72-2.33-6.07.87-8.69,1.1-7.67.67-15.21,3.06-22.52,5.09-7.11,2-14.66,9.37-22.26,8.47-5-.61-8.37-5.53-13.25-7.4a121.73,121.73,0,0,1-12-4.81c-5-2.49-10-4.69-15.68-5.36-6.44-.75-12-.93-18.11-2.23-2.06-.43-4.69-.52-6.51-.87s-.62-4.3-5.13-1.51c-6.25,3.88-.36,16.15-1.66,22-1.35,6.09-4.19,7.5-2.94,14.37,4.64,25.33-3.47,124-4.28,130.59-1.12,9-1.95,18.5-2.39,27.52-.24,5.22-.9,8.71,2.91,11.62,5,3.86,19.72,4.49,26,4.67,22.12.65,44.81-3,67.1-3,6.57,0,15.53,2.47,21.47,1.64,1.67-.24,4.88-3.7,6.63-3.15,3.57,1.14.41,3.14,2.2,4.83,2.1,2,0,1.79,3.33,3.36,3.68,1.72,14.92-2,19.18-2.43,16.19-1.48,33.16-1.28,49.41-1.29,11.22,0,21.63,3.38,32.87,2.86,2.71-8.67-16.7-16.57-20.59-22.64-1.3-2-4.95-8.63-5.09-10.92-.18-3.19,1.76-2.85,2-5.13.87-7.21.26-4.79-5.34-10.38-7-7-6.28-17.42-11.3-25.47-5.41-8.68-13.86-16.52-18-25.88-2.26-5.09-2.68-11.43-4.2-16.89-2.21-8-4.58-10.25-10.17-16.33-2.47-2.68-5.37-14.37-8.1-22.9-2.3-7.18-5-11.43-1.86-13.06,3.06,3.22,2.94,7.66,4.94,11,2.9,4.88,5.59,6.87,7.54,12.72,3.19,9.57,11,18,20.56,22.56,2.92-9,3.21-14,6.74-22.73,1.46-3.61,2.69-10.86,3.33-13.39a2.54,2.54,0,0,0,0-.29,9.65,9.65,0,0,0,1,.17c.06.21.11.42.16.63-1.42,7.6-.85,16.84-2.25,23.23-.44,2-4.08,6.54-2,8.21s4.6-1.92,6.57-1.28c1.77.59,4.49,5.81,5.78,7.26a81,81,0,0,0,7.56,7.61c7.52,6.4,10.81,15.29,15.78,23.62,3.6,6,7.47,11.66,11,17.75,3.29,5.6,2.32,11.63,5,16.8,3.15,6,11.49,10,16.07,14.91,5.43,5.76,12.55,10.44,16.34,17.35,2.06,3.76,5.22,9.77,5,14.23-.17,3.83-2.4,6.38-1.29,10.39,1,3.67,3,6.54,3.07,10.84,0,3-1.65,7.08,1.35,9,6.93,4.5,6,13.12,13.9,15.43,8.28,2.43,14.33,8.79,18.35,16.44,5.16,9.79,8.21,17.69,16.36,25.25,5.38,5,10.28,11.28,14.76,16.94,3.67,4.62,7.81,9.11,11.19,13.61a7.76,7.76,0,0,1,.71,1.15c0,8.15-.05,16,.63,24.25.38,4.72,1.21,6.28,3.08,10.48,2.43,5.43,2,11.3,3.87,16.84C365.93,595,369,598,370.1,601.6c1.25,4.13-.53,7.78.16,11.88,2,12,18.41,5.42,26.71,2.83,7.75-2.42,16.61-5.21,22.85-10.65,4.86-4.24,5-5.85,11.95-7.12,11.25-2.06,21.19-5.55,30.46-13,7.66-6.15,18-3.4,26.39-11.11,3.79-3.47,4.84-8.08,9-11.52,7.3-6,18.23-10.31,26.77-14.39,6.43-3.08,14.78-7.08,18.93-13.12,2.51-3.66,3.21-8.48,6.56-11.82,9.33-9.32,12.92-9.8,12.92-9.8s-.11-.26-.16-.38c3.63-1.47,7.22-3.59,10.41-4.94,5.4-2.28,8.42-5.42,14.53-6,4.86-.47,12.33-.48,14.37-6.18,1.68-4.71-.77-8.19,3.09-12.68a23.4,23.4,0,0,1,9.48-6.73c3.21-1.22,6.9-1.14,9.44-3.84,3.23-3.44,4.67-9.53,6.45-13.59,2.85-6.49,9.23-6.85,14.69-10.19,5.85-3.58,2.55-4.13,1.14-9-1.46-5.05.58-13.68,1.14-18.9.21-1.93,4.44-11.27,5.62-5.29,6.71,1.27,8-13.52,9.41-17.4,3.63-10,12.35-17.76,11.8-29.35-.21-4.43-.88-3-4.48-4.8s-3.53-4.23-5.72-7.23c-2.43-3.34-8.54-9.4-12.63-10.41-2.86-.7-6.58.29-9.45.42-3.88.18-7.73-.13-11.55.39-8.19-2.74-14.86-5.12-20.57-11.85-7.08-8.35-6.62-13-7.12-23.86-.12-2.71.7-9.87-1.68-11.68-3.6-2.75-4.54,3.49-5.9,5.9a13.42,13.42,0,0,0-1.86,4.65c-2.2,2.32-4.39,6.75-5.26,8-1.76,2.56-2.87,5.51-4.61,8.08-2.56,3.79-6.56,6.51-9,10.13-1.26,1.87-1.11,3.7-1.66,6-.8,3.29-1.77,3.64-4.76,5.2-3.77,2-6.28,5.21-10.42,6.4a61.34,61.34,0,0,1-11,1.57c-4,.37-8.45.56-12.1,2.38-2.73,1.36-4.75,4.24-7.86,4.65-3.32.42-5-3.2-7.7-3.75-.71-1.78-.12-3.18-2.58-4.11-3.35.36-1.76-.18-3.67-2.41a4.47,4.47,0,0,0-.79-.68,15.16,15.16,0,0,0,2.8-5.26c1.25-3.68,2.19-7.13.37-10.77-.68-1.35-1.91-2.37-2.28-3.88s.26-3,.31-4.55c.09-2.47-1.16-2.71-2.52-4.4-.87-1.09-1.18-2.53-2.26-3.4-6.68-5.38-7.73,10.23-8.86,13.39-1.36,3.8.7,6.12.94,9.85a20.19,20.19,0,0,1-.52,3.65,18.85,18.85,0,0,0-1.77-2.26c-1.89-1.94-4.26-3.29-6.11-5.27-2.39-2.56-4.79-7.55-5.84-10.92-1.92-6.22,1.56-12.29-2.15-17.88-2.74-4.13-6.47-3.86-10.4-6.32s-8.93-5.64-12.05-9.22a25,25,0,0,0-4.18-3.66c-2-1.52-2.57-3.28-3.53-5.55-1.37-3.23-2.28-6.78-4.71-9.25a13.1,13.1,0,0,0-2-6.61,99.3,99.3,0,0,0-6.47-9,6.55,6.55,0,0,0-2.94-2.14c-1.29-.41-3.61.7-4.38-.66-1.5-2.65,4.22-5.39,5.87-5.79,1.12-.26,3.25.3,3.25-1.67,0-1.75-2-1.33-3-2.07a4.17,4.17,0,0,1-.38-.34,6.51,6.51,0,0,1,.8-2.49c.94-1.14,2-.66,3.13-1.27a15,15,0,0,0,6.85-1.5c3.48-2.07,3-6.39,7.36-6.1,3.74.25,3.36,5,8.13,4.62,1.73-.12,5.68-3.74,7.32-4.68,6.59,5.42,16.63,12.42,16.3,21.3,6.9,1.41,5.32,6.43,8.54,11.33,2.12,3.22,4.75,4.61,6.9,8.36s.33,4.46,4.68,6.18c2.74,1.08,6.69-.72,9.57,0,3.87,1,3.71,1.83,7,4.11,6.7,4.64,14,3.71,22.06,6.74,7.24,2.71,12.65,4.63,20.6,3.13,11.15-2.11,17.13-13.76,28.24-17.62,23.82-8.26,10.58,23.2,27.81,26.48,5,1,11.46-2,16.45-1.87,4.54.11,8.33,1.64,13,1s10.44-2.09,15.82-2.67c3.61-.39,6.55-.42,9.18-3,2.31,3,11.9,5,15.3,2.71,6.54-4.4.91-17.24,2.91-23.3,1.42-4.27,1.43-3,5.33-6,3.26-2.5,5.11-4.71,8.19-7.32,1.59-1.34,6-1.63,7-3.86C718.41,260.67,715.58,256.8,715.4,254.62Z" transform="translate(0 0)"/><text class="cls-6" transform="translate(298.12 383.92)">Saudi Arabia</text></g></g></svg>