<svg xmlns="http://www.w3.org/2000/svg" viewBox="0 0 16.36 16.36"><defs><style>.cls-1{fill:#fff;fill-rule:evenodd;}</style></defs><g id="Layer_2" data-name="Layer 2"><g id="Botom_Menu" data-name="Botom Menu"><path class="cls-1" d="M8.18,0a8.18,8.18,0,1,0,8.18,8.18A8.18,8.18,0,0,0,8.18,0Zm5.19,11.15a.27.27,0,0,1-.07.08.47.47,0,0,1-.12.07,2.59,2.59,0,0,1-.6.24l-.26.07-.18.08a.31.31,0,0,0-.17.23l0,.17c0,.15-.07.2-.22.23h-.15l-.38,0a3.44,3.44,0,0,0-.85.15,2.07,2.07,0,0,0-.34.15l-.33.2a3.17,3.17,0,0,1-.55.28,2.26,2.26,0,0,1-.67.16,2.81,2.81,0,0,1-.58,0A2.3,2.3,0,0,1,7.05,13c-.13-.06-.24-.13-.36-.2l-.25-.15a2,2,0,0,0-.66-.25,3.4,3.4,0,0,0-.63-.08l-.34,0a.58.58,0,0,1-.19,0,.19.19,0,0,1-.16-.16l0-.15v0a.36.36,0,0,0-.21-.29L4,11.58l-.42-.12a2.63,2.63,0,0,1-.35-.15l-.09-.06-.06-.05a.11.11,0,0,1,0-.19l.12-.07A4.75,4.75,0,0,0,4,10.43a3.55,3.55,0,0,0,.92-1,2.72,2.72,0,0,0,.31-.67,1,1,0,0,0,0-.24.26.26,0,0,0-.08-.2l-.1-.09L4.78,8l-.42-.27a1.56,1.56,0,0,1-.2-.16A.55.55,0,0,1,4,7.42a.37.37,0,0,1,0-.34.33.33,0,0,1,.18-.17.53.53,0,0,1,.28,0A1.7,1.7,0,0,1,4.8,7a3,3,0,0,1,.32.12l.16,0h0c.06,0,.11,0,.11-.11s0-.13,0-.2a8.41,8.41,0,0,1,0-1.12A3.45,3.45,0,0,1,5.49,5a2.29,2.29,0,0,1,.41-.88,2.59,2.59,0,0,1,1.44-1,3.24,3.24,0,0,1,1-.11,2.88,2.88,0,0,1,1,.2,2.67,2.67,0,0,1,.84.51,2.43,2.43,0,0,1,.67,1,2.66,2.66,0,0,1,.12.56,5.3,5.3,0,0,1,0,.89c0,.22,0,.45,0,.67V7c0,.08,0,.11.13.11l.09,0L11.42,7a2.07,2.07,0,0,1,.42-.14.66.66,0,0,1,.28,0,.35.35,0,0,1,.25.48.6.6,0,0,1-.09.15l-.19.16-.25.16-.42.28-.17.12-.08.08a.25.25,0,0,0-.07.2.78.78,0,0,0,0,.22,2.36,2.36,0,0,0,.29.65,3.74,3.74,0,0,0,.85,1,4.63,4.63,0,0,0,.94.59l.09.05a.12.12,0,0,1,0,.05A.09.09,0,0,1,13.37,11.15Z"/></g></g></svg>