<svg xmlns="http://www.w3.org/2000/svg" viewBox="0 0 16.36 16.36"><defs><style>.cls-1{fill:#fff;}</style></defs><g id="Layer_2" data-name="Layer 2"><g id="Botom_Menu" data-name="Botom Menu"><path class="cls-1" d="M8.18,0a8.18,8.18,0,1,0,8.18,8.18A8.18,8.18,0,0,0,8.18,0Zm4.49,7.24a4,4,0,0,1-.9-.11,4.16,4.16,0,0,1-1.42-.61s0,0-.07,0,0,0,0,.08v3.52a3.36,3.36,0,0,1-4.88,3,1.17,1.17,0,0,1-.28-.17L5,12.84H5a.74.74,0,0,1-.17-.12A3.31,3.31,0,0,1,3.73,11.1a2.81,2.81,0,0,1-.14-.7,3,3,0,0,1,0-.52,3.39,3.39,0,0,1,1-2.15A3.23,3.23,0,0,1,5.77,7a3.45,3.45,0,0,1,.89-.19,3.64,3.64,0,0,1,.66,0s0,0,0,0v.37s0,.92,0,1.34v0s0,.06-.07,0A2,2,0,0,0,7,8.59a1.42,1.42,0,0,0-.54.08,1.5,1.5,0,0,0-.34,2.68l.13.09,0,0a2.47,2.47,0,0,0,.36.11,1.48,1.48,0,0,0,1.11-.19,1.5,1.5,0,0,0,.71-1.06,1.1,1.1,0,0,0,0-.26V3c0-.11,0-.1.09-.1h1.67c.06,0,.06,0,.06.06s.05.42.05.44a3,3,0,0,0,2,2l.36,0s0,0,0,.05,0,1.24,0,1.66C12.78,7.24,12.77,7.24,12.67,7.24Z"/></g></g></svg>