<svg xmlns="http://www.w3.org/2000/svg" viewBox="0 0 16.52 16.52"><defs><style>.cls-1{fill:#fff;}</style></defs><g id="Layer_2" data-name="Layer 2"><g id="Botom_Menu" data-name="Botom Menu"><path class="cls-1" d="M10.14,8.19,7.54,6.78c-.11-.06-.48,0-.48.14V9.68c0,.12.37.19.47.14l2.72-1.35C10.36,8.41,10.25,8.25,10.14,8.19ZM8.26,0a8.26,8.26,0,1,0,8.26,8.26A8.26,8.26,0,0,0,8.26,0Zm5.56,9.67A2.38,2.38,0,0,1,11.44,12H5.38A2.37,2.37,0,0,1,3,9.67V6.85A2.37,2.37,0,0,1,5.38,4.48h6.06a2.38,2.38,0,0,1,2.38,2.37Z"/></g></g></svg>